<svg enable-background="new 0 0 2000 634" height="634" viewBox="0 0 2000 634" width="2000" xmlns="http://www.w3.org/2000/svg"><path d="m-8.883-8.738h2019.581v647.975h-2019.581z" fill="#13322b"/><g fill="#265b4d"><path d="m326.157 611.011h-10.406c-.524-.998-1.358-1.868-2.45-2.487l-11.175-3.604c-1.138-.621-1.153-1.803-1.146-2.161-.016-1.133.554-2.211 1.565-2.7l1.597-.183c6.458 1.537 12.596 2.949 18.908.323 1.6-.769 2-.803 2.32-.68.267.087.815.608 1.546 2.465.562 3.296.084 6.187-.759 9.027zm-287.071-8.263-.965-.801c-.551-.085-1.31.417-1.995 1.205-.995 1.296-1.674 3.399-.807 5.135l1.523 2.724h7.998c-2.049-3.559-3.935-6.299-5.754-8.263zm399.971 8.263c-.836-2.838-3.049-6.043-6.654-9.548-6.593-5.113-25.958-11.806-53.106-18.369-1.06-.055-1.943.053-2.612.378-.987.513-1.352 1.312-1.414 2.27.261 1.313 1.41 2.485 3.175 3.027 16.316 3.058 31.535 8.104 45.211 15.172 2.895 1.712 4.499 3.993 4.447 6.598 0 .161-.032.318-.048.473h11.001zm10.515-7.314-2.45 7.313h4.286c.456-2.203.885-4.487 1.268-6.879.079-1.646-.375-2.519-.612-2.575-.443-.103-1.687.609-2.492 2.141zm-80.276-7.56c.534 1.735 2.222 4.065 4.332 4.795l37.577 10.079h6.793l.43-.519-.361-1.013c-16.628-7.809-32.135-12.039-48.771-13.342zm-197.319-61.034c5.934-1.744 13.411-3.311 17.186-.437 1.21.337 3.012.03 4.827-.873 2.251-1.122 3.104-2.455 3.093-2.702l-.907-.345c-.442-.185-.921-.354-1.411-.506h-17.457c-2.457.525-4.822 1.235-6.909 2.111zm41.419 3.873c-.663.668-.677 1.071-.677 1.157.006.167.477 1.198 3.653 2.52 1.059.314 2.434.655 3.448.203.881-.359.621-1.487.283-2.143-.86-1.805-3.25-3.014-6.707-1.737zm-7.014-1.91c4.719-2.385 10.337-5.213 18.728.787 2.278 1.65 2.516 3.136 2.461 4.157-.123 1.627-.607 2.399-3.107 3.604l-.118.053.649 1.474c1.524.21 3.152-.02 4.51-.674 1.757-.918 2.932-2.34 3.158-3.996.282-1.944-.66-4.027-2.748-5.934-9.865-7.335-17.58-5.975-26.066-1.747l-1.125.539c-.971.858-1.053 1.631-.936 1.834.058.101 1.645 1.293 4.594-.097zm-30.859 4.203 2.9 5.042c15.218-.336 28.003 3.576 38.4 14.86 4.964 8.048 9.812 12.504 14.255 13.176l1.027.068-.869-1.903c-11.243-20.746-26.07-31.083-44.314-30.851-3.431-.407-7.242-.532-11.399-.392zm69.231 24.069c-1.409-3.092-2.922-3.978-3.859-4.146-.441-.028-1.146-.069-3.267 1.009-1.104 1.248-1.696 2.207-1.578 2.789.052.812 1.062 1.532 2.339 2.076 3.492.556 4.84.108 5.306-.114.193-.093.897-.438 1.059-1.614zm219.238 32.435c-.439-.104-1.679.609-2.487 2.139l-3.719 11.099h4.708c.8-3.33 1.504-6.876 2.111-10.664.081-1.646-.376-2.518-.613-2.574zm-239.408-6.258c-8.415-8.012-24.461-17.372-31.163-19.119l1.369 2.375c9.546 5.487 18.473 12.29 27.884 20.396 3.298 2.21 2.901-2.683 1.91-3.652zm254.853-6.371c-.739-.02-1.74.458-2.544 1.518-.824 1.396-1.614 2.822-2.367 4.263l-6.698 20.087h5.273c2.17-9.339 5.072-17.152 7.532-23.237.156-.868.131-1.56-1.196-2.631zm-509.459 14.429-1.464-1.145h-.832c-1.258 1.266-2.026 4.502-1.975 7.655.297 1.689.557 3.321.78 4.927h6.833c-.882-3.605-1.998-7.412-3.342-11.437zm-9.933 5.176c-.435-.042-1.342.512-1.557 1.697-.163 1.082-.297 2.11-.436 3.146v1.419h3.223c.078-1.082.137-2.152.231-3.243-.184-2.243-.963-2.976-1.461-3.019zm4.92-58.892-5.082 34.398c.01 1.238.719 1.365 1.104 1.397.547.051 1.354-.31 1.786-1.581 3.57-8.65 5.231-19.873 5.087-34.248-.184-1.589-.733-2.361-.958-2.381-.419-.036-1.439.832-1.937 2.415zm29.12 44.077c-.701-.933-1.207-1.117-1.207-1.117-.154.068-.614.536-1.025 1.987-.797 3.977.024 7.184.815 10.582l.175.361c.711 2.786 1.429 5.74 1.127 9.264h4.966c1.041-6.883-.571-13.877-4.851-21.077zm-11.273 15.49c-.046-1.206 2.281-2.602 2.704-1.766.617 1.354 1.405 2.502 1.978 2.281 2.056.544-.078-8.628-.078-8.628-.647-1.036-2.004-1.24-2.937-1.385-1.031-.12-2.346.164-4.227.971-1.906.432-3.146 1.404-2.662 4.614.022 3.204.384 6.375 1.06 9.499h5.084c-.639-2.022-.895-4.244-.922-5.586zm372.03-67.938c-.018 2.484-1.176 4.417-3.36 5.542-1.236.635-2.85.929-4.788.876l-32.164-1.46-.717-.009-.212.221c.438 1.426 3.671 4.559 8.073 5.796 9.169 1.687 16.837 2.586 24.198 2.762l2.205.013c3.479.116 8.843.295 11.784-1.121 1.384-.693 2.438-1.737 3.074-2.964 1.662-5.486.175-12.133-2.621-16.901h-8.75c1.965 1.971 3.232 4.634 3.278 7.245zm20.858 72.04-2.906-.835c-.323.322-.588.947-.54 1.975.002.111.02.229.031.345h8.543c-1.716-.495-3.424-.99-5.128-1.485zm-47.978-53.192-1.122.095-.421.765c.06 1.188 1.275 3.031 3.319 3.979 8.641 1.438 17.469 3.051 22.857 5.289 3.726 1.333 5.688 4.744 5.951 7.41.185 2.327-.807 4.112-2.616 5.078-1.34.66-2.934.8-4.768.458l-16.054-1.147c-.57.396-.77 1.133-.699 2.103.214 1.605 1.292 3.479 3.187 3.992l20.759 3.001c2.27.204 4.152-.053 5.583-.743 1.241-.625 2.305-1.639 3.014-2.98 1.551-3.225 2.104-7.37 1.623-12.177-1.542-6.651-5.597-10.229-12.482-10.994zm18.789 17.386c1.054-.524 1.613-1.557 1.464-2.689-.131-1.052-.984-1.985-2.095-2.247l-12.876-.543-.865 1.533 1.132 1.883 12.292 2.392zm23.428-18.17c-.076 1.436.707 3.174 1.535 3.703 23.812 8.423 48.252 15.418 72.438 20.754l1.399-.154.692-1.035c.072-.669-.517-1.333-1.342-1.822-23.189-9.793-48.278-17.29-74.614-22.289zm119.649 23.84c-.449-.064-1.612.747-2.269 2.342l-6.661 29.279h4.339c2.96-7.774 4.767-17.36 5.459-29.104-.084-1.649-.626-2.479-.868-2.517zm-115.047-36.329-.534-.052-.494.631c.026 1.507 1.366 3.685 3.012 4.588 25.842 6.554 51.31 13.461 78.605 26.014 3.347 1.518 5.335 3.907 5.452 6.866.166 2.905-1.858 5.941-4.897 7.519-2.174 1.062-4.649 1.282-7.026.695-16.699-3.738-33.539-9.139-49.837-14.396-7.094-2.272-14.536-4.7-21.287-6.763l-1.497.08-.611 1.723c.07 1.88 1.362 4.421 3.037 5.221l53.104 17.575c8.35 3.026 16.216 4.252 23.354 3.634 2.966-.814 5.712-1.766 8.05-2.996 4.886-2.396 7.577-5.466 8.125-8.885.52-3.645-1.536-7.732-5.874-11.729-27.431-16.272-56.076-23.554-90.682-29.725zm-30.287 62.966-7.318-1.201-1.038.213c-.888.447-1.483 1.458-1.38 2.381.133.951.899 1.699 2.159 2.05l7.405 1.147 1.68-.212c.883-.438.846-1.534.844-1.972-.207-.938-.943-2.066-2.352-2.406zm-89.598-3.682c-1.404-1.565-2.924-2.21-3.836-1.769l-1.149 1.478c-.296 1.253.082 2.756 1.064 4.187l2.984 4.771h6.653zm-150.404-64.646 1.855.601c1.774.246 3.91-.24 3.63-.739-.797-1.685-3.514-4.353-7.006-7.32h-7.91c2.884 2.42 6.003 4.899 9.431 7.458zm127.834 60.308c-.634 1.531-1.203 3.283-1.501 4.87-.321 1.317.19 2.571 1.398 3.383 1.411 1.009 3.319 1.09 4.904.31l.776-.411.168-.135 7.301-15.014c.461-1.123.352-2.725-.49-4.19-.732-1.274-1.752-2.017-2.268-2.153-8.015-.728-16.102-5.726-26.373-13.082-8.493-5.412-18.692-8.845-28.157-8.889l1.604 2.791c14.528 3.798 27.019 8.418 40.654 22.611 1.539 2.088 3.189 4.429 2.545 8.461zm-147.751-28.338.974.265c1.182.161 2.311-.352 2.937-1.339.591-.905.525-2.125-.187-2.945l-9.905-7.549-1.702.741-.342 2.13zm72.536-39.429h-8.438c.193.341.405.643.65.896 16.639 22.846 33.896 47.709 48.976 79.875h8.909c-2.551-7.146-5.436-14.273-9.377-21.869-10.563-19.759-24.093-39.302-40.72-58.902zm-88.313 17.768c-.417-.488-1.738-1.131-2.557-1.562l-.489-.238-1.356-.749c-4.894-3.068-8.874-6.864-13.497-11.275l-.357.703c-1.3 2.82-1.266 4.695.108 6.133l6.517 6.91c2.406 3.576 1.816 7.624.137 9.955-1.235 1.838-3.18 2.734-5.191 2.53-1.773-.269-3.447-1.41-4.98-3.467-.419-.836-.842-1.242-1.283-1.306-.113-.016-.67-.062-1.878.78-4.547 2.715-4.103 5.028-3.209 6.655 4.206 5.66 7.988 8.644 11.504 9.16 2.735.341 5.452-.915 8.293-3.765 3.272-4.331 6.128-10.185 8.222-17.407.427-1.338.402-2.392.016-3.057zm-12.37 41.032c-1.001-.144-2.146.339-2.667 1.136-.525.827-.405 1.851.367 2.826l5.146 5.001 1.478.767c.996.131 1.689-.761 1.974-1.105.459-.866.613-2.175-.288-3.228l-5.041-4.996zm301.807 8.299c-6.465-2.568-13.032-4.864-21.322-4.584-.569.353-.779.945-.715 1.783.188 1.731 1.58 3.655 3.078 4.132l11.939 3.917c2.657 1.44 4.306 4.385 4.209 7.667.001.256-.02.506-.041.757h10.267c.222-5.861-.655-10.312-7.415-13.672zm-385.557-9.963c5.2-16.211 6.311-30.789 6.701-42.868.057-2.58-.66-4.259-1.825-4.344l-1.675.688c-.809.751-1.421 1.942-1.467 3.248-.674 14.137-2.05 29.876-7.118 39.47-3.3 4.383-6.412 7.055-9.001 7.695v8.388c5.248-1.055 11.176-5.153 14.385-12.277zm.108-54.788c.457 1.585 1.928 2.703 3.708 2.956l.884.102.227-.017 10.682-5.389h-15.294c-.374.71-.479 1.52-.207 2.348zm270.282 43.88c.793.964 7.956 1.12 12.834-1.331 1.472-.71 2.199-1.421 2.581-2.326 1.819-3.562.358-7.959-4.874-13.651-6.153-7.732-13.423-9.529-22.031-5.686-1.07.543-1.373 1.659-.973 2.352.416.784 2.041 1.353 2.512 1.238 7.855-3.483 13.179-.697 18.431 8.576 1.485 4.931-.661 5.628-2.308 6.442-1.369.699-3.057 1.048-5.088 1.044-1.608.384-1.99 1.56-2 1.974-.058.279.147.786.916 1.368zm271.626-2.084-1.89.545c-1.066.834-1.755 2.241-1.916 3.926l-1.033 7.354c-.571 3.717-1.108 7.43-1.629 11.146-.566 3.587-1.104 7.149-1.646 10.653-.02 1.127-.149 2.1-.312 3.003h6.519l3.798-33.097c-.09-2.024-.874-3.376-1.891-3.53zm-10.104-19.445c-.004-.004-.008-.008-.008-.008-.352-.518-.743-1.03-1.198-1.527-13.573-8.805-28.099-16.495-43.653-23.164h-25.511c16.995 6.11 34.835 13.616 53.774 23.361 2.92 1.848 4.246 3.67 4.159 5.473-.077 1.129-.765 2.06-1.868 2.579-2.225 1.064-5.783.638-9.444-1.075-26.543-13.717-55.044-23.027-81.969-30.338h-26.339c.734.818 1.546 1.508 2.396 1.922 22.239 4.398 49.628 14.898 73.798 24.185l.866.284c17.208 6.656 32.11 12.325 40.719 14.086 4.188.252 8.08-.385 11.147-1.936 3.145-1.479 5.234-3.93 5.686-6.553.33-1.937-.127-3.854-1.278-5.665-.366-.549-.787-1.094-1.277-1.624zm-495.914 50.226c-1.523.661-1.628 1.03-.734 2.919.833 1.78 1.792 2.66 3.357 2.895 1.219.117 2.635-.092 4.168-.636l7.965-6.791 1.033-1.686c-.118-.133-.188-.456-1.136-.599-4.046-.923-6.222-4.891-8.284-8.498-1.739-3.015-3.528-6.09-6.171-7.564l-1.591-.514c-.82-.122-1.565.036-1.835.48-.397.33-.268.84.031 1.693.521 1.504 1.663 3.174 2.946 5.165 2.717 4.112 6.105 9.191.251 13.136zm270.852-74.322c-3.059 1.526-6.414 1.733-10.774 1.847l-.58 1.47c.022.359.262 1.2 1.252 1.549l7.651 1.335c9.711-1.592 14.979 2.48 16.557 6.479 1.316 3.272.241 6.667-2.524 8.043-1.85.919-4.317 1.024-7.845.311.302.837 1.011 2.02 2.601 3.228 8.46 4.916 16.68 4.9 21.107 2.662 2.088-1.018 3.267-2.5 3.385-4.112.283-2.449-1.432-5.14-4.936-7.895-7.741-5.165-12.265-10.577-15.432-15.519h-9.417c-.338.211-.684.417-1.045.602zm-288.384 9.239c-1.06.829-1.752 2.24-1.911 3.919l-1.034 7.362c-.575 3.713-1.111 7.429-1.629 11.145-.566 3.585-1.103 7.147-1.648 10.654-.122 6.402-2.805 8.87-5.289 11.091l-.209.221c-1.208 1.079-2.353 2.174-3.176 3.544-1.93 4.781-1.474 6.071-1.307 6.354l.374.08c.339.052.987.05 1.976-.233 8.662-5.571 13.15-11.271 13.83-18.01l3.808-33.143c-.088-2.027-.876-3.375-1.894-3.531zm351.329-3.068c1.573-.788 2.958-2.355 2.404-2.6-6.202-3.199-40.02-2.96-40.02-2.96.589.728 1.614 1.754 2.688 2.176 9.052 2.189 19.808 3.493 33.052 3.921zm-69.711 73.89c4.652-8.242 5.69-16.056 3.288-23.312-1.721-4.089-3.976-6.686-6.928-7.869-3.357-1.279-7.785-.761-13.553 1.563l-1.534.584c-2.359 1.192-3.267 3.073-2.981 4.356.293.888 1.034 1.598 2.08 1.779l7.875-2.02c2.215-.286 4.626.043 5.873 1.104 1.703 1.335 3.498 6.081 3.25 10.164-1.654 8.421-4.028 9.928-.784 13.263.129.194.253.35.374.493h2.895zm-7.646-16.456c-2.452-3.728-4.403-2.712-5.183-2.333-.788.396-1.777 1.167-2.835 2.159-.859 1.101-1.142 2.332-.653 3.182.53.915 2.048 1.369 3.821 1.267 1.032-.31 1.968-.678 2.77-1.061 2.802-1.424 2.503-2.469 2.08-3.214zm48.701-9.84c-1.588.767-3.676.78-6.254-.01-.887-.438-1.493-.525-1.887-.333-.1.044-.576.321-.983 1.656-1.829 4.678.052 6.28 1.836 7.08 7.084 2.191 12.065 2.479 15.213.949 2.401-1.243 3.741-3.742 4.126-7.583-.247-5.265-1.831-11.509-4.928-18.421-.542-1.308-1.254-2.135-2-2.453-.658-.154-2.132.063-3.068.171l-.55.081-1.568.152c-5.928.256-11.606-.572-18.201-1.53l.182.757c.819 2.963 2.087 4.438 4.129 4.83l9.752 1.905c4.276 1.525 6.478 5.074 6.678 7.866.221 2.145-.737 3.935-2.477 4.883zm-55.91-35.689 2.314 2.458c18.313 20.024 30.08 32.896 20.976 59.634h11.778c1.048-3.875 1.741-8.124 2.095-12.771 3.58-22.824-25.83-52.034-43.882-68h-14.176c6.416 4.212 13.188 10.194 20.895 18.679zm-251.116-7.57c.504-4.323-1.717-4.596-2.588-4.724-.894-.119-2.191-.053-3.688.157-1.408.403-2.443 1.229-2.618 2.176-.182 1.021.726 2.221 2.207 3.118 1.031.322 2.021.547 2.912.684 3.168.421 3.624-.584 3.775-1.411zm6.258-4.89c.486 2.001-1.219 6.783-4.105 9.896-6.875 5.805-9.762 5.689-9.378 10.145-.186 2.01.659 2.136 1.103 2.204l1.367-.007c9.146-4.006 15.128-9.66 17.996-16.773 1.328-4.205 1.243-7.527-.33-10.104-.359-.559-.82-1.081-1.339-1.579h-15.081l5.82 2.095c1.951.993 3.659 2.592 3.947 4.123zm16.566 60.858c1.165.179 2.375-.123 3.583-.778 2.523-2.183 4.975-3.794 7.643-5.596 4.066-2.523 7.873-4.936 10.443-9.306.642-1.882.549-2.604.397-2.816-.174-.28-.522-.476-2.302-.741-6.762-1.4-10.723-5.917-14.863-10.711l-1.392-.731c-1.129-.174-2.293.376-3.025 1.289-.246.278-1.013 1.225-.516 2.349l6.534 9.054c.824 1.955.507 4.112-.876 5.675-1.351 1.644-3.571 2.549-5.496 2.294-1.101-.151-1.973-.585-2.717-1.329l-6.931-6.963-1.562-.592c-1.069-.163-1.982.479-2.424 1.12-.5.841-.594 1.702-.183 2.438 2.792 4.862 6 9.16 9.869 13.138 1.355 1.353 2.553 2.044 3.818 2.206zm-29.229-18.999.45.066c9.528-2.412 18.463-8.145 27.338-17.462 7.702-6.976 11.305-18.271 12.616-30.683h-9.479c-1.869 14.859-9.077 26.518-31.53 38.428-2.436 1.85-2.93 4.897-2.334 6.893.425 1.587 1.452 2.577 2.939 2.758zm71.064-48.078h-16.368c3.028 2.956 6.405 4.615 9.274 4.994 2.335.335 4.252-.189 5.413-1.409.907-.889 1.465-2.093 1.681-3.585zm552.244 69.528-18.78-20.962-.944-.636-.909.326c-.85.95-1.295 3.142-.426 5.158 5.639 6.572 11.293 13.389 13.799 18.519 1.724 3.084.987 6.563-.531 8.838h11.4c.956-4.03-.215-7.736-3.609-11.243zm161.954-42.034c-1.436.72-2.92 1.232-4.43 1.481l-.652.421c.191.264.551.59 1.371 1.072 5.385 1.271 11.204.786 15.158-1.158 2.613-1.343 3.982-3.084 4.046-5.094.043-3.243-3.672-7.196-10.068-10.954l-1.135-.786-.253-.249-.207-.364c-.314-.543-.822-1.858-8.854-3.455l-.455-.087c.352 1.362-.529 2.845-2.523 4.298-1.185.896-2.736 1.773-4.434 2.681-1.678.808-3.739 1.7-6.217 2.682l-.637.891c.635.83 2.507 1.717 4.654 1.181 11.253-5.215 17.164-3.743 18.949-.64 1.393 2.714-.33 6.116-4.313 8.08zm28.605 29.749c-1.845.917-4.317 1.022-7.842.309.306.842 1.013 2.016 2.598 3.229 8.465 4.913 16.683 4.899 21.112 2.663 2.084-1.022 3.263-2.503 3.383-4.117.284-2.447-1.431-5.137-4.938-7.893-9.561-6.38-14.214-13.135-17.462-18.922-.826-1.438-1.423-1.725-2.091-1.878-.703.479-1.573 1.807-1.884 2.31-1.3 1.544-2.722 2.683-4.454 3.576-3.059 1.525-6.412 1.732-10.776 1.852l-.577 1.464c.025.359.263 1.201 1.251 1.548l7.652 1.333c9.711-1.587 14.979 2.483 16.554 6.481 1.319 3.273.244 6.666-2.526 8.045zm-59.541-47.516-.134.061-.97.894c4.942 1.147 10.891.463 18.147-2.048 2.271-1.26 2.799-2.175 2.867-2.653 0-.606-.408-1.315-1.006-1.884-3.185-1.605-6.249-2.949-9.219-4.096h-11.434c.642.214 1.279.438 1.917.681 2.814 1.197 4.196 2.518 4.247 4.171.066 1.731-1.37 3.357-4.415 4.874zm-12.114-6.369c-1.709.103-3.745.748-6.25 1.981-1.769.919-3.634 2.06-4.938 2.9-.607.496-.685.839-.594 1.001.045.246.889.916 2.945.892 3.176-.448 5.703-1.183 7.633-2.187 1.444-.713 2.604-1.547 3.404-2.446.725-1.108.57-1.435.534-1.491.001 0-.391-.563-2.734-.65zm-34.291 5.582c2.624-1.611 5.351-3.182 8.199-4.578 3.722-1.867 7.343-3.313 10.871-4.361h-12.357c-2.349.969-4.603 2.018-6.767 3.103-2.474 1.219-5.113 2.667-7.693 4.2-.951.633-1.435 1.275-1.307 1.49.698 1.111 5.325 1.815 9.054.146zm135.782 64.679c-.545-1.304-1.257-2.13-1.999-2.445-.656-.156-2.133.059-3.067.167l-.551.075-1.573.158c-5.925.253-11.604-.57-18.2-1.527l.181.755c.822 2.964 2.086 4.44 4.13 4.829l9.751 1.912c2.027.715 3.57 1.896 4.67 3.228h9.402c-.73-2.29-1.636-4.673-2.744-7.152zm-126.737-3.718c-1.675-.29-3.527-.444-5.536-.47l1.543 2.686c7.37.184 13.679 2.515 19.035 8.622.005.012.013.022.019.032h3.321c-5.244-6.982-11.386-10.63-18.382-10.87zm174.938 4.398c-.887-.109-1.867.152-2.456.64-.737.495-1.129 1.252-1.269 2.369-.213 1.144-.425 2.297-.637 3.463h6.885c.189-1.016.385-2.03.582-3.021-.06-2.231-1.622-3.225-3.105-3.451zm-110.661 4.184c1.819-3.558.357-7.955-4.873-13.644-6.153-7.734-13.422-9.534-22.032-5.69-1.071.543-1.368 1.662-.974 2.352.421.782 2.047 1.354 2.514 1.24 7.857-3.488 13.181-.699 18.43 8.574 1.484 4.935-.66 5.63-2.303 6.443-1.372.699-3.059 1.049-5.092 1.042-1.603.382-1.988 1.558-1.998 1.971h13.828c1.413-.697 2.128-1.397 2.5-2.288zm-110.792-56.123-.662.037c-1.359 2.205-1.18 7.812.818 9.928 10.474 14.836 21.183 30.535 31.377 48.446h10.663c-10.758-18.953-24.204-37.78-40.538-56.735-.711-1.081-1.216-1.573-1.658-1.676zm-591.716 42.506c-3.455-5.621-7.178-11.08-13.971-15.435-.687-.036-1.245.317-1.746 1.025-.994 1.479-1.155 3.79-.273 4.995l6.934 9.718c1.17 2.615.545 5.878-1.697 8.439-2.013 2.477-4.949 3.815-7.604 3.446-1.371-.182-2.596-.717-3.642-1.714l-8.039-7.716-1.243-.91c-.811-.124-1.823.614-2.454 1.8-.49.901-1.095 2.836.082 4.023l8.513 8.231h21.223c4.544-4.934 7.306-9.063 3.917-15.902zm687.959 7.759c.194-.094.899-.433 1.06-1.611-1.406-3.09-2.92-3.978-3.856-4.148-.443-.029-1.147-.069-3.266 1.01-1.106 1.247-1.701 2.213-1.579 2.793.05.81 1.06 1.532 2.338 2.071 3.493.556 4.838.109 5.303-.115zm-51.031-12.609c-2.423-.397-5.129-.606-8.088-.641l1.869 3.673c10.83.247 19.772 3.434 26.736 11.785 1.334 2.426 2.673 4.393 4.01 5.938h4.508c-7.112-13.413-16.823-20.368-29.035-20.755zm184.567-40.508c-.019-.018-.036-.031-.056-.051-.686.029-1.571.555-2.246 1.638-.673 1.413 0 0-1.906 4.298-12.073 40.458-4.383 42.208-4.383 42.208 1.381 1.201 3.147 1.911 5.262 2.065 1.051.068 2.175-.014 3.329-.243v-8.382c-.479.118-.948.183-1.392.148-1.493-.127-3.964-1.1-3.939-6.617.861-11.352 3.146-20.995 5.331-28.589zm-346.228-12.727c1.866 2.016 2.589 3.709 2.392 5.182-.299 1.029-.878 1.869-1.921 2.424-1.877 1.02-5.029 1.431-9.725 1.241-11.952-.552-24.509-3.649-38.511-9.479-4.253-2.134-8.398-4.168-12.491-6.149h-19.902c16.7 7.495 27.845 9.844 41.604 17.978.513.509.965 1.035 1.35 1.577 22.391 9.013 43.235 7.922 63.7-3.397 1.946-1.091 3.994-2.347 5.972-3.632 2.87-2.544 2.724-3.599 2.716-3.614-.121-.381-1.089-.881-3.274-1.141-9.02-1.096-17.234-3.735-24.55-7.771h-17.641c3.391 2.221 6.811 4.478 10.281 6.781zm-21.723 2.64c2.255.451 4.516.233 5.864-.486.647-.345 1.028-.864 1.04-1.353-.037-1.5-2.114-3.653-5.589-5.789-1.062-.604-2.124-1.198-3.184-1.793h-17.445c6.176 2.989 12.586 6.116 19.314 9.421zm331.923 62.686c.759-.498 1.067-1.368.805-2.273-.234-.839-1.031-1.528-1.937-1.66l-10.205.493-.487 1.298 1.134 1.438 9.983 1.039zm-737.735-3.556c-3.779-5.941-7.715-12.213-11.387-17.794l-1.19-.83-1.69.944c-1.279 1.473-2.098 4.169-1.392 5.771l14.975 24.128h8.482c-2.639-4.08-5.235-8.166-7.798-12.219zm-167.418-46.623c.089-.821.016-1.475-1.143-2.369v6.21c.386-1.339.77-2.631 1.143-3.841zm729.646-21.928h-10.131c-.429.475-.847.98-1.235 1.531-1.035 1.446-1.826 2.929-2.375 4.421 0 0-5.006 13.7 11.253 19.572 6.364 2.295 11.924 1.519 18.47.909 3.408-.296 6.028-.474 8.437-.548 4.714-.027 9.538.071 14.294.38 18.412.715 32.446 5.41 53.264 28.328l2.311 2.462c7.938 8.675 14.636 16.013 18.949 23.715h10.683c-11.382-21.887-37.312-43.878-47.7-52.628-10.47-8.064-21.795-11.312-35.698-10.271l-37.205 1.338c-4.673-.946-8.073-3.315-9.604-6.653-1.61-3.54.373-5.366 3.173-9.238.829-1.138 1.863-2.24 3.114-3.318zm-32.716 10.268c1.486 2.238 1.498 4.708.077 6.516-1.284 1.628-3.469 2.292-5.836 1.798-1.488-.308-3.114-1.098-4.97-2.573-5.222-6.122-10.618-11.403-15.943-16.008h-7.378c8.55 7.324 17.32 15.989 26.46 26.2 2.21 2.241 4.13 3.432 6.006 3.863 2.073.403 4.145-.251 6.222-2.007 5.888-8.004 3.851-17.175-6.233-27.874-.071-.06-.146-.121-.217-.183h-7.754c3.485 3.319 6.698 6.729 9.566 10.268zm137.361-7.861-.741.087c1.157.72 3.993 1.891 8.568 2.401 22.04-1.387 59.186-2.146 77.479 1.687 2.547.764 4.144 2.49 4.239 4.542.087 1.85-1.122 3.505-3.21 4.448-1.306.597-3.033.931-5.365.905-20.108-3.751-49.427-3.825-62.46-2.729l-.188.939c.418 1.135 1.973 2.635 4.538 2.39 15.826-.739 45.729 1.371 66.994 4.857 3.099.377 5.3.161 6.979-.559 1.808-.843 2.934-2.436 3.361-4.807-.735-8.852-8.146-14.187-22.555-16.216-3.42-.129-7.492-.255-11.964-.354h-35.949c-11.711.325-22.584 1.044-29.726 2.409zm84.364 26.882c-16.802-4.447-36.487-6.022-61.877-5.035l-.388 1.002c.167 1.302 1.903 2.896 4.168 3.229 4.549.441 10.904.605 18.279.746 14.245.31 28.924.616 33.496 3.536 3.401 1.692 5.777 5.311 5.807 8.866-.035 2.419-1.209 4.323-3.386 5.462-1.238.645-2.842.962-4.765.952l-31.958-.763-.713.008-.208.219c.417 1.379 3.606 4.364 7.967 5.479 9.104 1.455 16.717 2.17 24.029 2.188l2.19-.029c3.457.039 8.786.105 11.725-1.337 1.378-.701 2.433-1.741 3.08-2.948 2.567-8.119-1.97-18.694-7.446-21.575zm3.368 49.088c.805-2.709.712-6.096-.284-9.939-2.065-5.258-5.715-7.853-11.233-7.967l-22.673-1.295-.873.157-.231.651c.197.951 1.396 2.351 3.123 2.97 6.986.537 14.143 1.195 18.671 2.61 3.103.806 5.088 3.417 5.642 5.548.435 1.866-.114 3.375-1.417 4.286-.966.633-2.206.858-3.695.719l-12.778.239c-.399.359-.462.969-.282 1.741.294 1.017 1.043 2.114 2.114 2.673h22.225c.748-.587 1.349-1.39 1.691-2.393zm-187.674-40.348 1.579 2.745c5.932-1.739 13.411-3.307 17.186-.43 1.209.332 3.014.031 4.829-.872 2.25-1.123 3.104-2.461 3.093-2.706l-.907-.341c-6.327-2.694-17.954-1.682-25.78 1.604zm171.835 4.655c1.577-.785 2.961-2.354 2.406-2.592-6.204-3.201-40.019-2.963-40.019-2.963.586.729 1.609 1.757 2.688 2.179 9.048 2.188 19.806 3.488 33.051 3.921zm-147.441 37.765c.181.102.358.215.54.321h4.806c-2.657-1.297-4.993-2.251-6.716-2.702zm-576.531-70.011-.851-.853-.905.687c-1.823 1.9-2.95 6.564-1.818 9.273 13.366 16.327 26.27 40.04 37.698 61.226h11.215c-13.217-26.007-29.976-49.575-45.339-70.333zm100.346 69.204-.828 1.129h3.841c-1.121-1.092-2.213-1.526-3.013-1.129zm-40.028-23.053 5.502 9.573c5.818 5.242 9.225 10.028 10.461 14.608h8.88c-.213-.471-.464-.941-.757-1.411-6.722-9.331-14.662-16.879-24.086-22.77zm299.365-10.036-1.859.584c-.93.709-1.673 1.885-1.816 3.225-1.239 10.318-2.936 21.438-6.047 30.409h5.945c3.14-10.862 4.539-20.878 5.441-29.631.247-2.64-.408-4.414-1.664-4.587zm22.482 17.828 1.37-.01c9.15-4.002 15.126-9.656 17.999-16.77 1.326-4.21 1.241-7.525-.336-10.102-1.832-2.875-5.707-4.908-11.833-6.243l-1.61-.383c-2.672-.351-4.63.649-5.248 1.825-.356.872-.229 1.85.482 2.568l7.615 2.742c1.95.994 3.654 2.593 3.946 4.125.484 2.005-1.221 6.782-4.107 9.896-6.873 5.804-9.767 5.692-9.377 10.147-.186 2.009.659 2.138 1.099 2.205zm27.506 2.219c9.569-8.665 12.796-22.757 13.169-38.616l-9.556 2.167c-.46 16.265-4.873 27.572-23.813 39.48-.563-.356-1.149-.714-1.688-1.062l1.336 1.275c-2.383 1.486-4.978 2.979-7.835 4.498-2.258 1.719-2.837 4.447-2.436 6.428h12.271c6.328-3.104 12.46-7.77 18.552-14.17zm-469.283-51.156-.957-.543-.84.382c-.737.976-.98 3.121.02 5.003 5.939 5.927 11.915 12.086 14.737 16.848 2.089 3.123 1.403 6.928-.14 9.2-1.395 1.954-3.36 2.827-5.438 2.596-1.508-.209-2.867-.981-4.105-2.267l-12.041-9.781c-.72 0-1.366.477-1.942 1.288-.89 1.396-1.269 3.486-.095 4.942l14.568 13.863c1.679 1.419 3.349 2.253 4.943 2.489 1.401.19 2.914-.031 4.37-.711 3.36-1.71 6.536-4.71 9.321-8.811 3.162-6.154 2.288-11.244-2.7-15.662zm439.013 29.189c-.184 1.021.724 2.222 2.203 3.121 1.03.32 2.022.547 2.91.679 3.172.423 3.626-.58 3.778-1.41.504-4.327-1.719-4.593-2.589-4.725-.893-.119-2.193-.048-3.686.161-1.41.403-2.445 1.226-2.616 2.174zm-417.878 19.507c-1.126-.139-1.943.298-2.623 1.022-.66 1.192-.519 2.762.533 4.169 3.562 3.71 6.865 7.533 9.95 11.439h7.133c-3.721-4.802-7.951-9.98-12.664-15.494-.808-.622-1.583-1.024-2.329-1.136zm-14.245 6.016c-.716 1.667-.908 4.463.29 6.21l3.567 4.404h7.371c-3.481-3.749-7.192-7.287-11.228-10.614zm27.245-42.58c7.473-5.219 10.987-16.54 8.601-22.049-1.433-1.854-2.956-3.695-4.555-5.527h-6.016c1.649 1.801 2.811 3.417 3.254 4.771 1.545 3.341.991 7.688-1.368 10.634-1.651 1.975-3.856 2.874-6.336 2.565-1.405-.181-2.885-.839-4.396-1.946l-20.875-16.024h-4.7c.334 1.785 1.141 3.929 2.63 5.825 6.199 6.412 11.72 11.363 17.472 15.57l1.746 1.229c2.701 2.012 6.857 5.119 10.141 5.616 1.557.215 3.084-.038 4.402-.664zm14.469 1.957-.827.18c-1.051 1.167-1.575 3.618-.962 5.285 10.743 14.578 21.204 29.187 30.631 45.772h8.424c-9.387-17.579-21.894-33.599-36.896-50.882zm12.612 51.238h7.73c-8.561-14.788-18.572-29.211-29.978-43.073l-.688.57c-1.094 1.034-1.76 2.81-1.516 3.707 7.576 13.281 15.773 26.273 24.452 38.796zm485.718-38.671 1.867.768c1.825.393 4.088.062 3.838-.479-2.405-6.382-28.916-27.57-28.916-27.57-.097.931-.075 2.368.443 3.37 5.392 7.408 12.781 15.206 22.768 23.911zm33.359-1.201-.915.673c-1.854 1.879-3.053 6.528-1.962 9.247 6.734 8.485 13.32 18.916 19.635 29.952h10.508c-8.631-13.887-17.754-26.918-26.424-39.01zm-10.468 19.813-.83.173c-1.07 1.148-1.635 3.591-1.047 5.262 3.461 4.854 6.893 9.703 10.267 14.624h7.778c-4.886-6.483-10.159-12.998-15.81-19.7zm-76.602 5.376c-1.772-.265-3.446-1.407-4.979-3.463-.421-.835-.843-1.241-1.283-1.308-.11-.018-.671-.061-1.882.781-4.543 2.718-4.099 5.029-3.205 6.654 4.206 5.662 7.986 8.646 11.505 9.161 2.734.34 5.45-.912 8.291-3.765 3.271-4.332 6.127-10.183 8.222-17.406.428-1.345.404-2.395.02-3.059-.419-.489-1.738-1.128-2.558-1.564l-.491-.236-1.353-.746c-4.896-3.068-8.874-6.866-13.5-11.277l-.359.705c-1.296 2.813-1.263 4.692.11 6.133l6.515 6.907c2.408 3.578 1.819 7.622.138 9.959-1.235 1.834-3.18 2.731-5.191 2.524zm161.523-21.438c-.66.671-.674 1.079-.674 1.164.004.161.478 1.193 3.653 2.513 1.062.314 2.435.658 3.445.206.885-.362.625-1.488.285-2.143-.857-1.805-3.25-3.017-6.709-1.74zm-136.764 16.424-1.836.628-.545 2.168 7.762 9.608.987.351c1.218.261 2.429-.179 3.176-1.148.691-.891.73-2.147.07-3.05zm147.832-9.784-.118.06.647 1.463c1.528.211 3.155-.016 4.512-.667 1.759-.921 2.938-2.34 3.158-4.001.279-1.938-.663-4.021-2.746-5.93-9.865-7.338-17.582-5.978-26.071-1.75l-1.121.541c-.971.857-1.05 1.631-.935 1.834.059.102 1.646 1.296 4.594-.097 4.72-2.386 10.335-5.212 18.729.783 2.273 1.651 2.513 3.138 2.457 4.159-.122 1.628-.606 2.401-3.106 3.605zm-47.817-4.959 2.897 5.04c15.219-.333 28.006 3.576 38.404 14.858 4.961 8.048 9.809 12.503 14.252 13.175l1.031.071-.865-1.902c-11.251-20.748-26.075-31.084-44.321-30.854-3.43-.401-7.242-.522-11.398-.388zm-106.146 23.633c-.747-.056-1.46.386-2.136 1.174-1.049 1.368-1.631 3.493-.542 5.09l4.087 4.543h9.985zm25.799-54.283c10.699 9.538 21.727 19.36 22.987 24.671 1.302 3.566.338 7.998-2.377 10.852-1.892 1.9-4.262 2.655-6.814 2.143-1.44-.297-2.917-1.086-4.388-2.35l-23.937-21.459-.553-.458-.331.038c-.738 1.367-.594 5.828 1.899 9.565 5.86 7.096 11.15 12.635 16.747 17.419l1.709 1.404c2.617 2.289 6.66 5.814 10.025 6.584 1.599.344 3.211.202 4.635-.338 8.23-4.792 12.898-16.181 10.918-22.05-8.928-13.677-21.802-26.997-40.215-41.702h-5.001c.043 1.042.429 2.197 1.246 3.159 3.151 3.319 7.901 7.596 13.45 12.522zm-36.252 13.987c-2.08-.287-4.118-1.574-6.458-4.087-.312.835-.526 2.163-.056 4.008 3.503 8.594 10.064 13.122 15.078 13.786 2.328.334 4.246-.189 5.405-1.411 1.842-1.794 2.251-4.887 1.272-9.02-2.319-7.046-2.751-13.634-2.387-18.72 0 0-2.891 3.623-5.658 4.501.768 2.137.7 4.214.119 5.923-1.106 3.336-4.201 5.448-7.315 5.02zm57.964 39.638c-1.105 1.021-1.797 2.79-1.575 3.69 1.436 2.604 2.892 5.191 4.369 7.774h7.03c-2.939-4.041-5.961-8.062-9.128-12.023zm-83.733 3.741-1.39-.735c-1.135-.172-2.295.377-3.027 1.288-.245.28-1.012 1.229-.511 2.355l3.475 4.815h9.398c-3.013-2.063-5.452-4.836-7.945-7.723z"/><path d="m1268.484 611.011h-10.409c-.517-.998-1.354-1.868-2.446-2.487l-11.176-3.604c-1.138-.621-1.154-1.803-1.141-2.161-.018-1.133.549-2.211 1.562-2.7l1.597-.183c6.461 1.537 12.593 2.949 18.907.323 1.601-.769 2.001-.803 2.322-.68.265.087.812.608 1.545 2.465.559 3.296.083 6.187-.761 9.027zm-287.073-8.263-.961-.801c-.554-.085-1.31.417-1.992 1.205-.995 1.296-1.68 3.399-.812 5.135l1.526 2.724h7.998c-2.052-3.559-3.937-6.299-5.759-8.263zm399.972 8.263c-.832-2.838-3.047-6.043-6.654-9.548-6.592-5.113-25.959-11.806-53.105-18.369-1.061-.055-1.943.053-2.611.378-.994.513-1.354 1.312-1.416 2.27.26 1.313 1.409 2.485 3.174 3.027 16.32 3.058 31.536 8.104 45.214 15.172 2.895 1.712 4.499 3.993 4.446 6.598 0 .161-.033.318-.047.473h10.999zm10.514-7.314-2.447 7.313h4.285c.459-2.203.883-4.487 1.27-6.879.081-1.646-.377-2.519-.612-2.575-.442-.103-1.688.609-2.496 2.141zm-80.274-7.56c.533 1.735 2.221 4.065 4.329 4.795l37.577 10.079h6.798l.431-.519-.363-1.013c-16.624-7.809-32.139-12.039-48.772-13.342zm-197.316-61.034c5.929-1.744 13.407-3.311 17.179-.437 1.215.337 3.016.03 4.836-.873 2.245-1.122 3.103-2.455 3.089-2.702l-.908-.345c-.448-.185-.92-.354-1.412-.506h-17.455c-2.455.525-4.82 1.235-6.912 2.111zm41.416 3.873c-.662.668-.676 1.071-.676 1.157.006.167.48 1.198 3.653 2.52 1.058.314 2.436.655 3.451.203.876-.359.616-1.487.278-2.143-.858-1.805-3.243-3.014-6.706-1.737zm-7.012-1.91c4.72-2.385 10.336-5.213 18.725.787 2.277 1.65 2.52 3.136 2.463 4.157-.122 1.627-.611 2.399-3.111 3.604l-.115.053.648 1.474c1.525.21 3.154-.02 4.51-.674 1.755-.918 2.936-2.34 3.16-3.996.277-1.944-.66-4.027-2.749-5.934-9.862-7.335-17.579-5.975-26.071-1.747l-1.117.539c-.973.858-1.057 1.631-.938 1.834.058.101 1.643 1.293 4.595-.097zm-30.856 4.203 2.896 5.042c15.217-.336 28.004 3.576 38.4 14.86 4.965 8.048 9.808 12.504 14.255 13.176l1.027.068-.865-1.903c-11.248-20.746-26.079-31.083-44.313-30.851-3.437-.407-7.249-.532-11.4-.392zm69.225 24.069c-1.41-3.092-2.92-3.978-3.857-4.146-.441-.028-1.149-.069-3.267 1.009-1.104 1.248-1.698 2.207-1.579 2.789.052.812 1.059 1.532 2.341 2.076 3.493.556 4.839.108 5.302-.114.195-.093.9-.438 1.06-1.614zm219.24 32.435c-.445-.104-1.685.609-2.494 2.139l-3.712 11.099h4.711c.795-3.33 1.503-6.876 2.106-10.664.082-1.646-.376-2.518-.611-2.574zm-239.412-6.258c-8.409-8.012-24.453-17.372-31.157-19.119l1.368 2.375c9.54 5.487 18.47 12.29 27.879 20.396 3.302 2.21 2.903-2.683 1.91-3.652zm254.861-6.371c-.745-.02-1.745.458-2.548 1.518-.828 1.396-1.616 2.822-2.37 4.263l-6.695 20.087h5.272c2.17-9.339 5.076-17.152 7.529-23.237.162-.868.133-1.56-1.188-2.631zm-509.465 14.429-1.46-1.145h-.831c-1.263 1.266-2.03 4.502-1.981 7.655.307 1.689.562 3.321.779 4.927h6.842c-.886-3.605-1.998-7.412-3.349-11.437zm-9.932 5.176c-.436-.042-1.343.512-1.556 1.697-.162 1.082-.299 2.11-.44 3.146v1.419h3.229c.075-1.082.135-2.152.223-3.243-.18-2.243-.957-2.976-1.456-3.019zm4.92-58.892-5.08 34.398c.008 1.238.718 1.365 1.103 1.397.545.051 1.355-.31 1.785-1.581 3.567-8.65 5.229-19.873 5.086-34.248-.184-1.589-.732-2.361-.961-2.381-.416-.036-1.438.832-1.933 2.415zm29.12 44.077c-.701-.933-1.208-1.117-1.208-1.117-.155.068-.612.536-1.024 1.987-.797 3.977.029 7.184.817 10.582l.174.361c.706 2.786 1.424 5.74 1.128 9.264h4.967c1.038-6.883-.571-13.877-4.854-21.077zm-11.272 15.49c-.048-1.206 2.278-2.602 2.707-1.766.614 1.354 1.399 2.502 1.972 2.281 2.06.544-.073-8.628-.073-8.628-.651-1.036-2.006-1.24-2.938-1.385-1.032-.12-2.348.164-4.229.971-1.904.432-3.141 1.404-2.661 4.614.025 3.204.383 6.375 1.064 9.499h5.083c-.643-2.022-.893-4.244-.925-5.586zm372.026-67.938c-.012 2.484-1.176 4.417-3.355 5.542-1.242.635-2.852.929-4.79.876l-32.163-1.46-.716-.009-.208.221c.43 1.426 3.667 4.559 8.07 5.796 9.164 1.687 16.839 2.586 24.195 2.762l2.201.013c3.484.116 8.849.295 11.791-1.121 1.38-.693 2.433-1.737 3.074-2.964 1.66-5.486.173-12.133-2.625-16.901h-8.75c1.967 1.971 3.235 4.634 3.276 7.245zm20.861 72.04-2.91-.835c-.323.322-.582.947-.537 1.975.006.111.02.229.033.345h8.542c-1.714-.495-3.425-.99-5.128-1.485zm-47.979-53.192-1.122.095-.418.765c.059 1.188 1.278 3.031 3.314 3.979 8.644 1.438 17.471 3.051 22.866 5.289 3.718 1.333 5.687 4.744 5.951 7.41.179 2.327-.813 4.112-2.624 5.078-1.334.66-2.927.8-4.764.458l-16.053-1.147c-.576.396-.775 1.133-.703 2.103.21 1.605 1.288 3.479 3.186 3.992l20.761 3.001c2.271.204 4.154-.053 5.585-.743 1.247-.625 2.298-1.639 3.011-2.98 1.55-3.225 2.105-7.37 1.623-12.177-1.542-6.651-5.592-10.229-12.484-10.994zm18.796 17.386c1.047-.524 1.606-1.557 1.454-2.689-.125-1.052-.981-1.985-2.091-2.247l-12.872-.543-.873 1.533 1.137 1.883 12.293 2.392zm23.422-18.17c-.078 1.436.709 3.174 1.539 3.703 23.811 8.423 48.248 15.418 72.434 20.754l1.402-.154.691-1.035c.068-.669-.517-1.333-1.343-1.822-23.188-9.793-48.277-17.29-74.612-22.289zm119.652 23.84c-.449-.064-1.619.747-2.268 2.342l-6.667 29.279h4.341c2.963-7.774 4.77-17.36 5.461-29.104-.083-1.649-.628-2.479-.867-2.517zm-115.049-36.329-.532-.052-.501.631c.027 1.507 1.367 3.685 3.015 4.588 25.848 6.554 51.313 13.461 78.604 26.014 3.348 1.518 5.333 3.907 5.454 6.866.165 2.905-1.856 5.941-4.896 7.519-2.176 1.062-4.652 1.282-7.029.695-16.694-3.738-33.535-9.139-49.84-14.396-7.089-2.272-14.529-4.7-21.281-6.763l-1.496.08-.614 1.723c.071 1.88 1.368 4.421 3.036 5.221l53.109 17.575c8.345 3.026 16.211 4.252 23.349 3.634 2.964-.814 5.714-1.766 8.052-2.996 4.882-2.396 7.578-5.466 8.125-8.885.517-3.645-1.537-7.732-5.874-11.729-27.429-16.272-56.075-23.554-90.681-29.725zm-30.289 62.966-7.318-1.201-1.032.213c-.895.447-1.491 1.458-1.383 2.381.133.951.898 1.699 2.157 2.05l7.408 1.147 1.676-.212c.884-.438.852-1.534.848-1.972-.207-.938-.945-2.066-2.356-2.406zm-89.597-3.682c-1.402-1.565-2.922-2.21-3.837-1.769l-1.143 1.478c-.302 1.253.078 2.756 1.06 4.187l2.981 4.771h6.656zm-150.4-64.646 1.849.601c1.775.246 3.914-.24 3.635-.739-.801-1.685-3.514-4.353-7.008-7.32h-7.912c2.886 2.42 6.008 4.899 9.436 7.458zm127.828 60.308c-.631 1.531-1.195 3.283-1.501 4.87-.322 1.317.195 2.571 1.401 3.383 1.41 1.009 3.313 1.09 4.905.31l.771-.411.172-.135 7.298-15.014c.461-1.123.355-2.725-.489-4.19-.731-1.274-1.751-2.017-2.271-2.153-8.01-.728-16.094-5.726-26.369-13.082-8.489-5.412-18.692-8.845-28.157-8.889l1.611 2.791c14.525 3.798 27.015 8.418 40.65 22.611 1.539 2.088 3.188 4.429 2.54 8.461zm-147.749-28.338.973.265c1.187.161 2.311-.352 2.938-1.339.591-.905.529-2.125-.188-2.945l-9.905-7.549-1.7.741-.344 2.13zm72.533-39.429h-8.434c.19.341.404.643.651.896 16.637 22.846 33.895 47.709 48.978 79.875h8.904c-2.547-7.146-5.44-14.273-9.374-21.869-10.561-19.759-24.092-39.302-40.725-58.902zm-88.31 17.768c-.416-.488-1.739-1.131-2.558-1.562l-.487-.238-1.354-.749c-4.895-3.068-8.879-6.864-13.501-11.275l-.358.703c-1.296 2.82-1.264 4.695.109 6.133l6.514 6.91c2.405 3.576 1.82 7.624.141 9.955-1.236 1.838-3.181 2.734-5.193 2.53-1.768-.269-3.442-1.41-4.98-3.467-.417-.836-.84-1.242-1.28-1.306-.11-.016-.675-.062-1.881.78-4.545 2.715-4.104 5.028-3.205 6.655 4.204 5.66 7.984 8.644 11.505 9.16 2.732.341 5.451-.915 8.287-3.765 3.277-4.331 6.132-10.185 8.224-17.407.423-1.338.403-2.392.017-3.057zm-12.365 41.032c-1.006-.144-2.145.339-2.675 1.136-.52.827-.401 1.851.371 2.826l5.146 5.001 1.478.767c.998.131 1.69-.761 1.974-1.105.455-.866.615-2.175-.287-3.228l-5.044-4.996zm301.799 8.299c-6.462-2.568-13.028-4.864-21.317-4.584-.57.353-.781.945-.713 1.783.182 1.731 1.575 3.655 3.078 4.132l11.934 3.917c2.655 1.44 4.312 4.385 4.213 7.667 0 .256-.023.506-.039.757h10.264c.221-5.861-.653-10.312-7.42-13.672zm-385.552-9.963c5.198-16.211 6.31-30.789 6.696-42.868.061-2.58-.656-4.259-1.822-4.344l-1.678.688c-.804.751-1.41 1.942-1.462 3.248-.672 14.137-2.055 29.876-7.119 39.47-3.299 4.383-6.407 7.055-9.006 7.695v8.388c5.253-1.055 11.182-5.153 14.391-12.277zm.108-54.788c.458 1.585 1.924 2.703 3.707 2.956l.888.102.222-.017 10.683-5.389h-15.298c-.368.71-.474 1.52-.202 2.348zm270.277 43.88c.796.964 7.957 1.12 12.837-1.331 1.476-.71 2.202-1.421 2.579-2.326 1.82-3.562.361-7.959-4.873-13.651-6.154-7.732-13.425-9.529-22.029-5.686-1.072.543-1.369 1.659-.972 2.352.419.784 2.042 1.353 2.511 1.238 7.853-3.483 13.176-.697 18.428 8.576 1.486 4.931-.656 5.628-2.305 6.442-1.369.699-3.059 1.048-5.086 1.044-1.609.384-1.993 1.56-2.001 1.974-.057.279.144.786.911 1.368zm271.631-2.084-1.895.545c-1.061.834-1.748 2.241-1.909 3.926l-1.038 7.354c-.571 3.717-1.11 7.43-1.627 11.146-.57 3.587-1.105 7.149-1.645 10.653-.024 1.127-.146 2.1-.313 3.003h6.517l3.8-33.097c-.085-2.024-.876-3.376-1.89-3.53zm-10.103-19.445c-.006-.004-.012-.008-.012-.008-.352-.518-.739-1.03-1.196-1.527-13.571-8.805-28.098-16.495-43.654-23.164h-25.512c16.997 6.11 34.835 13.616 53.775 23.361 2.918 1.848 4.249 3.67 4.163 5.473-.08 1.129-.766 2.06-1.87 2.579-2.227 1.064-5.784.638-9.444-1.075-26.549-13.717-55.044-23.027-81.971-30.338h-26.334c.732.818 1.543 1.508 2.393 1.922 22.238 4.398 49.626 14.898 73.794 24.185l.868.284c17.209 6.656 32.109 12.325 40.723 14.086 4.184.252 8.079-.385 11.142-1.936 3.147-1.479 5.235-3.93 5.69-6.553.324-1.937-.131-3.854-1.284-5.665-.36-.549-.785-1.094-1.271-1.624zm-495.918 50.226c-1.521.661-1.627 1.03-.736 2.919.837 1.78 1.793 2.66 3.361 2.895 1.215.117 2.634-.092 4.162-.636l7.972-6.791 1.032-1.686c-.118-.133-.184-.456-1.136-.599-4.047-.923-6.224-4.891-8.286-8.498-1.739-3.015-3.525-6.09-6.171-7.564l-1.588-.514c-.823-.122-1.573.036-1.834.48-.399.33-.271.84.029 1.693.516 1.504 1.662 3.174 2.944 5.165 2.718 4.112 6.106 9.191.251 13.136zm270.85-74.322c-3.058 1.526-6.41 1.733-10.774 1.847l-.578 1.47c.027.359.263 1.2 1.254 1.549l7.653 1.335c9.704-1.592 14.979 2.48 16.554 6.479 1.317 3.272.244 6.667-2.525 8.043-1.846.919-4.319 1.024-7.844.311.307.837 1.012 2.02 2.595 3.228 8.468 4.916 16.686 4.9 21.117 2.662 2.082-1.018 3.26-2.5 3.38-4.112.285-2.449-1.43-5.14-4.933-7.895-7.739-5.165-12.267-10.577-15.432-15.519h-9.416c-.341.211-.682.417-1.051.602zm-288.378 9.239c-1.064.829-1.751 2.24-1.916 3.919l-1.033 7.362c-.571 3.713-1.111 7.429-1.631 11.145-.564 3.585-1.101 7.147-1.643 10.654-.125 6.402-2.809 8.87-5.293 11.091l-.205.221c-1.212 1.079-2.354 2.174-3.182 3.544-1.926 4.781-1.474 6.071-1.306 6.354l.375.08c.337.052.989.05 1.979-.233 8.662-5.571 13.151-11.271 13.833-18.01l3.802-33.143c-.087-2.027-.872-3.375-1.892-3.531zm351.325-3.068c1.575-.788 2.961-2.355 2.404-2.6-6.201-3.199-40.016-2.96-40.016-2.96.585.728 1.611 1.754 2.685 2.176 9.054 2.189 19.812 3.493 33.055 3.921zm-69.71 73.89c4.653-8.242 5.692-16.056 3.288-23.312-1.717-4.089-3.97-6.686-6.927-7.869-3.354-1.279-7.788-.761-13.548 1.563l-1.54.584c-2.354 1.192-3.265 3.073-2.981 4.356.292.888 1.039 1.598 2.082 1.779l7.879-2.02c2.209-.286 4.62.043 5.868 1.104 1.704 1.335 3.499 6.081 3.249 10.164-1.65 8.421-4.029 9.928-.781 13.263.132.194.252.35.375.493h2.889zm-7.649-16.456c-2.452-3.728-4.399-2.712-5.185-2.333-.784.396-1.772 1.167-2.827 2.159-.862 1.101-1.141 2.332-.654 3.182.527.915 2.046 1.369 3.819 1.267 1.033-.31 1.972-.678 2.77-1.061 2.803-1.424 2.501-2.469 2.077-3.214zm48.708-9.84c-1.591.767-3.681.78-6.26-.01-.883-.438-1.488-.525-1.881-.333-.104.044-.577.321-.988 1.656-1.828 4.678.052 6.28 1.836 7.08 7.087 2.191 12.071 2.479 15.213.949 2.402-1.243 3.747-3.742 4.127-7.583-.247-5.265-1.832-11.509-4.925-18.421-.541-1.308-1.258-2.135-2.001-2.453-.656-.154-2.132.063-3.068.171l-.552.081-1.565.152c-5.931.256-11.608-.572-18.205-1.53l.182.757c.82 2.963 2.085 4.438 4.131 4.83l9.75 1.905c4.28 1.525 6.479 5.074 6.678 7.866.225 2.145-.735 3.935-2.472 4.883zm-55.912-35.689 2.312 2.458c18.311 20.024 30.078 32.896 20.973 59.634h11.779c1.051-3.875 1.748-8.124 2.099-12.771 3.579-22.824-25.834-52.034-43.886-68h-14.172c6.411 4.212 13.191 10.194 20.895 18.679zm-251.117-7.57c.505-4.323-1.719-4.596-2.59-4.724-.891-.119-2.193-.053-3.686.157-1.408.403-2.441 1.229-2.615 2.176-.184 1.021.725 2.221 2.201 3.118 1.035.322 2.021.547 2.914.684 3.17.421 3.627-.584 3.776-1.411zm6.259-4.89c.481 2.001-1.22 6.783-4.108 9.896-6.871 5.805-9.762 5.689-9.379 10.145-.184 2.01.661 2.136 1.106 2.204l1.366-.007c9.148-4.006 15.125-9.66 17.996-16.773 1.33-4.205 1.247-7.527-.332-10.104-.359-.559-.821-1.081-1.338-1.579h-15.079l5.821 2.095c1.951.993 3.658 2.592 3.947 4.123zm16.567 60.858c1.167.179 2.372-.123 3.576-.778 2.525-2.183 4.981-3.794 7.65-5.596 4.064-2.523 7.87-4.936 10.444-9.306.638-1.882.544-2.604.39-2.816-.172-.28-.521-.476-2.297-.741-6.768-1.4-10.727-5.917-14.863-10.711l-1.394-.731c-1.133-.174-2.29.376-3.026 1.289-.244.278-1.007 1.225-.51 2.349l6.524 9.054c.829 1.955.513 4.112-.872 5.675-1.352 1.644-3.57 2.549-5.495 2.294-1.101-.151-1.972-.585-2.712-1.329l-6.936-6.963-1.56-.592c-1.072-.163-1.987.479-2.429 1.12-.495.841-.594 1.702-.181 2.438 2.793 4.862 5.999 9.16 9.87 13.138 1.356 1.353 2.551 2.044 3.821 2.206zm-29.233-18.999.447.066c9.53-2.412 18.464-8.145 27.341-17.462 7.704-6.976 11.305-18.271 12.619-30.683h-9.481c-1.866 14.859-9.075 26.518-31.527 38.428-2.438 1.85-2.933 4.897-2.337 6.893.43 1.587 1.452 2.577 2.938 2.758zm71.063-48.078h-16.363c3.021 2.956 6.405 4.615 9.276 4.994 2.33.335 4.244-.189 5.405-1.409.909-.889 1.466-2.093 1.682-3.585zm552.244 69.528-18.776-20.962-.942-.636-.91.326c-.854.95-1.301 3.142-.431 5.158 5.642 6.572 11.297 13.389 13.796 18.519 1.73 3.084.992 6.563-.523 8.838h11.396c.959-4.03-.211-7.736-3.61-11.243zm161.958-42.034c-1.44.72-2.919 1.232-4.435 1.481l-.647.421c.189.264.549.59 1.373 1.072 5.383 1.271 11.199.786 15.151-1.158 2.615-1.343 3.984-3.084 4.048-5.094.047-3.243-3.675-7.196-10.065-10.954l-1.134-.786-.257-.249-.207-.364c-.312-.543-.818-1.858-8.85-3.455l-.459-.087c.354 1.362-.525 2.845-2.521 4.298-1.187.896-2.741 1.773-4.433 2.681-1.682.808-3.739 1.7-6.224 2.682l-.634.891c.634.83 2.508 1.717 4.652 1.181 11.254-5.215 17.166-3.743 18.95-.64 1.399 2.714-.326 6.116-4.308 8.08zm28.607 29.749c-1.846.917-4.316 1.022-7.847.309.306.842 1.015 2.016 2.6 3.229 8.464 4.913 16.688 4.899 21.112 2.663 2.086-1.022 3.265-2.503 3.382-4.117.284-2.447-1.429-5.137-4.933-7.893-9.562-6.38-14.221-13.135-17.471-18.922-.825-1.438-1.416-1.725-2.089-1.878-.7.479-1.571 1.807-1.882 2.31-1.302 1.544-2.723 2.683-4.456 3.576-3.054 1.525-6.409 1.732-10.773 1.852l-.58 1.464c.025.359.263 1.201 1.256 1.548l7.653 1.333c9.708-1.587 14.975 2.483 16.55 6.481 1.316 3.273.243 6.666-2.522 8.045zm-59.545-47.516-.13.061-.972.894c4.939 1.147 10.886.463 18.146-2.048 2.274-1.26 2.796-2.175 2.865-2.653 0-.606-.409-1.315-1.001-1.884-3.187-1.605-6.255-2.949-9.221-4.096h-11.434c.641.214 1.279.438 1.914.681 2.816 1.197 4.195 2.518 4.25 4.171.066 1.731-1.37 3.357-4.417 4.874zm-12.116-6.369c-1.71.103-3.744.748-6.247 1.981-1.77.919-3.633 2.06-4.938 2.9-.604.496-.683.839-.593 1.001.044.246.891.916 2.944.892 3.178-.448 5.702-1.183 7.639-2.187 1.435-.713 2.597-1.547 3.396-2.446.728-1.108.571-1.435.539-1.491 0 0-.391-.563-2.74-.65zm-34.291 5.582c2.624-1.611 5.355-3.182 8.2-4.578 3.719-1.867 7.342-3.313 10.878-4.361h-12.366c-2.344.969-4.596 2.018-6.764 3.103-2.469 1.219-5.113 2.667-7.691 4.2-.949.633-1.435 1.275-1.309 1.49.697 1.111 5.321 1.815 9.052.146zm135.784 64.679c-.54-1.304-1.254-2.13-2.002-2.445-.652-.156-2.131.059-3.069.167l-.543.075-1.575.158c-5.927.253-11.604-.57-18.199-1.527l.178.755c.824 2.964 2.09 4.44 4.132 4.829l9.754 1.912c2.021.715 3.563 1.896 4.665 3.228h9.404c-.733-2.29-1.638-4.673-2.745-7.152zm-126.733-3.718c-1.68-.29-3.531-.444-5.539-.47l1.543 2.686c7.368.184 13.68 2.515 19.032 8.622.011.012.017.022.022.032h3.322c-5.249-6.982-11.387-10.63-18.38-10.87zm174.932 4.398c-.884-.109-1.859.152-2.453.64-.74.495-1.131 1.252-1.271 2.369-.211 1.144-.428 2.297-.634 3.463h6.886c.188-1.016.381-2.03.579-3.021-.061-2.231-1.616-3.225-3.107-3.451zm-110.658 4.184c1.82-3.558.359-7.955-4.873-13.644-6.153-7.734-13.42-9.534-22.033-5.69-1.072.543-1.369 1.662-.971 2.352.418.782 2.043 1.354 2.513 1.24 7.855-3.488 13.179-.699 18.431 8.574 1.484 4.935-.658 5.63-2.308 6.443-1.372.699-3.056 1.049-5.09 1.042-1.601.382-1.988 1.558-2 1.971h13.827c1.416-.697 2.129-1.397 2.504-2.288zm-110.796-56.123-.659.037c-1.358 2.205-1.18 7.812.819 9.928 10.475 14.836 21.183 30.535 31.376 48.446h10.669c-10.763-18.953-24.209-37.78-40.544-56.735-.709-1.081-1.22-1.573-1.661-1.676zm-591.713 42.506c-3.451-5.621-7.183-11.08-13.971-15.435-.687-.036-1.245.317-1.747 1.025-.992 1.479-1.152 3.79-.27 4.995l6.932 9.718c1.167 2.615.545 5.878-1.699 8.439-2.009 2.477-4.947 3.815-7.603 3.446-1.37-.182-2.597-.717-3.639-1.714l-8.039-7.716-1.245-.91c-.813-.124-1.824.614-2.457 1.8-.486.901-1.096 2.836.087 4.023l8.512 8.231h21.22c4.547-4.934 7.308-9.063 3.919-15.902zm687.96 7.759c.193-.094.898-.433 1.062-1.611-1.412-3.09-2.92-3.978-3.86-4.148-.437-.029-1.148-.069-3.267 1.01-1.107 1.247-1.699 2.213-1.58 2.793.051.81 1.061 1.532 2.341 2.071 3.491.556 4.842.109 5.304-.115zm-51.032-12.609c-2.425-.397-5.134-.606-8.091-.641l1.866 3.673c10.837.247 19.78 3.434 26.743 11.785 1.331 2.426 2.672 4.393 4.009 5.938h4.507c-7.109-13.413-16.816-20.368-29.034-20.755zm184.569-40.508c-.02-.018-.035-.031-.059-.051-.688.029-1.573.555-2.247 1.638-.667 1.413 0 0-1.901 4.298-12.076 40.458-4.39 42.208-4.39 42.208 1.385 1.201 3.153 1.911 5.265 2.065 1.053.068 2.176-.014 3.332-.243v-8.382c-.479.118-.948.183-1.393.148-1.49-.127-3.965-1.1-3.943-6.617.868-11.352 3.148-20.995 5.336-28.589zm-346.228-12.727c1.864 2.016 2.589 3.709 2.393 5.182-.3 1.029-.881 1.869-1.92 2.424-1.875 1.02-5.033 1.431-9.727 1.241-11.954-.552-24.509-3.649-38.51-9.479-4.26-2.134-8.401-4.168-12.494-6.149h-19.9c16.7 7.495 27.842 9.844 41.604 17.978.513.509.964 1.035 1.349 1.577 22.39 9.013 43.236 7.922 63.702-3.397 1.943-1.091 3.994-2.347 5.973-3.632 2.87-2.544 2.725-3.599 2.714-3.614-.123-.381-1.09-.881-3.271-1.141-9.023-1.096-17.235-3.735-24.548-7.771h-17.644c3.392 2.221 6.808 4.478 10.279 6.781zm-21.723 2.64c2.252.451 4.51.233 5.855-.486.655-.345 1.036-.864 1.046-1.353-.033-1.5-2.111-3.653-5.589-5.789-1.064-.604-2.121-1.198-3.184-1.793h-17.446c6.179 2.989 12.585 6.116 19.318 9.421zm331.917 62.686c.765-.498 1.068-1.368.81-2.273-.237-.839-1.027-1.528-1.939-1.66l-10.203.493-.484 1.298 1.13 1.438 9.984 1.039zm-737.733-3.556c-3.779-5.941-7.709-12.213-11.383-17.794l-1.197-.83-1.682.944c-1.282 1.473-2.104 4.169-1.395 5.771l14.975 24.128h8.482c-2.639-4.08-5.236-8.166-7.8-12.219zm-167.41-46.623c.083-.821.012-1.475-1.152-2.369v6.21c.388-1.339.774-2.631 1.152-3.841zm729.644-21.928h-10.136c-.427.475-.841.98-1.231 1.531-1.039 1.446-1.826 2.929-2.377 4.421 0 0-5.006 13.7 11.251 19.572 6.362 2.295 11.923 1.519 18.472.909 3.411-.296 6.027-.474 8.438-.548 4.711-.027 9.536.071 14.292.38 18.41.715 32.446 5.41 53.262 28.328l2.31 2.462c7.939 8.675 14.64 16.013 18.953 23.715h10.684c-11.386-21.887-37.315-43.878-47.703-52.628-10.472-8.064-21.797-11.312-35.698-10.271l-37.206 1.338c-4.67-.946-8.073-3.315-9.606-6.653-1.606-3.54.376-5.366 3.176-9.238.83-1.138 1.869-2.24 3.119-3.318zm-32.718 10.268c1.484 2.238 1.498 4.708.075 6.516-1.281 1.628-3.466 2.292-5.833 1.798-1.49-.308-3.113-1.098-4.973-2.573-5.217-6.122-10.621-11.403-15.939-16.008h-7.384c8.553 7.324 17.32 15.989 26.46 26.2 2.209 2.241 4.132 3.432 6.011 3.863 2.072.403 4.142-.251 6.219-2.007 5.891-8.004 3.848-17.175-6.232-27.874-.074-.06-.145-.121-.217-.183h-7.754c3.481 3.319 6.696 6.729 9.567 10.268zm137.36-7.861-.737.087c1.151.72 3.987 1.891 8.562 2.401 22.041-1.387 59.188-2.146 77.481 1.687 2.547.764 4.144 2.49 4.241 4.542.085 1.85-1.122 3.505-3.212 4.448-1.31.597-3.033.931-5.369.905-20.104-3.751-49.427-3.825-62.458-2.729l-.185.939c.418 1.135 1.972 2.635 4.535 2.39 15.829-.739 45.728 1.371 66.993 4.857 3.097.377 5.3.161 6.982-.559 1.805-.843 2.936-2.436 3.361-4.807-.733-8.852-8.146-14.187-22.552-16.216-3.424-.129-7.498-.255-11.97-.354h-35.951c-11.707.325-22.576 1.044-29.721 2.409zm84.366 26.882c-16.801-4.447-36.488-6.022-61.878-5.035l-.39 1.002c.168 1.302 1.905 2.896 4.17 3.229 4.547.441 10.902.605 18.28.746 14.241.31 28.92.616 33.494 3.536 3.401 1.692 5.777 5.311 5.805 8.866-.033 2.419-1.208 4.323-3.386 5.462-1.236.645-2.841.962-4.764.952l-31.959-.763-.71.008-.212.219c.418 1.379 3.611 4.364 7.977 5.479 9.094 1.455 16.71 2.17 24.021 2.188l2.193-.029c3.453.039 8.784.105 11.723-1.337 1.377-.701 2.434-1.741 3.076-2.948 2.575-8.119-1.97-18.694-7.44-21.575zm3.363 49.088c.808-2.709.715-6.096-.282-9.939-2.067-5.258-5.718-7.853-11.233-7.967l-22.67-1.295-.873.157-.229.651c.197.951 1.391 2.351 3.121 2.97 6.985.537 14.139 1.195 18.669 2.61 3.102.806 5.085 3.417 5.637 5.548.44 1.866-.112 3.375-1.415 4.286-.966.633-2.201.858-3.692.719l-12.781.239c-.4.359-.46.969-.282 1.741.298 1.017 1.044 2.114 2.118 2.673h22.224c.747-.587 1.348-1.39 1.688-2.393zm-187.668-40.348 1.576 2.745c5.932-1.739 13.408-3.307 17.185-.43 1.212.332 3.015.031 4.829-.872 2.252-1.123 3.106-2.461 3.095-2.706l-.909-.341c-6.327-2.694-17.952-1.682-25.776 1.604zm171.832 4.655c1.575-.785 2.959-2.354 2.403-2.592-6.202-3.201-40.019-2.963-40.019-2.963.586.729 1.613 1.757 2.687 2.179 9.054 2.188 19.811 3.488 33.057 3.921zm-147.441 37.765c.18.102.359.215.539.321h4.808c-2.661-1.297-4.999-2.251-6.715-2.702zm-576.532-70.011-.852-.853-.907.687c-1.817 1.9-2.948 6.564-1.815 9.273 13.369 16.327 26.267 40.04 37.699 61.226h11.217c-13.222-26.007-29.978-49.575-45.342-70.333zm100.349 69.204-.832 1.129h3.845c-1.122-1.092-2.217-1.526-3.013-1.129zm-40.03-23.053 5.502 9.573c5.821 5.242 9.222 10.028 10.461 14.608h8.88c-.215-.471-.464-.941-.756-1.411-6.723-9.331-14.663-16.879-24.087-22.77zm299.367-10.036-1.865.584c-.925.709-1.67 1.885-1.816 3.225-1.237 10.318-2.932 21.438-6.041 30.409h5.942c3.144-10.862 4.538-20.878 5.445-29.631.241-2.64-.411-4.414-1.665-4.587zm22.483 17.828 1.369-.01c9.147-4.002 15.126-9.656 17.996-16.77 1.325-4.21 1.24-7.525-.331-10.102-1.838-2.875-5.707-4.908-11.839-6.243l-1.606-.383c-2.67-.351-4.632.649-5.252 1.825-.353.872-.227 1.85.482 2.568l7.615 2.742c1.952.994 3.66 2.593 3.95 4.125.479 2.005-1.226 6.782-4.111 9.896-6.874 5.804-9.761 5.692-9.376 10.147-.183 2.009.662 2.138 1.103 2.205zm27.508 2.219c9.565-8.665 12.787-22.757 13.163-38.616l-9.554 2.167c-.463 16.265-4.877 27.572-23.816 39.48-.564-.356-1.147-.714-1.685-1.062l1.334 1.275c-2.384 1.486-4.98 2.979-7.84 4.498-2.254 1.719-2.833 4.447-2.432 6.428h12.272c6.328-3.104 12.459-7.77 18.558-14.17zm-469.291-51.156-.956-.543-.837.382c-.736.976-.982 3.121.019 5.003 5.938 5.927 11.916 12.086 14.734 16.848 2.097 3.123 1.405 6.928-.142 9.2-1.385 1.954-3.354 2.827-5.438 2.596-1.503-.209-2.859-.981-4.101-2.267l-12.043-9.781c-.719 0-1.361.477-1.941 1.288-.893 1.396-1.266 3.486-.093 4.942l14.563 13.863c1.684 1.419 3.35 2.253 4.947 2.489 1.402.19 2.913-.031 4.367-.711 3.363-1.71 6.54-4.71 9.324-8.811 3.157-6.154 2.288-11.244-2.701-15.662zm439.015 29.189c-.184 1.021.723 2.222 2.207 3.121 1.029.32 2.02.547 2.906.679 3.173.423 3.629-.58 3.779-1.41.505-4.327-1.72-4.593-2.594-4.725-.892-.119-2.187-.048-3.681.161-1.41.403-2.447 1.226-2.617 2.174zm-417.877 19.507c-1.13-.139-1.943.298-2.623 1.022-.658 1.192-.518 2.762.532 4.169 3.562 3.71 6.861 7.533 9.954 11.439h7.132c-3.722-4.802-7.953-9.98-12.66-15.494-.816-.622-1.593-1.024-2.335-1.136zm-14.243 6.016c-.722 1.667-.915 4.463.29 6.21l3.565 4.404h7.376c-3.492-3.749-7.195-7.287-11.231-10.614zm27.243-42.58c7.475-5.219 10.987-16.54 8.599-22.049-1.43-1.854-2.953-3.695-4.556-5.527h-6.015c1.649 1.801 2.813 3.417 3.257 4.771 1.543 3.341.988 7.688-1.371 10.634-1.648 1.975-3.849 2.874-6.332 2.565-1.406-.181-2.884-.839-4.396-1.946l-20.876-16.023h-4.701c.335 1.785 1.14 3.929 2.633 5.825 6.196 6.412 11.721 11.363 17.47 15.57l1.749 1.229c2.695 2.012 6.854 5.119 10.136 5.616 1.559.214 3.083-.039 4.403-.665zm14.467 1.957-.823.18c-1.052 1.167-1.575 3.618-.964 5.285 10.745 14.578 21.204 29.187 30.633 45.772h8.424c-9.39-17.579-21.898-33.599-36.896-50.882zm12.612 51.238h7.73c-8.557-14.788-18.572-29.211-29.976-43.073l-.69.57c-1.091 1.034-1.753 2.81-1.516 3.707 7.581 13.281 15.775 26.273 24.452 38.796zm485.724-38.671 1.867.768c1.818.393 4.084.062 3.834-.479-2.405-6.382-28.916-27.57-28.916-27.57-.092.931-.076 2.368.441 3.37 5.393 7.408 12.783 15.206 22.774 23.911zm33.353-1.201-.91.673c-1.859 1.879-3.058 6.528-1.969 9.247 6.739 8.485 13.323 18.916 19.639 29.952h10.504c-8.629-13.887-17.75-26.918-26.422-39.01zm-10.467 19.813-.832.173c-1.068 1.148-1.631 3.591-1.047 5.262 3.465 4.854 6.895 9.703 10.268 14.624h7.782c-4.888-6.483-10.162-12.998-15.81-19.7zm-76.603 5.376c-1.768-.265-3.443-1.407-4.979-3.463-.419-.835-.844-1.241-1.284-1.308-.112-.018-.667-.061-1.876.781-4.545 2.718-4.105 5.029-3.208 6.654 4.206 5.662 7.984 8.646 11.503 9.161 2.732.34 5.451-.912 8.287-3.765 3.278-4.332 6.136-10.183 8.228-17.406.428-1.345.409-2.395.017-3.059-.415-.489-1.737-1.128-2.555-1.564l-.488-.236-1.357-.746c-4.891-3.068-8.873-6.866-13.5-11.277l-.356.705c-1.297 2.813-1.264 4.692.108 6.133l6.52 6.907c2.4 3.578 1.814 7.622.135 9.959-1.238 1.834-3.185 2.731-5.195 2.524zm161.528-21.438c-.661.671-.677 1.079-.677 1.164.004.161.477 1.193 3.65 2.513 1.062.314 2.434.658 3.449.206.882-.362.617-1.488.282-2.143-.855-1.805-3.246-3.017-6.704-1.74zm-136.768 16.424-1.836.628-.546 2.168 7.764 9.608.988.351c1.219.261 2.427-.179 3.173-1.148.694-.891.733-2.147.069-3.05zm147.832-9.784-.12.06.648 1.463c1.529.211 3.162-.016 4.517-.667 1.753-.921 2.936-2.34 3.158-4.001.277-1.938-.662-4.021-2.752-5.93-9.861-7.338-17.576-5.978-26.066-1.75l-1.122.541c-.971.857-1.052 1.631-.936 1.834.058.102 1.645 1.296 4.593-.097 4.721-2.386 10.333-5.212 18.731.783 2.274 1.651 2.515 3.138 2.459 4.159-.124 1.628-.608 2.401-3.11 3.605zm-47.815-4.959 2.896 5.04c15.221-.333 28.005 3.576 38.403 14.858 4.963 8.048 9.81 12.503 14.253 13.175l1.027.071-.865-1.902c-11.247-20.748-26.075-31.084-44.312-30.854-3.436-.401-7.248-.522-11.402-.388zm-106.149 23.633c-.748-.056-1.456.386-2.135 1.174-1.048 1.368-1.627 3.493-.538 5.09l4.087 4.543h9.982zm25.806-54.283c10.696 9.538 21.72 19.36 22.983 24.671 1.303 3.566.34 7.998-2.38 10.852-1.892 1.9-4.26 2.655-6.811 2.143-1.444-.297-2.918-1.086-4.391-2.35l-23.936-21.459-.552-.458-.331.038c-.741 1.367-.596 5.828 1.895 9.565 5.866 7.096 11.153 12.635 16.751 17.419l1.705 1.404c2.619 2.289 6.661 5.814 10.026 6.584 1.601.344 3.21.202 4.637-.338 8.229-4.792 12.897-16.181 10.918-22.05-8.932-13.677-21.799-26.997-40.218-41.702h-4.996c.043 1.042.43 2.197 1.244 3.159 3.156 3.319 7.905 7.596 13.456 12.522zm-36.26 13.987c-2.076-.287-4.11-1.574-6.458-4.087-.306.835-.521 2.163-.056 4.008 3.508 8.594 10.073 13.122 15.078 13.786 2.334.334 4.25-.189 5.41-1.411 1.838-1.794 2.243-4.887 1.268-9.02-2.319-7.046-2.746-13.634-2.381-18.72 0 0-2.895 3.623-5.662 4.501.771 2.137.701 4.214.121 5.923-1.109 3.336-4.2 5.448-7.32 5.02zm57.97 39.638c-1.108 1.021-1.807 2.79-1.578 3.69 1.436 2.604 2.889 5.191 4.369 7.774h7.028c-2.939-4.041-5.964-8.062-9.123-12.023zm-83.736 3.741-1.392-.735c-1.128-.172-2.296.377-3.026 1.288-.248.28-1.012 1.229-.516 2.355l3.477 4.815h9.398c-3.013-2.063-5.447-4.836-7.941-7.723z"/><path d="m1923.709 602.77-.964-.801c-.555-.085-1.306.417-1.991 1.205-.996 1.296-1.678 3.401-.815 5.137l1.53 2.726h7.996c-2.053-3.561-3.94-6.3-5.756-8.267zm-69.111-3.17-1.456-1.146-.838-.002c-1.259 1.265-2.024 4.5-1.976 7.657.303 1.685.558 3.32.777 4.927h6.84c-.885-3.61-1.996-7.413-3.347-11.436zm-9.933 5.171c-.433-.037-1.339.516-1.556 1.699-.161 1.082-.297 2.108-.436 3.145v1.422h3.223c.076-1.081.135-2.153.229-3.243-.182-2.247-.959-2.979-1.46-3.023zm4.922-58.887-5.082 34.396c.01 1.237.719 1.364 1.104 1.396.544.053 1.351-.309 1.783-1.579 3.572-8.651 5.23-19.873 5.087-34.25-.185-1.587-.73-2.358-.96-2.379-.414-.036-1.435.831-1.932 2.416zm29.122 44.073c-.705-.929-1.21-1.115-1.21-1.115-.153.068-.613.535-1.024 1.983-.796 3.979.029 7.184.817 10.587l.174.356c.708 2.788 1.429 5.744 1.129 9.268h4.964c1.041-6.888-.567-13.879-4.85-21.079zm-11.276 15.489c-.05-1.205 2.282-2.603 2.709-1.765.614 1.352 1.399 2.502 1.97 2.279 2.062.545-.073-8.626-.073-8.626-.649-1.036-2.003-1.242-2.936-1.385-1.032-.12-2.345.164-4.232.969-1.901.436-3.144 1.405-2.657 4.618.025 3.202.381 6.371 1.064 9.499h5.078c-.637-2.023-.892-4.245-.923-5.589zm121.448-67.722 1.848.599c1.774.247 3.91-.239 3.63-.738-.798-1.68-3.511-4.352-7.005-7.32h-7.91c2.886 2.419 6.005 4.896 9.437 7.459zm-19.922 31.97.971.263c1.187.161 2.309-.35 2.938-1.337.593-.905.525-2.127-.186-2.949l-9.906-7.545-1.705.737-.341 2.132zm-15.781-21.663c-.413-.486-1.736-1.127-2.557-1.562l-.487-.238-1.354-.746c-4.894-3.069-8.876-6.869-13.502-11.276l-.355.703c-1.294 2.819-1.263 4.693.11 6.135l6.516 6.906c2.406 3.576 1.816 7.624.136 9.957-1.235 1.836-3.178 2.732-5.19 2.528-1.771-.271-3.446-1.412-4.986-3.467-.414-.837-.837-1.24-1.28-1.306-.112-.016-.669-.061-1.881.782-4.543 2.713-4.099 5.029-3.203 6.653 4.204 5.66 7.988 8.644 11.505 9.162 2.734.338 5.451-.917 8.289-3.768 3.278-4.333 6.13-10.182 8.222-17.405.423-1.341.403-2.392.017-3.058zm-12.367 41.031c-1-.139-2.143.34-2.671 1.135-.522.828-.403 1.853.371 2.826l5.145 5.002 1.479.768c.999.131 1.688-.762 1.975-1.107.454-.864.612-2.173-.29-3.226l-5.042-4.994zm-83.751-1.664c5.202-16.208 6.31-30.785 6.701-42.866.06-2.581-.659-4.258-1.824-4.345l-1.677.689c-.808.749-1.416 1.941-1.467 3.247-.668 14.134-2.053 29.876-7.116 39.47-3.301 4.383-6.409 7.053-9.003 7.693v8.39c5.252-1.055 11.18-5.155 14.386-12.278zm.106-54.786c.463 1.583 1.929 2.704 3.709 2.955l.892.104.219-.018 10.683-5.39h-15.299c-.37.709-.474 1.52-.204 2.349zm35.888 72.578c-1.521.661-1.626 1.028-.73 2.917.835 1.78 1.791 2.66 3.355 2.896 1.221.115 2.634-.093 4.166-.637l7.967-6.791 1.035-1.688c-.118-.131-.184-.454-1.136-.598-4.047-.921-6.223-4.89-8.286-8.491-1.737-3.02-3.524-6.096-6.171-7.57l-1.589-.515c-.824-.121-1.571.039-1.832.481-.398.33-.271.838.027 1.694.517 1.503 1.665 3.173 2.942 5.164 2.719 4.112 6.108 9.188.252 13.138zm-17.521-65.084c-1.068.828-1.758 2.241-1.92 3.921l-1.035 7.357c-.571 3.715-1.111 7.431-1.628 11.146-.566 3.583-1.1 7.147-1.645 10.654-.126 6.402-2.809 8.871-5.293 11.092l-.208.219c-1.207 1.083-2.354 2.173-3.174 3.546-1.928 4.778-1.477 6.07-1.307 6.354l.375.082c.333.049.986.047 1.978-.236 8.66-5.57 13.149-11.269 13.831-18.009l3.804-33.145c-.089-2.024-.872-3.375-1.895-3.526zm15.641 1.266c.505-4.325-1.72-4.596-2.59-4.724-.894-.122-2.193-.047-3.687.158-1.409.402-2.44 1.226-2.614 2.175-.186 1.019.727 2.221 2.202 3.118 1.032.324 2.022.549 2.912.682 3.169.423 3.627-.582 3.777-1.409zm6.259-4.89c.483 2.005-1.222 6.784-4.11 9.897-6.871 5.804-9.76 5.69-9.381 10.143-.182 2.009.666 2.139 1.109 2.205l1.37-.008c9.146-4.006 15.122-9.659 17.991-16.771 1.328-4.208 1.248-7.527-.33-10.104-.357-.562-.823-1.082-1.337-1.582h-15.08l5.82 2.094c1.953.997 3.659 2.595 3.948 4.126zm16.565 60.859c1.166.181 2.374-.125 3.58-.778 2.525-2.183 4.981-3.793 7.647-5.595 4.064-2.522 7.869-4.937 10.441-9.307.641-1.884.548-2.603.393-2.816-.174-.28-.517-.474-2.298-.742-6.764-1.398-10.726-5.914-14.862-10.708l-1.395-.733c-1.129-.174-2.289.376-3.028 1.29-.237.279-1.007 1.225-.506 2.354l6.526 9.046c.829 1.959.513 4.117-.872 5.677-1.354 1.644-3.572 2.547-5.494 2.292-1.103-.147-1.975-.58-2.715-1.325l-6.936-6.963-1.562-.596c-1.068-.161-1.983.483-2.426 1.123-.501.84-.593 1.698-.184 2.438 2.795 4.863 6.001 9.159 9.871 13.137 1.355 1.352 2.553 2.042 3.82 2.206zm-29.231-18.999.444.066c9.532-2.41 18.472-8.146 27.347-17.462 7.7-6.975 11.299-18.271 12.614-30.683h-9.479c-1.865 14.861-9.078 26.517-31.531 38.424-2.438 1.854-2.93 4.898-2.335 6.898.429 1.585 1.456 2.575 2.94 2.757zm71.066-48.078h-16.368c3.022 2.957 6.407 4.615 9.276 4.994 2.334.334 4.249-.189 5.406-1.411.91-.888 1.469-2.091 1.686-3.583zm7.673 64.866c-3.456-5.622-7.187-11.078-13.975-15.435-.686-.033-1.242.319-1.748 1.027-.988 1.479-1.15 3.789-.269 4.995l6.931 9.718c1.171 2.613.547 5.878-1.696 8.436-2.011 2.479-4.948 3.815-7.604 3.447-1.369-.183-2.594-.716-3.642-1.713l-8.031-7.715-1.251-.911c-.814-.122-1.826.614-2.457 1.8-.486.899-1.096 2.836.085 4.025l8.515 8.231h21.221c4.542-4.937 7.306-9.068 3.921-15.905zm47.726 3.685c-3.782-5.942-7.708-12.214-11.382-17.795l-1.198-.832-1.683.949c-1.281 1.47-2.104 4.17-1.394 5.77l14.977 24.129h8.477c-2.635-4.082-5.233-8.171-7.797-12.221zm-167.409-46.624c.079-.818.01-1.474-1.149-2.371v6.215c.387-1.342.773-2.634 1.149-3.844zm122.595-6.482-.959-.547-.838.382c-.734.979-.983 3.123.016 5.005 5.94 5.928 11.922 12.086 14.74 16.85 2.091 3.119 1.401 6.926-.146 9.196-1.386 1.956-3.353 2.829-5.434 2.6-1.507-.211-2.861-.983-4.103-2.268l-12.041-9.782c-.719 0-1.363.479-1.943 1.29-.893 1.396-1.266 3.482-.091 4.945l14.563 13.862c1.682 1.415 3.347 2.25 4.945 2.487 1.399.19 2.913-.033 4.365-.715 3.362-1.711 6.538-4.71 9.326-8.806 3.155-6.151 2.289-11.247-2.699-15.663zm21.133 48.692c-1.13-.139-1.939.3-2.624 1.024-.657 1.19-.512 2.76.534 4.17 3.562 3.711 6.864 7.53 9.954 11.44h7.134c-3.723-4.806-7.953-9.983-12.664-15.495-.812-.623-1.59-1.024-2.334-1.139zm-14.243 6.023c-.72 1.666-.91 4.461.293 6.206l3.563 4.406h7.374c-3.486-3.752-7.192-7.288-11.23-10.612zm27.245-42.584c7.474-5.221 10.984-16.538 8.601-22.048-1.433-1.854-2.953-3.696-4.557-5.528h-6.016c1.649 1.801 2.812 3.419 3.256 4.771 1.546 3.344.987 7.687-1.37 10.634-1.652 1.975-3.852 2.874-6.335 2.563-1.403-.179-2.879-.835-4.392-1.944l-20.878-16.023h-4.703c.337 1.785 1.142 3.93 2.632 5.825 6.197 6.411 11.719 11.362 17.471 15.572l1.746 1.228c2.702 2.01 6.857 5.119 10.14 5.615 1.558.213 3.083-.039 4.405-.665z"/></g><path d="m-48.019 611.25h2057.471v26.286h-2057.471z" fill="#d4c19c"/></svg>