<svg id="Capa_1" data-name="Capa 1" xmlns="http://www.w3.org/2000/svg" viewBox="0 0 144.5 31.3"><defs><style>.cls-1{fill:#fff;}</style></defs><title>mexico</title><path class="cls-1" d="M10.4,31.2H1L.6,29.4l2.9-1c.2-1.7.5-5.5.6-8.8s.3-5.9,0-6.7a7.2,7.2,0,0,0-2.5-1.3l.5-1.9H12.3c.9,3,3.1,9,4.7,12.9,1.7-4.4,3.9-10,4.7-12.9h9.7l.4,1.9L29,12.8l.6,10.1c.1,3,.3,4.6.7,5.1a5.3,5.3,0,0,0,2.5,1.4l-.4,1.8H21.9l-.4-1.8,2.9-1c.1-1.8-.4-9-.5-14.3L18.2,28.8a16.2,16.2,0,0,1-4.4,0c-1.3-3-4-10.3-6-14.7l-.2,6.6c-.2,4.8-.2,6.6,0,7.2s1.9,1.1,3.2,1.5Z" transform="translate(-0.6 -0.4)"/><path class="cls-1" d="M38.6,28.4c.1-.8.2-2.9.2-5.3V17.5c0-1.7,0-4.4-.3-4.7a8.6,8.6,0,0,0-2.7-1.2l.4-1.9h8.7c3.9,0,7-.1,9.5-.3a6.5,6.5,0,0,1,1,1.5c-.2,1.5-.8,4.2-1.1,5.3a17.7,17.7,0,0,1-3.2-.2l-.8-3.7H44.4c-.1,1-.2,3.2-.2,5.6v1.6l6.5-.4.6.8c-.1.8-.3,1.7-.4,2.5l-6.7-.2v1.3c0,1.8-.1,4.4.3,4.8s2.1.5,3.2.5l3-.2,1.1-3.8a20.6,20.6,0,0,1,3.5.2c.1,2,.1,4.2,0,6.3H36.2l-.4-1.8ZM50.5.4a11.5,11.5,0,0,1,1.8,3.9l-.6,1.1L41,7.9l-.6-.3L40,6A95.6,95.6,0,0,1,50.5.4Z" transform="translate(-0.6 -0.4)"/><path class="cls-1" d="M68.4,22.8c-1.1,1.9-2.2,3.8-3,5.4l2.8,1.2-.4,1.8H58.4L58,29.4l2.3-1.1c1.5-1.7,3.8-4.8,6.2-8-2.3-3.3-4.6-6.2-5.8-7.6l-2.5-1.1.4-1.9H66c1.1,2.1,3.1,5.1,5.2,8.2l2.8-5-2.8-1.2.4-1.9H81l.4,1.9-2.2,1c-1.5,1.7-3.8,4.7-6.1,7.9,2.4,3.3,4.7,6.3,6,7.7l2.6,1.2-.4,1.8-7.4.2A88.6,88.6,0,0,0,68.4,22.8Z" transform="translate(-0.6 -0.4)"/><path class="cls-1" d="M87,28.4c.1-.8.2-2.9.2-5.3V17.5c0-1.7,0-4.3-.3-4.7a6.9,6.9,0,0,0-2.7-1.2l.4-1.9H95.1l.4,1.9-2.7.9c-.1.8-.2,2.9-.2,5.3v5.6c0,1.7,0,4.4.3,4.7a8.8,8.8,0,0,0,2.6,1.3l-.4,1.8H84.6l-.4-1.8Z" transform="translate(-0.6 -0.4)"/><path class="cls-1" d="M114.2,27.7c.2-.6.6-2.1,1.1-3.9H119c.1,1.4.1,3.5.1,4.7l-.5.9a15.4,15.4,0,0,1-8.2,2.2c-6.9,0-11.2-4.1-11.2-10.9S104.5,9.2,111,9.2a18.8,18.8,0,0,1,7.9,1.9l.5,1c-.3,1.6-.8,4-1.2,5.5a19.9,19.9,0,0,1-3.4-.1,27.9,27.9,0,0,0-1-4.3,6.3,6.3,0,0,0-3.1-.6,7.7,7.7,0,0,0-3.5.7,11.2,11.2,0,0,0-2.2,7.2c0,4.7,2.1,7.7,6.1,7.7A7.3,7.3,0,0,0,114.2,27.7Z" transform="translate(-0.6 -0.4)"/><path class="cls-1" d="M122.8,21.1c0-7,4.7-11.9,11.7-11.9s10.6,4.1,10.6,10.8-4.7,11.7-11.4,11.7S122.8,27.7,122.8,21.1Zm15.1,6.1a12.4,12.4,0,0,0,1.6-6.5c0-5.2-1.5-8.1-5.7-8.1a6.8,6.8,0,0,0-3.7,1.1c-1.1,1.6-1.6,4-1.6,7,0,4.7,1.8,7.6,5.6,7.6A5.9,5.9,0,0,0,137.9,27.2Z" transform="translate(-0.6 -0.4)"/></svg>