<svg id="Capa_1" data-name="Capa 1" xmlns="http://www.w3.org/2000/svg" viewBox="0 0 524.5 54.2"><defs><style>.cls-1{fill:#fff;}.cls-2{fill:#ead7af;}.cls-3{fill:none;stroke:#ead7af;stroke-miterlimit:10;}</style></defs><title>sre</title><path class="cls-1" d="M65.1,28.9c0-.6.1-4.3.1-5.8V17.5a35.8,35.8,0,0,0-.2-5.4c-.3-.4-1.7-.7-2.7-1l.3-1.6h4.5l6-.2c5.2,0,8.3,2.1,8.3,6.1s-2.1,4.6-4,5.6c1.3,2.5,3.7,6.8,4.4,7.9l2.4.8-.4,1.5H78.3c-.6-1.5-2.9-6.1-4.5-9.1H69.3v1a35.1,35.1,0,0,0,.2,5.4,7.8,7.8,0,0,0,2.7,1.1l-.3,1.5H62.6l-.3-1.5Zm4.2-9.2,5.5.2a4.9,4.9,0,0,0,2.4-4.3,4.3,4.3,0,0,0-1.1-3.2,6.4,6.4,0,0,0-3.7-.8,13.6,13.6,0,0,0-2.9.3c-.1.6-.2,4.2-.2,5.8Z" transform="translate(-0.4 -0.2)"/><path class="cls-1" d="M89.3,28.9c.1-.6.2-4.3.2-5.8V17.5c0-1.9,0-5.1-.3-5.4a6.4,6.4,0,0,0-2.7-1l.4-1.6H95c3.7,0,6.7,0,9.2-.2a6.7,6.7,0,0,1,.7,1.1c-.2,1.4-.6,3.8-.9,5.3l-2.4-.2-.7-3.7-3.8-.2H93.7c0,.6-.2,4.4-.2,5.9v1.9l6.9-.3.6.6-.4,2.1-7.1-.3v1.6c0,2,0,4.9.3,5.5a11,11,0,0,0,3.7.4l3.8-.2.9-3.8a11.1,11.1,0,0,1,2.6.1q.2,3,0,6H86.9l-.4-1.5Z" transform="translate(-0.4 -0.2)"/><path class="cls-1" d="M110.8,28.9c0-.6.1-4.3.1-5.8V17.5a35.8,35.8,0,0,0-.2-5.4c-.3-.4-1.7-.7-2.7-1l.3-1.6h9.3l.3,1.6-2.7.8c-.1.5-.2,4.2-.2,5.8v5.5c0,2.2,0,5.1.3,5.5s2.3.4,3.7.4l3.4-.2,1-4.1H126q.1,3,0,6.3H108.3l-.3-1.5Z" transform="translate(-0.4 -0.2)"/><path class="cls-1" d="M136.8,31.2h-8.5l-.3-1.5,2.5-.8c2.1-5.1,4.2-10.9,6.3-16.3l.9-3.1a45.3,45.3,0,0,1,5.2-.3,31.9,31.9,0,0,0,1.1,3.4l6.1,16.3,2.6.8-.3,1.5h-9.5l-.3-1.5,3.1-.8L144,24h-8.4c-.6,1.7-1,3.3-1.5,4.8l3.1.8Zm6.4-9.4c-1.1-3-2.3-6.4-3.6-9.7-1.1,3.1-2.2,6.4-3.2,9.6Z" transform="translate(-0.4 -0.2)"/><path class="cls-1" d="M168.2,28.1l.9-3.9a13.4,13.4,0,0,1,2.8.1v4.4l-.4.8a13.7,13.7,0,0,1-7.6,2.2c-6.7,0-10.9-4.2-10.9-11.1A11.1,11.1,0,0,1,164.4,9.1a14.5,14.5,0,0,1,7.2,1.8l.5.8-1,5.4a11,11,0,0,1-2.5-.2c-.3-1.8-.6-3.5-.8-4.4a8.3,8.3,0,0,0-8,.5,10.9,10.9,0,0,0-2.4,7.4c0,5.1,2.5,8.5,6.9,8.5A7.6,7.6,0,0,0,168.2,28.1Z" transform="translate(-0.4 -0.2)"/><path class="cls-1" d="M177.8,28.9c.1-.6.2-4.3.2-5.8V17.5c0-1.9,0-5.1-.3-5.4s-1.7-.7-2.7-1l.4-1.6h9.2l.4,1.6-2.8.8c-.1.5-.2,4.2-.2,5.8v5.5c0,2,0,5.1.3,5.4s1.7.8,2.7,1.1l-.4,1.5h-9.2l-.4-1.5Z" transform="translate(-0.4 -0.2)"/><path class="cls-1" d="M187.1,21c0-7.2,4.6-11.9,11.1-11.9s10.1,4.2,10.1,10.7-4.4,11.9-10.8,11.9S187.1,27.5,187.1,21Zm15,6.6a12.2,12.2,0,0,0,1.9-7.2c0-5.3-1.9-8.6-6.3-8.6a7.8,7.8,0,0,0-4.3,1.3,13.2,13.2,0,0,0-2,7.5c0,5.2,2.2,8.4,6.4,8.4A6.5,6.5,0,0,0,202.1,27.6Z" transform="translate(-0.4 -0.2)"/><path class="cls-1" d="M228,31.3l-2.8-3.7c-2.8-3.8-6.4-8.2-9.3-11.8.1,5.6.2,12.2.5,12.8s2.2.8,3.6,1.1l-.3,1.5h-8.9l-.3-1.5,2.7-.8c.1-1.1.2-3.9.2-8.4s0-7.9-.3-8.3a11.6,11.6,0,0,0-2.7-1.1l.3-1.6h6c2.1,3.6,7.4,10.1,11.8,15.6,0-6.3-.2-12.3-.5-12.8s-2.1-.8-3.3-1.1l.4-1.6h8.8l.3,1.6-2.8.8c-.2,2.4-.4,9.8-.4,19.1Z" transform="translate(-0.4 -0.2)"/><path class="cls-1" d="M239.8,28.9c.1-.6.2-4.3.2-5.8V17.5c0-1.9,0-5.1-.3-5.4a6.4,6.4,0,0,0-2.7-1l.3-1.6h8.1c3.7,0,6.7,0,9.2-.2l.8,1.1c-.3,1.4-.7,3.8-.9,5.3l-2.5-.2-.6-3.7-3.9-.2h-3.3c-.1.6-.2,4.4-.2,5.9v1.9l6.9-.3.5.6-.4,2.1-7-.3v1.6c0,2,0,4.9.3,5.5s2.3.4,3.7.4l3.8-.2.9-3.8a11.3,11.3,0,0,1,2.6.1q.1,3,0,6h-18l-.3-1.5Z" transform="translate(-0.4 -0.2)"/><path class="cls-1" d="M274.1,10.7l.5.9a43.9,43.9,0,0,1-.9,4.7h-2.5a31.5,31.5,0,0,0-.6-3.7,5.3,5.3,0,0,0-3.4-.9,5.1,5.1,0,0,0-3.2.9,3.8,3.8,0,0,0-.7,2.2c0,5.2,11.6,3.8,11.6,10.9,0,3.6-3.1,6.1-8.2,6.1a17.5,17.5,0,0,1-7.6-1.9v-.3c0-1.4,0-3.2.1-4.6a12.4,12.4,0,0,1,2.7-.1c.3,1.5.5,2.4.8,3.4a8.1,8.1,0,0,0,4.2,1,6.7,6.7,0,0,0,3.2-.6,3.7,3.7,0,0,0,.7-2.3c0-4.9-11.5-3.4-11.5-10.8,0-3.8,3.8-6.4,8.4-6.4A12.5,12.5,0,0,1,274.1,10.7Z" transform="translate(-0.4 -0.2)"/><path class="cls-1" d="M289.1,28.9c.1-.6.2-4.3.2-5.8V17.5c0-1.9,0-5.1-.3-5.4a6.4,6.4,0,0,0-2.7-1l.4-1.6h8.1c3.7,0,6.7,0,9.2-.2a6.7,6.7,0,0,1,.7,1.1c-.2,1.4-.6,3.8-.8,5.3l-2.5-.2-.7-3.7-3.8-.2h-3.4c0,.6-.1,4.4-.1,5.9v1.9l6.9-.3.5.6-.4,2.1-7-.3v1.6c0,2-.1,4.9.2,5.5a11.4,11.4,0,0,0,3.7.4l3.9-.2.8-3.8a12.2,12.2,0,0,1,2.7.1q.2,3,0,6h-18l-.4-1.5Z" transform="translate(-0.4 -0.2)"/><path class="cls-1" d="M317.5,22.3l-4,6.4,3,1-.4,1.5h-8.7l-.3-1.5a18.4,18.4,0,0,1,2.5-.9c1.7-2.1,3.9-5.1,6.4-8.6-2.4-3.4-4.7-6.5-6-8.2l-2.8-.9.3-1.6h6.2c1.3,2.2,3.5,5.6,5.7,8.9,1.5-2.3,2.8-4.5,3.9-6.3l-3-.9.3-1.6h8.7l.4,1.6-2.5.8c-1.7,2.1-3.8,5.1-6.3,8.5,2.4,3.5,4.8,6.7,6.1,8.3s2.3.7,2.8,1l-.3,1.5h-6.1C322,29,319.8,25.6,317.5,22.3Z" transform="translate(-0.4 -0.2)"/><path class="cls-1" d="M339.6,28.9c0-.6.1-3.4.1-5.8V11.6h-.6l-3.7.2-.9,4h-2.7c-.1-2-.1-4.1,0-6.2h10.4c3.7,0,6.7,0,9-.2a6.7,6.7,0,0,1,.7,1.1c0,1.6-.3,3.6-.5,5.4H349l-.8-3.9-3.6-.2h-.8V23.2a35.1,35.1,0,0,0,.2,5.4,7.8,7.8,0,0,0,2.7,1.1l-.3,1.5h-9.3l-.4-1.5Z" transform="translate(-0.4 -0.2)"/><path class="cls-1" d="M357.4,28.9c.1-.6.2-4.3.2-5.8V17.5c0-1.9,0-5.1-.3-5.4a6.4,6.4,0,0,0-2.7-1l.4-1.6h8c3.8,0,6.8,0,9.2-.2a7.6,7.6,0,0,1,.8,1.1c-.2,1.4-.7,3.8-.9,5.3l-2.5-.2-.6-3.7-3.8-.2h-3.4c-.1.6-.2,4.4-.2,5.9v1.9l6.9-.3.6.6-.4,2.1-7.1-.3v1.6c0,2,0,4.9.3,5.5s2.3.4,3.7.4l3.8-.2.9-3.8a11.3,11.3,0,0,1,2.6.1q.2,3,0,6H355l-.4-1.5Z" transform="translate(-0.4 -0.2)"/><path class="cls-1" d="M378.8,28.9c.1-.6.2-4.3.2-5.8V17.5a35.8,35.8,0,0,0-.2-5.4c-.3-.4-1.7-.7-2.8-1l.4-1.6h4.5l6-.2c5.2,0,8.3,2.1,8.3,6.1s-2.1,4.6-4,5.6c1.3,2.5,3.7,6.8,4.4,7.9l2.4.8-.4,1.5h-5.5c-.7-1.5-2.9-6.1-4.5-9.1H383v1c0,2,0,5.1.3,5.4a7.8,7.8,0,0,0,2.7,1.1l-.3,1.5h-9.3l-.4-1.5Zm4.2-9.2,5.6.2a4.9,4.9,0,0,0,2.4-4.3,4.7,4.7,0,0,0-1.1-3.2,6.4,6.4,0,0,0-3.7-.8,14.5,14.5,0,0,0-3,.3c-.1.6-.2,4.2-.2,5.8Z" transform="translate(-0.4 -0.2)"/><path class="cls-1" d="M403.1,28.9c.1-.6.2-4.3.2-5.8V17.5c0-1.9,0-5.1-.3-5.4s-1.7-.7-2.7-1l.4-1.6H410l.3,1.6-2.8.8c-.1.5-.2,4.2-.2,5.8v5.5c0,2,0,5.1.3,5.4s1.7.8,2.7,1.1l-.3,1.5h-9.3l-.4-1.5Z" transform="translate(-0.4 -0.2)"/><path class="cls-1" d="M412.5,21c0-7.2,4.5-11.9,11-11.9s10.1,4.2,10.1,10.7-4.4,11.9-10.8,11.9S412.5,27.5,412.5,21Zm14.9,6.6a12.2,12.2,0,0,0,1.9-7.2c0-5.3-1.9-8.6-6.3-8.6a7.8,7.8,0,0,0-4.3,1.3,13.2,13.2,0,0,0-2,7.5c0,5.2,2.2,8.4,6.4,8.4A6.5,6.5,0,0,0,427.4,27.6Z" transform="translate(-0.4 -0.2)"/><path class="cls-1" d="M438.6,28.9c.1-.6.2-4.3.2-5.8V17.5c0-1.9,0-5.1-.3-5.4s-1.7-.7-2.7-1l.3-1.6h4.5l6-.2c5.2,0,8.3,2.1,8.3,6.1s-2,4.6-4,5.6c1.3,2.5,3.7,6.8,4.4,7.9l2.4.8-.3,1.5h-5.5l-4.5-9.1h-4.6v1a35.1,35.1,0,0,0,.2,5.4,7.7,7.7,0,0,0,2.8,1.1l-.4,1.5h-9.3l-.3-1.5Zm4.2-9.2,5.6.2a5.1,5.1,0,0,0,2.4-4.3,4.3,4.3,0,0,0-1.2-3.2,6,6,0,0,0-3.6-.8,13.9,13.9,0,0,0-3,.3c-.1.6-.2,4.2-.2,5.8Z" transform="translate(-0.4 -0.2)"/><path class="cls-1" d="M462.9,28.9c0-.6.1-4.3.1-5.8V17.5a35.8,35.8,0,0,0-.2-5.4,6.9,6.9,0,0,0-2.7-1l.3-1.6h8.1c3.7,0,6.7,0,9.2-.2a6.7,6.7,0,0,1,.7,1.1c-.2,1.4-.6,3.8-.8,5.3l-2.5-.2-.7-3.7-3.8-.2h-3.3c-.1.6-.2,4.4-.2,5.9v1.9l6.9-.3.5.6-.4,2.1-7-.3v1.6c0,2-.1,4.9.2,5.5a11.7,11.7,0,0,0,3.8.4l3.8-.2.8-3.8a12,12,0,0,1,2.7.1q.2,3,0,6h-18l-.3-1.5Z" transform="translate(-0.4 -0.2)"/><path class="cls-1" d="M497.2,10.7l.5.9c-.2,1.4-.7,3.7-.9,4.7h-2.5a31.5,31.5,0,0,0-.6-3.7,5.5,5.5,0,0,0-3.4-.9,5.1,5.1,0,0,0-3.2.9,3.8,3.8,0,0,0-.7,2.2c0,5.2,11.6,3.8,11.6,10.9,0,3.6-3.1,6.1-8.2,6.1a17.5,17.5,0,0,1-7.6-1.9v-.3c0-1.4,0-3.2.1-4.6a12.4,12.4,0,0,1,2.7-.1c.3,1.5.5,2.4.8,3.4a8.1,8.1,0,0,0,4.2,1,7,7,0,0,0,3.2-.6,3.7,3.7,0,0,0,.7-2.3c0-4.9-11.5-3.4-11.5-10.8,0-3.8,3.7-6.4,8.4-6.4A12.5,12.5,0,0,1,497.2,10.7Z" transform="translate(-0.4 -0.2)"/><path class="cls-2" d="M63.1,44.7a1.5,1.5,0,0,1-.8-.4l.3-.8.7.4h1.5a.5.5,0,0,0,.2-.4.3.3,0,0,0-.1-.2.5.5,0,0,0-.4-.2H64l-.8-.3a1.3,1.3,0,0,1-.6-.4,1.3,1.3,0,0,1,0-1.4,1,1,0,0,1,.6-.5,2,2,0,0,1,1.1-.2h.8c.3.1.5.1.7.3l-.3.8a1.9,1.9,0,0,0-1.2-.4l-.7.2c-.1.1-.2.2-.2.3a.5.5,0,0,0,.2.4l.8.2.8.2.6.4a1.5,1.5,0,0,1,0,1.5c-.1.2-.3.3-.6.5l-1.1.2Z" transform="translate(-0.4 -0.2)"/><path class="cls-2" d="M71.2,43.9v.9H67.7V40.3h3.4v.8H68.7v1h2.1v.8H68.7v1Z" transform="translate(-0.4 -0.2)"/><path class="cls-2" d="M73.8,44.6a2,2,0,0,1-.9-.9,2.1,2.1,0,0,1-.3-1.2,2.7,2.7,0,0,1,.3-1.2,2.4,2.4,0,0,1,.9-.8,2.1,2.1,0,0,1,1.2-.3,2,2,0,0,1,1.1.2,1.6,1.6,0,0,1,.8.6l-.7.6a1.3,1.3,0,0,0-1.1-.5,1.1,1.1,0,0,0-.8.2.8.8,0,0,0-.5.5,1.4,1.4,0,0,0-.2.7,2.4,2.4,0,0,0,.2.8,1.2,1.2,0,0,0,.5.5l.8.2a1.4,1.4,0,0,0,1.1-.6l.7.6a2.7,2.7,0,0,1-.8.7l-1.1.2A2.1,2.1,0,0,1,73.8,44.6Z" transform="translate(-0.4 -0.2)"/><path class="cls-2" d="M81.3,44.8l-.9-1.3h-.9v1.3H78.4V40.3h2a1.6,1.6,0,0,1,1,.2,1.8,1.8,0,0,1,.7.5,2.1,2.1,0,0,1,0,1.8,1.8,1.8,0,0,1-.7.5l1,1.5ZM81,41.3l-.7-.2h-.8v1.6h.8l.7-.2a.9.9,0,0,0,.3-.6A.6.6,0,0,0,81,41.3Z" transform="translate(-0.4 -0.2)"/><path class="cls-2" d="M87.6,43.9v.9H84.1V40.3h3.4v.8H85.1v1h2.1v.8H85.1v1Z" transform="translate(-0.4 -0.2)"/><path class="cls-2" d="M90.3,41.1H88.8v-.8h4v.8H91.3v3.7h-1Z" transform="translate(-0.4 -0.2)"/><path class="cls-2" d="M96.7,43.8H94.6l-.4,1h-1l2-4.5h1l2,4.5H97.1Zm-.3-.8-.7-1.7L95,43Z" transform="translate(-0.4 -0.2)"/><path class="cls-2" d="M102.5,44.8l-.9-1.3h-.9v1.3H99.6V40.3h2a1.6,1.6,0,0,1,1,.2,1.8,1.8,0,0,1,.7.5,2.1,2.1,0,0,1,0,1.8,1.8,1.8,0,0,1-.7.5l1,1.5Zm-.3-3.5-.7-.2h-.8v1.6h.8l.7-.2a.9.9,0,0,0,.3-.6A.6.6,0,0,0,102.2,41.3Z" transform="translate(-0.4 -0.2)"/><path class="cls-2" d="M106.1,39h1.1l-1.2.9h-.8Zm-.8,1.3h1v4.5h-1Z" transform="translate(-0.4 -0.2)"/><path class="cls-2" d="M111.3,43.8h-2.1l-.4,1h-1.1l2-4.5h1l2.1,4.5h-1.1Zm-.4-.8-.7-1.7-.7,1.7Z" transform="translate(-0.4 -0.2)"/><path class="cls-2" d="M116.9,40.3h2a2.5,2.5,0,0,1,1.3.2,2.4,2.4,0,0,1,.9.8,2.7,2.7,0,0,1,.3,1.2,2.1,2.1,0,0,1-.3,1.2,2.4,2.4,0,0,1-.9.8,2.5,2.5,0,0,1-1.3.3h-2Zm2,3.6a1.5,1.5,0,0,0,1.1-.4,1.4,1.4,0,0,0,0-2,1.5,1.5,0,0,0-1.1-.4h-1v2.8Z" transform="translate(-0.4 -0.2)"/><path class="cls-2" d="M126.6,43.9v.9h-3.5V40.3h3.4v.8h-2.4v1h2.1v.8h-2.1v1Z" transform="translate(-0.4 -0.2)"/><path class="cls-2" d="M134,44.8l-.9-1.3h-1v1.3h-1V40.3H133a2,2,0,0,1,1.1.2,1.8,1.8,0,0,1,.7.5,2.1,2.1,0,0,1,0,1.8,1.8,1.8,0,0,1-.7.5l1,1.5Zm-.3-3.5-.7-.2h-.9v1.6h.9l.7-.2a.7.7,0,0,0,.2-.6C133.9,41.6,133.9,41.4,133.7,41.3Z" transform="translate(-0.4 -0.2)"/><path class="cls-2" d="M140.2,43.9v.9h-3.5V40.3h3.4v.8h-2.3v1h2.1v.8h-2.1v1Z" transform="translate(-0.4 -0.2)"/><path class="cls-2" d="M142,40.3h1v3.6h2.3v.9H142Z" transform="translate(-0.4 -0.2)"/><path class="cls-2" d="M150,43.8h-2.1l-.4,1h-1.1l2-4.5h1.1l2,4.5h-1.1Zm-.3-.8-.8-1.7-.7,1.7Z" transform="translate(-0.4 -0.2)"/><path class="cls-2" d="M153.6,44.6a2,2,0,0,1-.9-.9,2.1,2.1,0,0,1-.3-1.2,2.7,2.7,0,0,1,.3-1.2,2.6,2.6,0,0,1,2.1-1.1,2,2,0,0,1,1.1.2,1.6,1.6,0,0,1,.8.6l-.7.6a1.3,1.3,0,0,0-1.1-.5,1.2,1.2,0,0,0-.8.2.8.8,0,0,0-.5.5,1.4,1.4,0,0,0-.2.7,2.4,2.4,0,0,0,.2.8,1.2,1.2,0,0,0,.5.5l.8.2a1.4,1.4,0,0,0,1.1-.6l.7.6a2.7,2.7,0,0,1-.8.7l-1.1.2A2.4,2.4,0,0,1,153.6,44.6Z" transform="translate(-0.4 -0.2)"/><path class="cls-2" d="M158.2,40.3h1.1v4.5h-1.1Z" transform="translate(-0.4 -0.2)"/><path class="cls-2" d="M162.2,44.6a2,2,0,0,1-.9-.9,2.1,2.1,0,0,1-.3-1.2,2.7,2.7,0,0,1,.3-1.2,2.6,2.6,0,0,1,2.1-1.1,2.8,2.8,0,0,1,1.3.3,2.4,2.4,0,0,1,.9.8,2.7,2.7,0,0,1,.3,1.2,2.1,2.1,0,0,1-.3,1.2,2,2,0,0,1-.9.9,2.8,2.8,0,0,1-1.3.3A2.4,2.4,0,0,1,162.2,44.6Zm2-.8c.2-.1.3-.3.5-.5a2.2,2.2,0,0,0,.1-.8,1.5,1.5,0,0,0-.1-.7,1.2,1.2,0,0,0-.5-.5,1.2,1.2,0,0,0-.8-.2,1,1,0,0,0-.7.2.8.8,0,0,0-.5.5,1.4,1.4,0,0,0-.2.7,2.4,2.4,0,0,0,.2.8l.5.5.7.2Z" transform="translate(-0.4 -0.2)"/><path class="cls-2" d="M171.7,40.3v4.5h-.8L168.6,42v2.8h-1V40.3h.8l2.3,2.7V40.3Z" transform="translate(-0.4 -0.2)"/><path class="cls-2" d="M177.2,43.9v.9h-3.5V40.3h3.4v.8h-2.4v1h2.1v.8h-2.1v1Z" transform="translate(-0.4 -0.2)"/><path class="cls-2" d="M179.4,44.7l-.8-.4.3-.8.7.4h1.5a.5.5,0,0,0,.2-.4c0-.1,0-.2-.1-.2l-.3-.2h-.6l-.8-.3-.6-.4a1.4,1.4,0,0,1-.2-.7.8.8,0,0,1,.2-.7,1,1,0,0,1,.6-.5,2,2,0,0,1,1.1-.2h.8l.8.3-.4.8a1.9,1.9,0,0,0-1.2-.4l-.7.2c-.1.1-.2.2-.2.3s.1.3.3.4l.7.2.8.2a1.5,1.5,0,0,1,.6.4,1.5,1.5,0,0,1,0,1.5c-.1.2-.3.3-.6.5l-1.1.2Z" transform="translate(-0.4 -0.2)"/><path class="cls-2" d="M190.2,43.9v.9h-3.5V40.3h3.4v.8h-2.4v1h2.1v.8h-2.1v1Z" transform="translate(-0.4 -0.2)"/><path class="cls-2" d="M194.9,44.8l-1.1-1.6-1.1,1.6h-1.2l1.7-2.3-1.6-2.2h1.2l1,1.4,1-1.4H196l-1.6,2.1,1.7,2.4Z" transform="translate(-0.4 -0.2)"/><path class="cls-2" d="M198.6,41.1h-1.4v-.8h3.9v.8h-1.4v3.7h-1.1Z" transform="translate(-0.4 -0.2)"/><path class="cls-2" d="M206.1,43.9v.9h-3.5V40.3H206v.8h-2.4v1h2.1v.8h-2.1v1Z" transform="translate(-0.4 -0.2)"/><path class="cls-2" d="M210.7,44.8l-.9-1.3h-.9v1.3h-1.1V40.3h2a1.6,1.6,0,0,1,1,.2,1.8,1.8,0,0,1,.7.5,2.1,2.1,0,0,1,0,1.8,1.8,1.8,0,0,1-.7.5l1,1.5Zm-.3-3.5-.7-.2h-.8v1.6h.8l.7-.2a.9.9,0,0,0,.3-.6A.6.6,0,0,0,210.4,41.3Z" transform="translate(-0.4 -0.2)"/><path class="cls-2" d="M213.5,40.3h1v4.5h-1Z" transform="translate(-0.4 -0.2)"/><path class="cls-2" d="M217.4,44.6a2,2,0,0,1-.9-.9,2.1,2.1,0,0,1-.3-1.2,2.7,2.7,0,0,1,.3-1.2,2.4,2.4,0,0,1,.9-.8,2.8,2.8,0,0,1,1.3-.3,2.6,2.6,0,0,1,2.1,1.1,2.7,2.7,0,0,1,.3,1.2,2.1,2.1,0,0,1-.3,1.2,2,2,0,0,1-.9.9,2.4,2.4,0,0,1-1.2.3A2.8,2.8,0,0,1,217.4,44.6Zm2-.8a1.2,1.2,0,0,0,.5-.5,2.4,2.4,0,0,0,.2-.8,1.4,1.4,0,0,0-.2-.7.8.8,0,0,0-.5-.5,1,1,0,0,0-.7-.2,1.2,1.2,0,0,0-.8.2,1.2,1.2,0,0,0-.5.5,1.4,1.4,0,0,0-.2.7,2.4,2.4,0,0,0,.2.8c.2.2.3.4.5.5l.8.2Z" transform="translate(-0.4 -0.2)"/><path class="cls-2" d="M225.7,44.8l-.9-1.3h-.9v1.3h-1.1V40.3h2a1.6,1.6,0,0,1,1,.2,1.8,1.8,0,0,1,.7.5,2.1,2.1,0,0,1,0,1.8,1.8,1.8,0,0,1-.7.5l1,1.5Zm-.3-3.5-.7-.2h-.8v1.6h.8l.7-.2a.9.9,0,0,0,.3-.6A.6.6,0,0,0,225.4,41.3Z" transform="translate(-0.4 -0.2)"/><path class="cls-2" d="M231.9,43.9v.9h-3.5V40.3h3.5v.8h-2.4v1h2.1v.8h-2.1v1Z" transform="translate(-0.4 -0.2)"/><path class="cls-2" d="M234.1,44.7a2,2,0,0,1-.8-.4l.4-.8.7.4h1.5a.5.5,0,0,0,.2-.4.2.2,0,0,0-.2-.2l-.3-.2h-.5l-.9-.3a1,1,0,0,1-.5-.4.9.9,0,0,1-.3-.7,1.4,1.4,0,0,1,.2-.7,1.8,1.8,0,0,1,.7-.5,1.6,1.6,0,0,1,1-.2h.9c.3.1.5.1.7.3l-.3.8a2,2,0,0,0-1.3-.4.8.8,0,0,0-.6.2c-.2.1-.2.2-.2.3a.5.5,0,0,0,.2.4l.8.2.8.2.6.4a1.9,1.9,0,0,1,.2.8,2.5,2.5,0,0,1-.2.7l-.7.5-1,.2Z" transform="translate(-0.4 -0.2)"/><path class="cls-2" d="M46.4,25.1a11.8,11.8,0,0,0-.9-3.7l-.3-.2H45a12,12,0,0,1,.8,3.5,5.2,5.2,0,0,1-.3,2.3,5.4,5.4,0,0,0,0,1.8c0,.3-.2.4-.3.4s-.2-.1-.2-.4a12.1,12.1,0,0,1-.1-1.8h0a19.5,19.5,0,0,0-.2-2.5,5.4,5.4,0,0,0-1.2-1.8l-.7-1.4a.4.4,0,0,0-.1-.3c0-.2,0-.3-.1-.4l-.2-.8h-.2l-.3.2a.1.1,0,0,0,0,.2l.6,2.3a7.6,7.6,0,0,0,.8,1.1h0l.5.6a2.5,2.5,0,0,1,.4,1.1c.1.8.2,1.8.3,3.4l.4,2.3a7.2,7.2,0,0,1-.1,2.5,2,2,0,0,0,.1.5h0c.1,0,.2,0,.4-.3s.6-3.3.6-5.4a7.4,7.4,0,0,1,.3-1.7,7.7,7.7,0,0,0,.2-1.5" transform="translate(-0.4 -0.2)"/><path class="cls-2" d="M44.2,21.7v-.4c0-.1,0-.2-.1-.2a.8.8,0,0,0-.4-.4h-.2a3.3,3.3,0,0,0,1.1,2.1h.1v-.2l-.3-.7a.4.4,0,0,1-.1-.3" transform="translate(-0.4 -0.2)"/><path class="cls-2" d="M41.4,27.7h-.1c-.1,0-.2-.1-.2-.3a6.7,6.7,0,0,1-.6-1.9,2.9,2.9,0,0,0-.2-.9,1.6,1.6,0,0,0-.7-1.2,5.6,5.6,0,0,1-1.8-2.5.5.5,0,0,0-.4-.3h-.1a.5.5,0,0,0,0,.5,5.3,5.3,0,0,0,.8,1.5l.3.3h.1a3.8,3.8,0,0,1,1.1,1.1,2.8,2.8,0,0,1,.4,1.2.4.4,0,0,0,.1.3h0a10.2,10.2,0,0,0,1.1,3.2,2.3,2.3,0,0,1,.3,1.1l.2,1.3c.1.3.2.4.3.4h0c.1-.1.1-.2.1-.4a35.8,35.8,0,0,0-.2-3.9,9.5,9.5,0,0,0-.8-3.2c-.1-.2-.2-.2-.3-.2h-.1a.3.3,0,0,0,.1.2,9.2,9.2,0,0,1,.7,3.2v.4Z" transform="translate(-0.4 -0.2)"/><path class="cls-2" d="M38.9,20.8c0-.1-.2-.2-.3-.2h-.1a3.5,3.5,0,0,0,.9,1.6h.2v-.2a5.2,5.2,0,0,1-.7-1.5" transform="translate(-0.4 -0.2)"/><path class="cls-2" d="M43.3,27.8h-.1l-.2-.2a.4.4,0,0,1-.1-.3L42.5,25a3.4,3.4,0,0,0-.8-1.8A6.5,6.5,0,0,1,40,20.3c-.1-.3-.2-.4-.3-.4a.4.4,0,0,0-.1.3v.4a5.8,5.8,0,0,0,1.5,2.6,2.9,2.9,0,0,1,.8,1.4h0c0,.2.1.5.1.8h0c.3,1.2.6,2.5,1,3.6a3.5,3.5,0,0,1,.3,1.1c0,.8.1,1.4.1,1.8s.2.5.3.5l.2-.4a32.1,32.1,0,0,0,0-4.4c-.1-1-.2-1.7-.3-2.4a2.6,2.6,0,0,0-.5-.9l-.2-.2v.2a23.4,23.4,0,0,1,.5,3c0,.2,0,.3-.1.4Z" transform="translate(-0.4 -0.2)"/><path class="cls-2" d="M41.8,22.2a3.1,3.1,0,0,1-.5-1v-.6a.4.4,0,0,0-.1-.3l-.4-.2h-.1a3.8,3.8,0,0,0,1.1,2.2h.2c0-.1-.1-.2-.1-.3" transform="translate(-0.4 -0.2)"/><path class="cls-2" d="M39.3,27.7h0c0,.2.1.3.1.5l.2.3h.2a.1.1,0,0,0,.1-.1v-.4c-.1-2.3-.4-3.6-1-4.3h-.2V24a6.1,6.1,0,0,1,.3,1.1c.1.1,0,.2,0,.3H39q-.2,0-.3-.3a3.1,3.1,0,0,0-1.2-1.5,8.4,8.4,0,0,1-1.7-1.3,2.8,2.8,0,0,1-.5-.8h-.1c-.1,0-.2.2-.3.3s0,.2.1.2a3.4,3.4,0,0,0,1.5,1.6,3.9,3.9,0,0,1,2,2c.4.9.6,1.6.8,2.1" transform="translate(-0.4 -0.2)"/><path class="cls-2" d="M36.2,21.2h-.3a4.6,4.6,0,0,0,1.2,1.2h.2a.3.3,0,0,0-.1-.2,2.3,2.3,0,0,1-.8-1.1h-.2" transform="translate(-0.4 -0.2)"/><path class="cls-2" d="M34,23.6h.1l.7.3.6.4,1.2,1.4h0l1,1.2c0,.1.1.1.2.1h.1v-.3a13.6,13.6,0,0,0-1-2.4.9.9,0,0,0-.5-.3h0l.2.4h-.2a2.7,2.7,0,0,0-.7-.8l-.3-.2-.9-.4a.9.9,0,0,1-.6-.4,1.9,1.9,0,0,1-.7-.6h-.1c-.1,0-.1,0-.1.1s-.1.2,0,.3l.6.6.4.2" transform="translate(-0.4 -0.2)"/><path class="cls-2" d="M42.6,32.8a5.6,5.6,0,0,1-1.4-.9l-7.4-5.3h-.2c-.1.1,0,.4.2.5l7.8,5.7h.1l.3.3a.6.6,0,0,1-.2.4l-.7.2a2.2,2.2,0,0,1-1.4-.6l-6-4.8h-.2v.3l.2.3,6,4.8A2.4,2.4,0,0,0,41,34a2.5,2.5,0,0,0,1.7-.7c.1-.1,0-.3-.1-.5" transform="translate(-0.4 -0.2)"/><path class="cls-2" d="M39.7,32.4a2.4,2.4,0,0,0,.9.6h.2c.1,0,0-.1-.1-.2l-6.9-5.4h-.1c-.1.1,0,.2.2.4Z" transform="translate(-0.4 -0.2)"/><path class="cls-2" d="M38,32.7,33.5,29h-.2a.4.4,0,0,0,.1.3l4.3,3.7.6.5h.2c.1,0,.2,0,.2-.1h0Z" transform="translate(-0.4 -0.2)"/><path class="cls-2" d="M34.5,22.9h.2l-.2-.3-.4-.2h-.2a.1.1,0,0,0-.1.1h0l.7.5" transform="translate(-0.4 -0.2)"/><path class="cls-2" d="M38.8,34.4l.7-.2a.1.1,0,0,0,.1-.1c0-.1-.1-.1-.1-.2h-.6a1.7,1.7,0,0,1-1.1-.4l-2.7-2.4H35l-1.7-1.5a.1.1,0,0,0-.1-.1h-.1v.2c.1,0,.1.1.2.2l.2.2,3.9,3.6a3.5,3.5,0,0,0,.9.6h.5" transform="translate(-0.4 -0.2)"/><path class="cls-2" d="M32.7,30l3.2,3.3.8.5h0a27.2,27.2,0,0,1-3-2.9.2.2,0,0,1-.2-.2h-.1l-.6-.6h-.1" transform="translate(-0.4 -0.2)"/><path class="cls-2" d="M37.2,34.6h.3c0-.1,0-.2-.2-.2a2.7,2.7,0,0,1-1.3-.5c-1.2-1.1-2.3-2.2-3.4-3.4h-.2a.4.4,0,0,0,.1.3v.3h.1c.6.7,1.5,1.5,2.6,2.6a3.3,3.3,0,0,0,1.1.9l.8.2" transform="translate(-0.4 -0.2)"/><path class="cls-2" d="M35.5,34.2h.1c0-.1-.1-.2-.2-.3s-1.3-.9-2.1-1.7l-.4-.5h-.1l1.6,1.8a1.4,1.4,0,0,0,1.1.5Z" transform="translate(-0.4 -0.2)"/><path class="cls-2" d="M15.4,14.5h.8l.6-.5h.3l.7.2c0,.1.1.2,0,.3H16.7c-.6.2-.8.5-.8,1.2h0c0,.1,0,.4-.2.4l-.3-.2a1,1,0,0,1,0-1.6m-.7.5a.8.8,0,0,0-.1.8A1.8,1.8,0,0,0,16.3,17h.1c.2,0,.3-.1.3-.2s0-.1-.1-.2a1.2,1.2,0,0,1-.4-1.1,1.1,1.1,0,0,1,1.1-.6h.3l.7-.2a1.2,1.2,0,0,1,.9-.4h.4a.3.3,0,0,1,0,.4l-.4.2-.7.3c0,.1-.1.1,0,.1h.6a5.5,5.5,0,0,0,1.4-.9.2.2,0,0,0,0-.3,1.6,1.6,0,0,0-1.2-.5H17.7l-.9-.3h-.9a.1.1,0,0,1,.1.1c.1.1.2.1.1.2l-.3.2h-.5l-.6.8" transform="translate(-0.4 -0.2)"/><path class="cls-2" d="M16.4,13l.7.2h.2a.8.8,0,0,0,.2-.6l.4-.8H18c.2-.1.2-.2.3-.4a.9.9,0,0,0-.2-.9v.2h0a2.4,2.4,0,0,1-.9,1.4H17l-.5.4c-.2.2-.2.3-.2.4V13" transform="translate(-0.4 -0.2)"/><path class="cls-2" d="M18,12.1s-.1,0,0,.1.1.7-.3,1-.1.2,0,.2h.2a.7.7,0,0,0,.4-1c-.1-.2-.2-.2-.3-.2" transform="translate(-0.4 -0.2)"/><path class="cls-2" d="M18.8,11a.4.4,0,0,0,.1-.3c0-.1,0-.4.2-.4s.1.2.2.2h.1a1.1,1.1,0,0,0-.3-.8H19a4.2,4.2,0,0,0-.3,1.2h.1" transform="translate(-0.4 -0.2)"/><path class="cls-2" d="M18.7,11.8h0c1.3-.6,1.6-1.4,1.6-1.8A.9.9,0,0,0,20,9h0a2.4,2.4,0,0,1-.3,1.7l-1,.7v.2h-.1c0,.1.1.1.2.1" transform="translate(-0.4 -0.2)"/><path class="cls-2" d="M20.3,11.9l-1,.6-.5.3h0a4.1,4.1,0,0,0,1.8-1c.4-.3.5-.6.4-.9h-.3a17.4,17.4,0,0,1-1.8,1.1h-.1c0,.1,0,.1.1.1a8.3,8.3,0,0,0,1.3-.7h.3c.1.1-.1.2-.2.3" transform="translate(-0.4 -0.2)"/><path class="cls-2" d="M18.5,13.6h.4a9.6,9.6,0,0,1,1.8-.7c.1,0,.2-.1.2,0s.2.2,0,.4l-.8.3h.2c.8-.1,1.1-.4,1-.9a.5.5,0,0,0-.4-.2h-.7l-1.3.6-.4.2c-.1.1-.3.3,0,.2" transform="translate(-0.4 -0.2)"/><path class="cls-2" d="M20.9,10.2c.2-.2.5-.7.6-.4a1.1,1.1,0,0,1-.1.8c-.1.1,0,.2.1.2h.1a1.6,1.6,0,0,0,.2-1.2.9.9,0,0,0-.3-.6h-.2l-.2.4a.8.8,0,0,1-.2.5c-.1.1-.2.2-.2.3h.2" transform="translate(-0.4 -0.2)"/><path class="cls-2" d="M22.1,10.8a2.7,2.7,0,0,1,1.1.5h.3l.9.4h.2a1.4,1.4,0,0,0,.5-.9h-.8a6.3,6.3,0,0,0-2-.6h-.1a5.6,5.6,0,0,1,2.1.9h-.2a9.8,9.8,0,0,0-1.9-.8H22v.2" transform="translate(-0.4 -0.2)"/><path class="cls-2" d="M21.3,14.3c-.1,0-.2-.2-.3-.4h-.1v.2a2.1,2.1,0,0,0,.4.6h.2a.3.3,0,0,0,.3-.3.8.8,0,0,0-.4-.7h0a1.1,1.1,0,0,1,.2.5h-.2" transform="translate(-0.4 -0.2)"/><path class="cls-2" d="M22.3,13.8c-.1,0-.4-.4-.4-.6h-.2a2,2,0,0,0,.4.8h.3a.7.7,0,0,0,.6-.4.3.3,0,0,0,0-.5,3.4,3.4,0,0,0-1.4-.9h0c.1.2.3.3.4.4h0a1,1,0,0,1,.6.5.4.4,0,0,1,.1.3c-.1,0-.2.2-.4.2" transform="translate(-0.4 -0.2)"/><path class="cls-2" d="M21.5,11.9h0a13.2,13.2,0,0,0,2,1.2H24a.8.8,0,0,0,.1-.7,4.5,4.5,0,0,0-2.3-1.2h.1a8.9,8.9,0,0,1,1.6.9h0l.2.3a.2.2,0,0,1-.2.2h-.1l-.5-.2h-.1l-1.2-.5Z" transform="translate(-0.4 -0.2)"/><path class="cls-2" d="M37.9,10.6v.2a21.7,21.7,0,0,1,6.7,8.7c0,.1,0,.3-.1.3h-.1l-.6-.2a8,8,0,0,1-1.6-1.6,24.9,24.9,0,0,0-6.2-6.6h-.2a.6.6,0,0,0,.2.4c1.9,1.3,4,3.6,6.3,7.2a3.8,3.8,0,0,0,3.3,1.6h.6a.3.3,0,0,0-.1-.2A3,3,0,0,1,45,18.7a21.4,21.4,0,0,0-6.8-8.1h-.3" transform="translate(-0.4 -0.2)"/><path class="cls-2" d="M43.5,19l.3.2h.1c.1-.1,0-.2-.1-.4a21.6,21.6,0,0,0-6.6-7.5h-.5l.3.2A29.6,29.6,0,0,1,43.5,19" transform="translate(-0.4 -0.2)"/><path class="cls-2" d="M40.8,19a.5.5,0,0,1-.4-.3,26,26,0,0,0-4.5-4.8h-.1a.6.6,0,0,0,0,.6,23.8,23.8,0,0,1,3.1,3.2h0l1.6,1.8.7.2.4-.2c.1-.2.2-.3.1-.5a18.2,18.2,0,0,0-5.6-6.3H36c-.1.1,0,.4.2.5a31.9,31.9,0,0,1,4.7,5.3.8.8,0,0,1,.1.4h-.2" transform="translate(-0.4 -0.2)"/><path class="cls-2" d="M35.5,15h-.1a.6.6,0,0,0,.1.4,26.5,26.5,0,0,1,3.2,3.4.5.5,0,0,1,0,.5c0,.2-.2.3-.4.3a.5.5,0,0,1-.4-.2l-2.1-2a7.6,7.6,0,0,0-.9-.9h-.1a.3.3,0,0,0,0,.4l2.1,2.3A3.8,3.8,0,0,0,38,20h.5l.7-.2a1.1,1.1,0,0,0,0-.8,13.9,13.9,0,0,0-3.7-4Z" transform="translate(-0.4 -0.2)"/><path class="cls-2" d="M34.9,15.6v.2a28.3,28.3,0,0,0,3,3h.2a.1.1,0,0,0-.1-.1,15.6,15.6,0,0,0-3.1-3.2Z" transform="translate(-0.4 -0.2)"/><path class="cls-2" d="M34.6,17.3h-.3a.4.4,0,0,0,.1.3,8.6,8.6,0,0,1,1.8,2,.3.3,0,0,1,0,.4c0,.2-.2.3-.4.3l-.4-.2a8,8,0,0,1-1.8-1.5h-.2v.3a7.9,7.9,0,0,0,2,1.8h.7a.6.6,0,0,0,.6-.3c.1-.1.1-.4,0-.8a8.9,8.9,0,0,0-2.1-2.4" transform="translate(-0.4 -0.2)"/><path class="cls-2" d="M33.8,18.1l1.8,1.7h.2a8,8,0,0,0-2.1-2c0,.2,0,.3.1.4" transform="translate(-0.4 -0.2)"/><path class="cls-2" d="M33.6,21.8a1.3,1.3,0,0,0,.9-.4,1.3,1.3,0,0,0,.1-.6,7.5,7.5,0,0,0-1.5-1.6h-.2v.2A4.6,4.6,0,0,1,34,20.6a.4.4,0,0,1,0,.5.5.5,0,0,1-.5.3h-.3l-1.1-1H32a.1.1,0,0,1-.1.1v.2a3.1,3.1,0,0,0,1.4,1.2h.3" transform="translate(-0.4 -0.2)"/><path class="cls-2" d="M33.1,20.7h.4a.4.4,0,0,0-.1-.3,2.4,2.4,0,0,0-.9-.8h-.1a.2.2,0,0,0-.2.2c0,.1.1.1.2.2l.7.8" transform="translate(-0.4 -0.2)"/><path class="cls-2" d="M32.4,21.7l-.8-.9h-.2V21l.5.6c.1.1.2.2.1.3a.5.5,0,0,1-.3.5h0l-.3.3v.2a.1.1,0,0,0,.1.1h.1l.7-.6a.5.5,0,0,0,.1-.7" transform="translate(-0.4 -0.2)"/><path class="cls-2" d="M31.3,22.1h.2v-.2l-.4-.7h-.3Z" transform="translate(-0.4 -0.2)"/><path class="cls-2" d="M31.4,9.7l.4.4a9.1,9.1,0,0,1,3.1,1.6c.1.1.2.2.1.4h-.5a9.7,9.7,0,0,0-2.6-1.4h0a.4.4,0,0,0,.1.3,11.7,11.7,0,0,1,2.8,1.6h.3c.2,0,.3,0,.3-.1s0-1.1-.7-1.6a22.2,22.2,0,0,0-3.2-1.4Z" transform="translate(-0.4 -0.2)"/><path class="cls-2" d="M32.1,11.6h0c-.1,0,0,.2.1.2l.9.6c.7.4,1.4.8,1.5,1.1a.5.5,0,0,1,.1.6c-.1.2-.2.2-.4.2h-.2l-1.6-.9h0c-.1.1,0,.4.2.6l1.1.7h.1l.7.2h.2a1.3,1.3,0,0,0,.3-1.4,10.4,10.4,0,0,0-3-2" transform="translate(-0.4 -0.2)"/><path class="cls-2" d="M33.9,13.9h.4a17.3,17.3,0,0,0-2-1.2v.2a9.7,9.7,0,0,0,1.5,1.1" transform="translate(-0.4 -0.2)"/><path class="cls-2" d="M32.4,16.3l1,.7h.3c.1,0,.2,0,.2-.1a1,1,0,0,0,.5-.6.8.8,0,0,0-.3-.9l-1.3-1h-.1c-.1,0-.1.1,0,.2l1,.9a.5.5,0,0,1,.1.6l-.3.2h-.2l-.8-.5h-.1v.3" transform="translate(-0.4 -0.2)"/><path class="cls-2" d="M33.2,16h.2c0-.1,0-.2-.1-.2l-.6-.4h-.1l.6.5Z" transform="translate(-0.4 -0.2)"/><path class="cls-2" d="M31.3,18a.2.2,0,0,0,0,.3l1,.7h.1c.2,0,.3,0,.4-.2l.2-.2c.2-.4.4-.7.1-1.1a2.4,2.4,0,0,0-.9-.8.1.1,0,0,0-.1.1c-.1.1,0,.2,0,.3l.5.5a.4.4,0,0,1,0,.5c-.1.2-.2.3-.4.3H32l-.5-.3h-.1a.1.1,0,0,0-.1.1" transform="translate(-0.4 -0.2)"/><path class="cls-2" d="M31.6,17.5a.1.1,0,0,0,.1.1l.3.3h.2v-.2l-.4-.2h-.2" transform="translate(-0.4 -0.2)"/><path class="cls-2" d="M29.9,19.3h-.1a.2.2,0,0,0,0,.3l.7.8h.3c.3,0,.6-.3.8-.6a.8.8,0,0,0,.1-.8l-.7-.9h-.2c0,.1-.1.2,0,.3l.3.4a.6.6,0,0,1,0,.6c-.1.2-.2.3-.4.3l-.3-.2-.4-.4Z" transform="translate(-0.4 -0.2)"/><path class="cls-2" d="M30.7,19.6a.1.1,0,0,0,.1-.1c.1-.1.1-.1,0-.2l-.4-.3h-.1v.2l.4.4Z" transform="translate(-0.4 -0.2)"/><path class="cls-2" d="M32,29.2c0,.1.1.3.2.3l.3-.2c.8-1,.5-4.3-.5-5.9h-.2v.3a7.7,7.7,0,0,1,.9,4.3c-.1.1-.1.3-.3.3s-.2,0-.3-.4A7.6,7.6,0,0,0,31,24.6a.9.9,0,0,0,0,.7,9.9,9.9,0,0,1,1,3.9" transform="translate(-0.4 -0.2)"/><path class="cls-2" d="M31.4,23.8h-.1c0,.1-.1.3,0,.4a5.8,5.8,0,0,1,.9,2.7h.1a7.1,7.1,0,0,0-.9-3.1Z" transform="translate(-0.4 -0.2)"/><path class="cls-2" d="M26.5,8.9l.4.2.7.3a4,4,0,0,1,1.9,2.9v.2c.4,1.7.6,2.8-1.1,4.2a.6.6,0,0,0-.1.4h.3a2.7,2.7,0,0,0,1.3-1.3c1-1.3-.1-4.4-.5-5.4A2.5,2.5,0,0,0,27.9,9L26,8.2a.9.9,0,0,1-.3-.6c.1-.3.2-.3.5-.5h1.5a16.1,16.1,0,0,1,8.6,2.9h0a.4.4,0,0,1,.1.3c-.1.2-.3.2-.7.3s-.4-.1-.5-.3L35,9.8a.1.1,0,0,1-.1-.1c-.1,0-.1.1-.1.2v.5h.1l1.2.2a2.8,2.8,0,0,0,1.9-.7c.1-.1.2-.2.1-.3h-.5a3.4,3.4,0,0,1-1.7-.5,16.9,16.9,0,0,0-9.2-2.4h-.8c-.3.2-.5.4-.5.7a.8.8,0,0,0,.2.8,3.3,3.3,0,0,0,1,.6" transform="translate(-0.4 -0.2)"/><path class="cls-2" d="M12.2,15.3a.9.9,0,0,0,.6.7h1.3c.1,0,.2-.2.2-.3l-.2-.2h-1c-.3,0-.5-.5-.7-1a2.8,2.8,0,0,1,.8-2.6h-.1v-.2l.2-.2h-.1a6,6,0,0,0-1.5,1.4,1,1,0,0,0-.1.8Z" transform="translate(-0.4 -0.2)"/><path class="cls-2" d="M14.7,14.3H14a.8.8,0,0,1-.7-.3h-.2v.2c.3.2.5.4.8.3l.8-.3h0" transform="translate(-0.4 -0.2)"/><path class="cls-2" d="M13,13.2a.6.6,0,0,0-.1.4h.5a3.8,3.8,0,0,0,1.8-.9h0a3.5,3.5,0,0,1-1.6.6.2.2,0,0,1-.2-.2c-.1-.1,0-.2.1-.4l.6-.7c.1,0,.1-.1,0-.2v-.2h0a.5.5,0,0,1,.2-.4c0-.1.1-.2.3-.2a.2.2,0,0,0,0-.3c0-.1-.1-.2-.3-.2s-.5.3-.4.6a1,1,0,0,1-.2.9,2.4,2.4,0,0,0-.7,1.2" transform="translate(-0.4 -0.2)"/><path class="cls-2" d="M14.4,11.5v.2a.8.8,0,0,1,.2.7h0l.3-.4a.8.8,0,0,0-.2-.5c0-.1-.1-.2-.2-.1h-.1" transform="translate(-0.4 -0.2)"/><path class="cls-2" d="M23.9,41.9a2.9,2.9,0,0,1,1,1.8c.4.9.7,1.8,1.4,2h.2c-.4-.2-.6-.9-.9-1.7s-.7-2.1-1.4-2.3h-.4v.2" transform="translate(-0.4 -0.2)"/><path class="cls-2" d="M25.2,41.7h-.1a3.8,3.8,0,0,1,1.1,1.9c.4,1,.8,2.1,1.5,2h.2c-.5-.2-.7-.9-1-1.7s-.8-2.2-1.7-2.3" transform="translate(-0.4 -0.2)"/><path class="cls-2" d="M27.6,43.9h0c.3.8.7,1.8,1.5,1.9h.1a2.7,2.7,0,0,1-1-1.6c-.2-.6-.4-1.1-1-1.3h-.1c.2.1.3.5.5,1" transform="translate(-0.4 -0.2)"/><path class="cls-2" d="M25.3,41.1h.2a.4.4,0,0,0,.3-.2.2.2,0,0,0-.2-.2H23.5a.2.2,0,0,0,0,.3c.2.3.6.4,1.3.4h.5" transform="translate(-0.4 -0.2)"/><path class="cls-2" d="M32.1,41.1a.9.9,0,0,0-.8-.6,1,1,0,0,0-1,.9v.2h.2a.2.2,0,0,0,.2-.2c.1-.4.3-.5.5-.5l.4.3a.6.6,0,0,1-.2.5c-.3.1-.3.4-.2.7a1.3,1.3,0,0,1,0,1.6.6.6,0,0,0,.3.8h.1c0,.1.1.3,0,.4a.5.5,0,0,1-.4.2c-.2,0-.3-.1-.4-.3a.3.3,0,0,0-.3-.3h-.2v.2c.3.6.6.8,1,.8h.6a.9.9,0,0,0,.3-.6c0-.2,0-.4-.2-.5s-.2-.4-.1-.8a1.7,1.7,0,0,0,0-1.4.8.8,0,0,1,.1-.8c.2-.1.2-.4.1-.7" transform="translate(-0.4 -0.2)"/><path class="cls-2" d="M23.3,44.9l-.3-.2h-.1l-.2.4-.3.2h-.3c-.1-.1-.1-.2-.1-.4a.5.5,0,0,1,.3-.4.4.4,0,0,0,0-.5,2,2,0,0,1-.1-1.3V42c.1-.3,0-.4-.2-.6a.4.4,0,0,1-.2-.4c.1-.2.2-.3.4-.3h.1c.2.1.2.2.3.3h0l.3.2h.2v-.3a1,1,0,0,0-1-.7.8.8,0,0,0-.6.2c-.2.1-.2.3-.2.6a.6.6,0,0,0,.2.5h0a.8.8,0,0,1,0,.9c-.2.5-.2.9,0,1.1a1.7,1.7,0,0,1,0,1h-.1a1.1,1.1,0,0,0-.1.6.9.9,0,0,0,.9.6.7.7,0,0,0,.6-.2,1.6,1.6,0,0,0,.4-.7" transform="translate(-0.4 -0.2)"/><path class="cls-2" d="M30.2,46h-.3a1.1,1.1,0,0,1-.6.2H23.9l-.5-.2h-.5c-.1.1,0,.2,0,.3s3.3.5,4.4.4h2a1.7,1.7,0,0,0,1-.3c.1,0,.2-.1.1-.2a.2.2,0,0,0-.2-.2" transform="translate(-0.4 -0.2)"/><path class="cls-2" d="M23.9,9.6c1.7.4,2.8.9,3.2,2.3s.1,1,.3,1.1h.1a2.9,2.9,0,0,0-1.4-2.8,5.5,5.5,0,0,0-2-.8c-.4,0-.6-.3-.6-.8a.8.8,0,0,1,.8-.8h.1c.2,0,.2-.1.2-.1h-.3c-.5,0-1.1.1-1.1,1s.1,1,.7,1.1" transform="translate(-0.4 -0.2)"/><path class="cls-2" d="M24.1,8.2h0c.3,0,.4.1.4.2s-.1.2-.4.3H24a.1.1,0,0,1,.1.1h.4l.5-.2V8.3l-.6-.2h-.3" transform="translate(-0.4 -0.2)"/><path class="cls-2" d="M26.4,9.8h.5c-.3-.4-1.4-.8-1.8-.5s1.1,0,1.3.5" transform="translate(-0.4 -0.2)"/><path class="cls-2" d="M26.7,12.5a2.8,2.8,0,0,0-1.2-1.2c-.1-.1-.1,0-.1,0a4,4,0,0,1,1.5,2.4c.1.2.1.3-.1.5h0l-.3.2v.2l.3.2h0l.8-.6a.4.4,0,0,0,.1-.3h0a3.9,3.9,0,0,1-1-1.4" transform="translate(-0.4 -0.2)"/><path class="cls-2" d="M24.4,13.1h0a14,14,0,0,1,.2,2.3v.2h.3a2.4,2.4,0,0,0,.9-.3.9.9,0,0,0,.3-.6,4.9,4.9,0,0,0-1-2.6H25c.7,1.3.9,2.1.6,2.6l-.5.2c-.1,0-.2,0-.3-.3a4.6,4.6,0,0,0-.3-1.7Z" transform="translate(-0.4 -0.2)"/><path class="cls-2" d="M25.4,14.4v-.2a8.8,8.8,0,0,0-.6-1.8h0c.2.6.3,1.2.5,2s.1.2.2-.1" transform="translate(-0.4 -0.2)"/><path class="cls-2" d="M26.4,13.9c.1.2.2-.1.2-.1s-1-2-1.2-1.9a9.3,9.3,0,0,1,1,2" transform="translate(-0.4 -0.2)"/><path class="cls-2" d="M22.9,15.5v-1h-.2c-.1.3-.5,1.3-.3,1.7H23a1,1,0,0,0,.8-.3,2.8,2.8,0,0,0,.3-2.1v-.2c0-.2-.1-.2-.1-.2h-.1v.2a3.7,3.7,0,0,1-.2,1.8.5.5,0,0,1-.5.3c-.1,0-.2-.1-.2-.3" transform="translate(-0.4 -0.2)"/><path class="cls-2" d="M23.4,15.1a4.1,4.1,0,0,0,.1-1.1h-.2a3.4,3.4,0,0,1-.1,1h.2" transform="translate(-0.4 -0.2)"/><path class="cls-2" d="M23,12.2a.1.1,0,0,0,.1.1h0V12l-1.2-.5h0l1.2.5" transform="translate(-0.4 -0.2)"/><path class="cls-2" d="M20.7,16.3h.6a.8.8,0,0,0,.8-.5l.2-1.1v-.2h-.1l-.3.3a1.9,1.9,0,0,1-.3,1l-.2.2h-.2v-.2l.3-.5v-.2h-.2l-.5.7a.8.8,0,0,0-.1.4" transform="translate(-0.4 -0.2)"/><path class="cls-2" d="M17.8,15.2h-.4c-.1,0,0,.1,0,.1a2.3,2.3,0,0,1,.9,3v.2h.2c.7-1.2.5-2.2-.7-3.2" transform="translate(-0.4 -0.2)"/><path class="cls-2" d="M7.8,20.2c0,.1,0,.2.1.2h.3v-.2c-.3-.4-.1-.6.1-.8h0l.2-.2c0-.1.1-.1.1-.2l-.2-.2H8.2l-.4.3H7.5s-.1.1,0,.3a1.6,1.6,0,0,1,.3.6" transform="translate(-0.4 -0.2)"/><path class="cls-2" d="M8.6,20.6l.3.2H9c0-.1.1-.2,0-.3s0-.7.3-1h.1v-.2H9.1c-.6.3-.7.7-.5,1.5" transform="translate(-0.4 -0.2)"/><path class="cls-2" d="M9.3,20.1l.2.8c0,.1.1.1.2.1h.1a.4.4,0,0,0,.1-.3.8.8,0,0,1,0-.8l.3-.2c0-.1.1-.2,0-.3H9.9l-.3.3a.5.5,0,0,0-.3.5" transform="translate(-0.4 -0.2)"/><path class="cls-2" d="M16.8,15.6h-.3c-.1.1,0,.3.1.5a1.9,1.9,0,0,1,.9,1.1,1.5,1.5,0,0,1-.3,1.2l-2.3,2q-2.1,2.1-.6,3.9h0c-.8-1.7.3-2.6,1.7-3.8h0a17,17,0,0,0,1.9-1.9c.5-1.1.2-2-1.1-3" transform="translate(-0.4 -0.2)"/><path class="cls-2" d="M17.7,24H16c-.6,0-1.1-.2-1.3-1.3s0-.2-.1-.2a.3.3,0,0,0-.1.2c0,1.5,1,1.5,2.3,1.5h1.3a1.9,1.9,0,0,1,1.4,1.3c.2.5-.1,1.1-.7,1.6a.4.4,0,0,0-.1.3l.3.2h.2a2,2,0,0,0,.8-2.1A2.3,2.3,0,0,0,18.1,24h-.4" transform="translate(-0.4 -0.2)"/><path class="cls-2" d="M15.2,18.6a4.4,4.4,0,0,0-2.5,4.7,2.9,2.9,0,0,0,2.7,2.5h2.5c.2.1.3.1.4.3a.5.5,0,0,1-.1.5.3.3,0,0,0-.1.2h.3a.9.9,0,0,0,.3-.9.8.8,0,0,0-.8-.5H16.8a4.5,4.5,0,0,1-2-.2,2.7,2.7,0,0,1-1.6-2.5,4.3,4.3,0,0,1,2.3-3.7,5.1,5.1,0,0,0,1.7-1.4v-.3H17a4.7,4.7,0,0,1-1.8,1.4" transform="translate(-0.4 -0.2)"/><path class="cls-2" d="M11,23.5a1,1,0,0,0,.2,1.2l1.4,1a2,2,0,0,1,.7,1.5h0a.6.6,0,0,1,.1.4,1.1,1.1,0,0,0,1,.9h.3c0-.1-.1-.1-.1-.2s-.8-.4-.8-.7a4.2,4.2,0,0,0-.8-2l-1.3-.9c-.2-.1-.3-.2-.3-.4s0-1,.5-2a2,2,0,0,0-1.2-2.4h-.2c-.1.1,0,.1,0,.2s1.5,1.4.5,3.5" transform="translate(-0.4 -0.2)"/><path class="cls-2" d="M11.4,26.2a1.8,1.8,0,0,1,.9,1.6q.1,2.4,2.4,2.4h0l.6-.2a.1.1,0,0,0,.1-.1l-.2-.3H13.9a1.6,1.6,0,0,1-1.2-1.6,1.9,1.9,0,0,0-.8-1.8,3.6,3.6,0,0,1-1.4-1.3,1.8,1.8,0,0,1,0-1.9.8.8,0,0,0,.2-.4,2.4,2.4,0,0,0,.2-.8c0-.8-.2-1.2-.7-1.4H10a.4.4,0,0,0,.2.3c.5.4.5,1.2-.1,2.4a1.9,1.9,0,0,0-.1,1.8,6,6,0,0,0,1.4,1.3" transform="translate(-0.4 -0.2)"/><path class="cls-2" d="M16.1,30h-.3l.3.2" transform="translate(-0.4 -0.2)"/><path class="cls-2" d="M17,29.8h0l-.6-.2h-.1a.6.6,0,0,0,.6.1H17Z" transform="translate(-0.4 -0.2)"/><path class="cls-2" d="M17.1,29.2H17a.5.5,0,0,0,.5.3h.3a.9.9,0,0,0-.7-.3" transform="translate(-0.4 -0.2)"/><path class="cls-2" d="M17.4,27.8l.3-.2.3-.2h0a.7.7,0,0,1-.2-.7c.1-.1.1-.2,0-.2h-.3a.9.9,0,0,0-.4,1,.3.3,0,0,0,.3.3Z" transform="translate(-0.4 -0.2)"/><path class="cls-2" d="M15.6,29.4h.1a1,1,0,0,1-.3-.8,1.1,1.1,0,0,0-.3-.9H15v.3a.7.7,0,0,1,.1.6c0,.4.2.7.5.7" transform="translate(-0.4 -0.2)"/><path class="cls-2" d="M16.2,29.2h.3a.1.1,0,0,1-.1-.1c-.3-.2-.5-.4-.4-.8a.6.6,0,0,0-.1-.7.5.5,0,0,1-.1-.6h-.2l-.2.3a1.1,1.1,0,0,0,.2.7.4.4,0,0,1,.1.5,1.9,1.9,0,0,0,.2.7h.3" transform="translate(-0.4 -0.2)"/><path class="cls-2" d="M17.1,26.5h-.2a1.1,1.1,0,0,0-.7.3.8.8,0,0,0,0,.7.5.5,0,0,1,.1.6.5.5,0,0,0,0,.5c.1.3.3.4.6.5H17a.3.3,0,0,1,0-.5.1.1,0,0,1,.1-.1c0-.1-.1-.1-.1-.2s-.4-1,.1-1.5" transform="translate(-0.4 -0.2)"/><path class="cls-2" d="M19.5,29.2l.7-.4.7-.5a1.6,1.6,0,0,0-.3-1.6h-.2a.1.1,0,0,0-.1.1.4.4,0,0,0-.1.3l.3.4c.1.3,0,.5-.3.7a3.5,3.5,0,0,0-1.1.8l-.3.2h-.2l-.5-.4c0-.1-.1-.2,0-.3h.3l.3.2h.1a.5.5,0,0,0-.3-.6h-.3a1,1,0,0,0-.8.5c-.2.4.2.7.7,1l.4.3H19a1.2,1.2,0,0,0,.5-.5" transform="translate(-0.4 -0.2)"/><path class="cls-2" d="M20.8,29.8h.1a2.1,2.1,0,0,1,1.1.4h.1A.1.1,0,0,0,22,30a2.7,2.7,0,0,0-1.6-.5H20c-.2.1-.3.2-.3.4s.1.1.1.2l1,.2.7.3h.2a1.9,1.9,0,0,0-.9-.4c-.2-.1-.2-.2-.2-.2h.2" transform="translate(-0.4 -0.2)"/><path class="cls-2" d="M21.4,28.4l-.4.3v.4c.2.4.9.6,1.3.7h.2l-1-.6v-.4h.9l-.4-.2a.7.7,0,0,0-.6.2" transform="translate(-0.4 -0.2)"/><path class="cls-2" d="M22,28.8h-.1V29l1,.4H23c0-.1,0-.2-.1-.2a1.9,1.9,0,0,0-.9-.4" transform="translate(-0.4 -0.2)"/><path class="cls-2" d="M22.2,31.4h.5a2.9,2.9,0,0,1,1.4-.3c.1,0,.1-.1.2-.2h-.4l-1.3.2h-.1a.1.1,0,0,1-.2,0,.4.4,0,0,1,.1-.3,3.4,3.4,0,0,1,1.4-.9l.2-.2h-.2a3.5,3.5,0,0,0-1.9,1.2.4.4,0,0,0,0,.5c0,.2.1.2.3.2" transform="translate(-0.4 -0.2)"/><path class="cls-2" d="M23.2,30.4a.1.1,0,0,0-.1.1h.3c.3,0,.6-.1.6-.2h-.2l-.6.2" transform="translate(-0.4 -0.2)"/><path class="cls-2" d="M21.7,27.4a.3.3,0,0,1-.1-.2l.3-.2h0a.8.8,0,0,0-.7-.4h-.1c-.1.5.3.9.9,1.2h.2Z" transform="translate(-0.4 -0.2)"/><path class="cls-2" d="M20.9,24.8h0a1.8,1.8,0,0,0,.4,1.4l.5.3c.1,0,.1,0,.1-.1s.1-.1,0-.3-.1-.2-.2-.3h-.2c-.1,0-.3-.2-.3-.5s-.1-.5-.3-.6" transform="translate(-0.4 -0.2)"/><path class="cls-2" d="M22.5,26.7l-.2-.2h-.1a4.1,4.1,0,0,0,1.3,2.6h.2a.3.3,0,0,0,.3-.3,2.2,2.2,0,0,0-.1-.9h-.2c-.1,0-.1,0-.1.1v.5h-.3a2.6,2.6,0,0,1-.7-1.6c.1-.1,0-.2-.1-.3" transform="translate(-0.4 -0.2)"/><path class="cls-2" d="M25.1,31.4h.3c.1,0,.2,0,.2-.1a1.4,1.4,0,0,0,.1-1.1h0c-.1-.2-.1-.3-.2-.3h0a.1.1,0,0,1-.1.1v.6c0,.2,0,.3-.1.3h-.2a3.5,3.5,0,0,1-.5-2c0-.3-.1-.4-.2-.4s-.1.1-.1.2a3.9,3.9,0,0,0,.7,2.7Z" transform="translate(-0.4 -0.2)"/><path class="cls-2" d="M25.1,30.3h0c.1-.1.1-.1.1-.3v-.5a.1.1,0,0,0-.1-.1c-.1,0-.1,0-.1.1a.8.8,0,0,0,.1.7.1.1,0,0,0,.1.1" transform="translate(-0.4 -0.2)"/><path class="cls-2" d="M23.3,28h.1a.8.8,0,0,0-.2-.4.1.1,0,0,0-.1-.1h0a.3.3,0,0,0,0,.4h.2" transform="translate(-0.4 -0.2)"/><path class="cls-2" d="M27.2,10.2h-.1a.1.1,0,0,0-.1.1h.2a.8.8,0,0,1,.9.5v.3h-.1l.3-.2c.1,0,.1-.2,0-.3a1.1,1.1,0,0,0-1.2-.8" transform="translate(-0.4 -0.2)"/><path class="cls-2" d="M27.7,11h.1c0-.1-.1-.2-.3-.2h0a.3.3,0,0,0,.1.2h.1" transform="translate(-0.4 -0.2)"/><path class="cls-2" d="M28,11.9h0c.5.1.7.3.7,1s-.2.3-.3.3h-.5c0,.1.4.3.7.3h.2c.2-.1.3-.4.2-.8a.9.9,0,0,0-1-.9" transform="translate(-0.4 -0.2)"/><path class="cls-2" d="M28.2,12.9h.1c.1-.2,0-.3,0-.3h-.4c0,.1,0,.2.1.2h.2" transform="translate(-0.4 -0.2)"/><path class="cls-2" d="M28.3,16.1h.1a1.9,1.9,0,0,0,.9-1.1c0-.3,0-.5-.2-.6s-.3-.3-.7-.3h-.1l-.3.2a.1.1,0,0,0,.1.1h.5l.2.2c.1.1,0,.4-.1.6s-.5.5-.4.7v.2" transform="translate(-0.4 -0.2)"/><path class="cls-2" d="M28.1,15.1h.4c0-.3-.1-.3-.2-.3h-.2v.4" transform="translate(-0.4 -0.2)"/><path class="cls-2" d="M29.4,9.3h0a1.2,1.2,0,0,0,.9.3h.2V9.4a3.7,3.7,0,0,0-3.3-1.7h-.6c0,.1.2.2.4.2h.6a2.3,2.3,0,0,1,2,.8.4.4,0,0,1,.1.3c0,.1-.2.2-.4.2" transform="translate(-0.4 -0.2)"/><path class="cls-2" d="M28.6,8.5h-.3c-.1,0,0,.1.1.1h.2" transform="translate(-0.4 -0.2)"/><path class="cls-2" d="M31.5,8.9l-.3-.2A2.3,2.3,0,0,0,30.1,8H30a3.6,3.6,0,0,0,2.1,1.4h.3a.9.9,0,0,0-.7-.9c.1.2.1.3,0,.4h-.2" transform="translate(-0.4 -0.2)"/><path class="cls-2" d="M33,40.2h.2c-.1,0-.1-.1-.2-.2a.9.9,0,0,1,.3-.6c1.2-.6,1.5-1.1,1.4-2.1h-.3c-.1,0-.3,0-.3.2a1.5,1.5,0,0,1-.7,1.2,6.1,6.1,0,0,1-3.2,1,1,1,0,0,0-1.1.7l-.4,1c-.1.3-.2.4-.5.4H26.9v-.2a9.5,9.5,0,0,1,.3-2.5,1.1,1.1,0,0,0-.1-.8H27a.3.3,0,0,1-.1.2,7.1,7.1,0,0,0-.6,3.4.5.5,0,0,0,.4.6l2.1.2c.3-.1.4-.2.4-.4s.5-1.6,1.1-1.7l1.6-.2H32c.3,0,.4,0,.4.1a.8.8,0,0,0,.6.2" transform="translate(-0.4 -0.2)"/><path class="cls-2" d="M31.9,36.6h-.1c-.3.1-.4.3-.4.4a.3.3,0,0,0,.3.3h.1l.7-.4-.6-.2" transform="translate(-0.4 -0.2)"/><path class="cls-2" d="M31.4,38.6h.1c.2-.1.5-.2.6-.4h-.9l-.2.2c0,.1,0,.2.1.2h.3" transform="translate(-0.4 -0.2)"/><path class="cls-2" d="M30.6,37.1a1,1,0,0,1,.5-.7h-.8a.4.4,0,0,0-.2.5c0,.1.1.2.3.2h.2" transform="translate(-0.4 -0.2)"/><path class="cls-2" d="M28,40.4a.2.2,0,0,0,.2-.2,2.4,2.4,0,0,1,.3-.7.9.9,0,0,0-.7.3.8.8,0,0,0-.1.4l.3.2" transform="translate(-0.4 -0.2)"/><path class="cls-2" d="M36.9,39.6l1-.3a1.8,1.8,0,0,0-.9-.4c-.9,0-.6.9-.1.7" transform="translate(-0.4 -0.2)"/><path class="cls-2" d="M38,38.3a4.5,4.5,0,0,1,.2-.8.9.9,0,0,0-.6.3.9.9,0,0,0-.1.5l.3.2a.2.2,0,0,0,.2-.2" transform="translate(-0.4 -0.2)"/><path class="cls-2" d="M39.6,37.9h-.2l-.6.2c-.2.1-.3.3-.2.4s.2.3.3.2h.2a1,1,0,0,1,.5-.6" transform="translate(-0.4 -0.2)"/><path class="cls-2" d="M38.6,39.6h.2l.6-.4h-1a.2.2,0,0,0-.2.2c0,.1,0,.2.1.2h.3" transform="translate(-0.4 -0.2)"/><path class="cls-2" d="M29.4,38.4a.3.3,0,0,0,.3.3q.2,0,.3-.3a1.4,1.4,0,0,0,.2-.6l-.7.4c-.1,0-.1.1-.1.2" transform="translate(-0.4 -0.2)"/><path class="cls-2" d="M25.6,36.5a2,2,0,0,0-.9.5,2,2,0,0,1,1,.2c.6.3.7-.7-.1-.7" transform="translate(-0.4 -0.2)"/><path class="cls-2" d="M23.6,35.8a.2.2,0,0,0,.2-.2c0-.2-.1-.3-.3-.4h-.7a1,1,0,0,1,.5.6h.3" transform="translate(-0.4 -0.2)"/><path class="cls-2" d="M22.4,35.8c0-.2-.1-.4-.5-.4l-.6.2c.2,0,.4.1.7.4h.2a.2.2,0,0,0,.2-.2" transform="translate(-0.4 -0.2)"/><path class="cls-2" d="M22.7,36.8l-.9.3a1.2,1.2,0,0,0,.8.4c.8,0,.6-.9.1-.7" transform="translate(-0.4 -0.2)"/><path class="cls-2" d="M23.8,36.8H24a.3.3,0,1,0,0-.6h-.8l.6.5" transform="translate(-0.4 -0.2)"/><path class="cls-2" d="M18.3,35.6h.3a.3.3,0,0,0,.3-.3c0-.1,0-.2-.3-.2l-.7-.2a1.5,1.5,0,0,0,.4.6" transform="translate(-0.4 -0.2)"/><path class="cls-2" d="M16.3,35.8h.3a.3.3,0,0,0,0-.6h-.7a1.5,1.5,0,0,0,.4.6" transform="translate(-0.4 -0.2)"/><path class="cls-2" d="M15.5,34h-.7l.4.4h.3c.2,0,.3-.1.3-.2s-.1-.3-.3-.4" transform="translate(-0.4 -0.2)"/><path class="cls-2" d="M12,31.8h0c0,.2.1.2.3.2h.1c.1-.1.1-.2.1-.4L12,31v.6c-.1.1-.1.2,0,.2" transform="translate(-0.4 -0.2)"/><path class="cls-2" d="M11.3,31.1a1.3,1.3,0,0,0-.5-.6c.1.2,0,.4,0,.6v.2h0c0,.2.2.2.3.2h.2c0-.1.1-.2,0-.4" transform="translate(-0.4 -0.2)"/><path class="cls-2" d="M11.2,32.1H11a1,1,0,0,1-.6-.2,1.6,1.6,0,0,0,.4.7h.3a.2.2,0,0,0,.2-.2c0-.1.1-.3-.1-.3" transform="translate(-0.4 -0.2)"/><path class="cls-2" d="M12.2,33.4h.3l.3-.2-.2-.3h-.1l-.6-.3a.9.9,0,0,0,.3.7" transform="translate(-0.4 -0.2)"/><path class="cls-2" d="M26.8,35.5v-.8c0-.1,0-.2-.3-.2h-.1a1,1,0,0,0-1,.7,1,1,0,0,0,.5,1.1.1.1,0,0,0,.1.1h0v-.6c.1-.2.3-.2.7-.2Z" transform="translate(-0.4 -0.2)"/><path class="cls-2" d="M28,38.2h.1a.1.1,0,0,0,.1-.1h0c-.2-.2-.3-.3-.3-.5s.2-.3.3-.4a.2.2,0,0,0,.1-.4c-.2-.1-.3-.3-.5-.5h-.4a1,1,0,0,0-.3,1.2,1,1,0,0,0,.9.7" transform="translate(-0.4 -0.2)"/><path class="cls-2" d="M35,38h.4a.8.8,0,0,0,.8-.7,1.1,1.1,0,0,0-.5-1.3h-.3l-.5.6v.2c0,.1,0,.1.1.1l.4.5c0,.1-.1.3-.4.5" transform="translate(-0.4 -0.2)"/><path class="cls-2" d="M33.3,36.6l.4.2H34a1.7,1.7,0,0,0,1.1-.9.6.6,0,0,0-.1-.6.9.9,0,0,0-.7-.4h-.2a1.4,1.4,0,0,1-1-.5c-.2-.2-.3-.4-.5-.4h-.2c0,.2.2.4.4.6l.9.5a.5.5,0,0,1,.3.4c0,.1-.1.2-.4.3h-.1c-.2,0-.3-.2-.5-.4a5.3,5.3,0,0,0-1-1.2h-.2l-.3.3-.2.2H31a7.5,7.5,0,0,0-1.4,1.2h-.4c-.1-.1,0-.2.1-.3l1.2-1v-.2h-.1c-.2-.1-.3-.2-.5-.1H27.8a.4.4,0,0,0-.4.2c0,.1,0,.2-.1.2a1.9,1.9,0,0,0,.1.8c0,.1,0,.2.1.2a.1.1,0,0,0,.1.1h.3a.7.7,0,0,0,.4-.7c0-.1.1-.2.3-.2a1.5,1.5,0,0,1,.9-.2H30c0,.1-.1.2-.2.3l-1.2.6a.7.7,0,0,0-.4.7,1,1,0,0,0,.6.7h.3a.5.5,0,0,0,.6-.4c0-.1.2-.2.4-.4a2.7,2.7,0,0,0,.8-.7h.2c.1,0,.1.2.2.3h0c.1.2.2.2.3.2l.3-.2h.3q.1,0,0,.3a.1.1,0,0,0,.1.1h.1l.3.2Z" transform="translate(-0.4 -0.2)"/><path class="cls-2" d="M27.9,32c-.1,0-.1,0-.1.1s-.1.1,0,.1l.9,1.3.5.3h.2c.1-.1.1-.2.1-.4v-.2h-.5l-.8-1.1h-.2" transform="translate(-0.4 -0.2)"/><path class="cls-2" d="M30.9,34.2h.2c.1,0,.2-.1.3-.4a1.5,1.5,0,0,0-.2-1.1L30.5,31h-.1s-.1,0-.1.2a.9.9,0,0,0,.2.8l.3.7.2.3a.4.4,0,0,1,0,.5c-.1.1-.1.2-.2.2l-.3-.2-.8-1.1a1.2,1.2,0,0,0-.7-.7h-.2a4.7,4.7,0,0,1,.6.9h0a4.6,4.6,0,0,0,1.5,1.6" transform="translate(-0.4 -0.2)"/><path class="cls-2" d="M29.9,31.8h-.1l.6,1h.2v-.2l-.6-.9Z" transform="translate(-0.4 -0.2)"/><path class="cls-2" d="M29,32.9h.2c0-.1,0-.2-.1-.2l-.5-.7h-.1Z" transform="translate(-0.4 -0.2)"/><path class="cls-2" d="M32.3,33.4h.3v-.2a11.8,11.8,0,0,0-.4-2,1.1,1.1,0,0,1-.2-.6.1.1,0,0,0-.1-.1h-.1a1.1,1.1,0,0,0,0,.8l.4,1v.3h-.3a3,3,0,0,1-.4-1,.7.7,0,0,0-.3-.5h-.1a3.4,3.4,0,0,0,1.2,2.2" transform="translate(-0.4 -0.2)"/><path class="cls-2" d="M30.7,25.7h-.2c0,.1-.1.2,0,.3a6.2,6.2,0,0,1,.7,3.2c0,.4-.2.4-.2.4s-.3,0-.3-.2-.5-.9-.8-1.4h0a6.1,6.1,0,0,0-.5-1.2h-.1V27a1.5,1.5,0,0,0,.1.6l.5,1.1h0a10.9,10.9,0,0,0,1,1.7h.3l.3-.2c.4-.8,0-3.4-.6-4.6h-.1" transform="translate(-0.4 -0.2)"/><path class="cls-2" d="M30.7,28.8c.1,0,.1-.1.1-.2a3.1,3.1,0,0,0-1-2.3h-.2c0,.1,0,.2.1.2a12.8,12.8,0,0,1,.9,2.2.1.1,0,0,0,.1.1" transform="translate(-0.4 -0.2)"/><path class="cls-2" d="M29.3,31.2h.2a.4.4,0,0,0,.4-.4,6.5,6.5,0,0,0-1-3.5h-.4c0,.1-.1.1,0,.2s.3.8.4,1.1H29a5.8,5.8,0,0,1,.5,1.4c.1.1,0,.3,0,.4h-.2l-.3-.2a6.4,6.4,0,0,1-1.1-1.6h-.1a4.1,4.1,0,0,0-.5-.9H27c-.1.1-.1.2,0,.4a9.3,9.3,0,0,0,2.3,3" transform="translate(-0.4 -0.2)"/><path class="cls-2" d="M27.2,27.2h0a12,12,0,0,1,1.5,2.4h.1s.1,0,0-.2a3.6,3.6,0,0,0-1.5-2.3Z" transform="translate(-0.4 -0.2)"/><path class="cls-2" d="M27.7,31.5a.5.5,0,0,0,.4-.5,5,5,0,0,0-1.7-2.7h-.2a11.3,11.3,0,0,1,1.5,2.1.5.5,0,0,1,0,.5h-.2l-.3-.2c-.8-1.1-1.7-2-2.3-2.7h-.2l2.5,3.1.5.2" transform="translate(-0.4 -0.2)"/><path class="cls-2" d="M25.2,27.7h0V28l1.9,2.3h.1l-1.9-2.5Z" transform="translate(-0.4 -0.2)"/><path class="cls-2" d="M32.9,9.6a2.7,2.7,0,0,0,1.2.6h.1c.1-.1.1-.2.1-.4s-.2-.3-.4-.4h0v.3h-.2c-.2,0-.4-.1-.4-.3a.9.9,0,0,0-.4-.6h0a.7.7,0,0,1,.1.5v.3" transform="translate(-0.4 -0.2)"/><path class="cls-2" d="M30.5,11h-.3a1.1,1.1,0,0,0,.8.3l.4-.2a1.7,1.7,0,0,0-.2-.8h-.1c0-.1,0-.2-.3-.4h0l-.3.2h-.7c0,.1,0,.2.2.2s.9.3.9.5-.2.3-.4.3" transform="translate(-0.4 -0.2)"/><path class="cls-2" d="M30.8,12.2c.5.2.7.5.6.8a.3.3,0,0,1-.3.3h-.4c-.1,0-.1.1,0,.2a1.3,1.3,0,0,0,1,.7l.3-.2a1.1,1.1,0,0,0-.1-.5,3.1,3.1,0,0,1-.3-1.5H30.4Z" transform="translate(-0.4 -0.2)"/><path class="cls-2" d="M28.9,20.5s-.1.2,0,.3a11.2,11.2,0,0,1,1,1.6h0a7.2,7.2,0,0,0,.7,1.1h.2c.1,0,.1-.1.1-.3s-.6-2.2-1.6-3.8h-.1a.4.4,0,0,0,.1.3A10.3,10.3,0,0,1,30.4,22v.2h-.1l-.3-.2a4.7,4.7,0,0,0-1-1.6h-.1Z" transform="translate(-0.4 -0.2)"/><path class="cls-2" d="M27.9,22.5h-.1a.3.3,0,0,0,0,.4c.4.8.8,1.7,1.3,2.5a.7.7,0,0,0,.6.4l.6-.3a2.2,2.2,0,0,0,0-1.6,23,23,0,0,0-1.6-2.7h-.3a.4.4,0,0,0,.1.3A26,26,0,0,1,30,24.3a.8.8,0,0,1,0,.7l-.3.2-.4-.2L28,22.6a.1.1,0,0,0-.1-.1" transform="translate(-0.4 -0.2)"/><path class="cls-2" d="M29.4,24.3h.2V24l-1.2-2.1h-.1a.6.6,0,0,0-.1.4l1.1,2h.1" transform="translate(-0.4 -0.2)"/><path class="cls-2" d="M28.1,27.1a1,1,0,0,0,.7-.4,1.3,1.3,0,0,0-.1-1.2,12.2,12.2,0,0,1-1.1-2.4l-.3-.2a.1.1,0,0,0-.1.1c-.1.1-.1.1,0,.2a13.7,13.7,0,0,0,1.2,2.6.7.7,0,0,1,.1.6.5.5,0,0,1-.4.2c-.2,0-.3-.1-.4-.3a5,5,0,0,1-1-1.4h-.1l-.6-1h-.2c-.1,0-.1.1-.2.2a.3.3,0,0,0,.1.2l1.7,2.5c.2.3.4.5.7.5" transform="translate(-0.4 -0.2)"/><path class="cls-2" d="M26.4,23.5l1.2,2.2.3.2h0s.1-.1,0-.3L26.5,23h-.1a.2.2,0,0,0,0,.3" transform="translate(-0.4 -0.2)"/><path class="cls-2" d="M26.7,27.7a1.1,1.1,0,0,0,0-.8,13,13,0,0,0-1.4-2.6v-.2h-.3c-.1,0-.1,0-.1.1h0a12.8,12.8,0,0,1,1.5,2.5c.1.2.1.3,0,.4s-.1.2-.2.2h-.3l-2.2-2.7c0-.1-.1-.1-.2-.1a.1.1,0,0,0-.1.1v.2a19.4,19.4,0,0,0,2.3,2.9.7.7,0,0,0,.7.2h.4" transform="translate(-0.4 -0.2)"/><path class="cls-2" d="M23.9,24a7.4,7.4,0,0,0,1.7,2.5h.1c.1-.1.1-.1,0-.2A24.9,24.9,0,0,0,24,23.9h-.1" transform="translate(-0.4 -0.2)"/><path class="cls-2" d="M24.5,27.7h.2v-.3a14.2,14.2,0,0,0-2.1-2.7c0-.1-.1-.1-.2-.1h0l1.4,1.8v.3h-.3L21.4,24H21v.2l.2.2c.8,1.3,1.9,2.9,3.2,3.3Z" transform="translate(-0.4 -0.2)"/><path class="cls-2" d="M27.3,17.7c0,.1-.1.2-.1.3s0,.4,0,.4h.1a1.7,1.7,0,0,0,.6-1.2v-2l-.2-.2h-.1v2a.7.7,0,0,1-.2.7Z" transform="translate(-0.4 -0.2)"/><path class="cls-2" d="M25.8,15.9h-.2a10.1,10.1,0,0,0-.3,2.5.6.6,0,0,0,.6.5,1.1,1.1,0,0,0,1-.9,7.8,7.8,0,0,0,.1-2.6c0-.2,0-.3-.1-.3h-.1c0,.1-.1.2-.1.3a6.3,6.3,0,0,1-.1,2.4q-.5.6-.6.6c-.1,0-.3-.1-.3-.4a11.5,11.5,0,0,1,.2-2.1h-.1" transform="translate(-0.4 -0.2)"/><path class="cls-2" d="M26.3,17.7a6.6,6.6,0,0,0,.1-2.1h-.2v2.2h.2" transform="translate(-0.4 -0.2)"/><path class="cls-2" d="M23.5,19l-.3-.2c-.1-.1,0-.2,0-.5l.5-1.6h-.3a3.6,3.6,0,0,1-.4,1.1l-.3.9c0,.2-.1.2,0,.4s.4.3.8.3h0c.8-.1,1.2-.4,1.3-.9l.3-2.1c0-.1,0-.2-.1-.2h-.1l-.2.3L24.5,18a1.1,1.1,0,0,1-1,1" transform="translate(-0.4 -0.2)"/><path class="cls-2" d="M24.3,16.3h-.2a13.5,13.5,0,0,1-.3,1.8h.1l.2-.2a11.1,11.1,0,0,0,.2-1.7h0" transform="translate(-0.4 -0.2)"/><path class="cls-2" d="M21.2,19h.5a.8.8,0,0,0,.7-.4L23,17c0-.2,0-.2-.1-.2h0l-.8,1.6a.5.5,0,0,1-.4.3l-.3-.2a.3.3,0,0,1,0-.4,10.1,10.1,0,0,0,.7-1.5v-.2h-.1a13,13,0,0,1-.8,1.7c-.1.2-.2.3-.1.5l.2.2" transform="translate(-0.4 -0.2)"/><path class="cls-2" d="M22.3,16.8a4.9,4.9,0,0,1-.6,1.3v.2h.2a5.3,5.3,0,0,0,.6-1.4c0-.1,0-.2-.1-.2a.1.1,0,0,0-.1.1" transform="translate(-0.4 -0.2)"/><path class="cls-2" d="M21.3,16.7h0l-.7,1.1h.1a2.4,2.4,0,0,0,.7-1.2h-.1" transform="translate(-0.4 -0.2)"/><path class="cls-2" d="M19.8,18.4a.9.9,0,0,0,.6.3h.2l-.3-.2a.1.1,0,0,1-.1-.1c0-.1,0-.3.1-.3a2.4,2.4,0,0,0,.6-.9c0-.1.1-.2,0-.2h-.1l-.9,1a.9.9,0,0,0-.1.5" transform="translate(-0.4 -0.2)"/><path class="cls-2" d="M19.7,19a2.6,2.6,0,0,0-.6,2.1,10.4,10.4,0,0,0,.4,1l.3.6a2.2,2.2,0,0,1,.1.9c0,.1,0,.2.3.2h.3c.3-.1.5-.2.5-.4s.1-.2,0-.4-.7-2.6-.1-3.4v-.2c0-.1-.1-.1-.2-.1a.1.1,0,0,0-.1.1c-.4.3-.5.7-.5,1.4a4.4,4.4,0,0,0,.2,1,2.9,2.9,0,0,1,.2.9.1.1,0,0,1,0,.2h-.2s-.1,0-.2-.2l-.3-.8h0l-.3-1.1a2.7,2.7,0,0,1,.5-1.6h0c.1-.1.1-.1.1-.2h-.4" transform="translate(-0.4 -0.2)"/><path class="cls-2" d="M21.1,22a3.7,3.7,0,0,0,.9,1.9.9.9,0,0,0,.7.3,1,1,0,0,0,.8-.7.9.9,0,0,0-.1-.5.3.3,0,0,0-.1-.2,6.2,6.2,0,0,1,0-2.7v-.2h-.2c-.1,0-.2,0-.2.1a4.8,4.8,0,0,0,0,2.9.7.7,0,0,1-.1.5h-.3a.4.4,0,0,1-.4-.2c-.8-1.3-1-2.5-.4-3.5v-.3h-.2c-.1,0-.1.1-.2.2a2.9,2.9,0,0,0-.2,2.4" transform="translate(-0.4 -0.2)"/><path class="cls-2" d="M22.5,19.6a.1.1,0,0,0-.1-.1c-.1,0-.2,0-.2.1a3.4,3.4,0,0,0,.1,3.1h.1c.1,0,.1,0,0-.2a3.6,3.6,0,0,1,.1-2.8h0" transform="translate(-0.4 -0.2)"/><path class="cls-2" d="M24.1,19.8H24a.2.2,0,0,0-.2.2,4.4,4.4,0,0,0,0,2.8,1.1,1.1,0,0,0,1.1.8,1,1,0,0,0,.9-.9,10.3,10.3,0,0,1-.1-3v-.2c0-.1-.1-.1-.2-.1a.1.1,0,0,0-.1.1,9.4,9.4,0,0,0-.2,2.5.3.3,0,0,0,.1.2,1.3,1.3,0,0,1-.1.6h-.3c-.2.1-.3-.1-.5-.3a4.4,4.4,0,0,1-.2-2.6v-.2" transform="translate(-0.4 -0.2)"/><path class="cls-2" d="M24.8,19.6h-.2a6.5,6.5,0,0,0-.1,2.4v.2l.2-.2a9.6,9.6,0,0,1,0-2.4Z" transform="translate(-0.4 -0.2)"/><path class="cls-2" d="M27.1,18.9c-.1,0-.1.2-.1.4a6,6,0,0,1,.4,2.2.7.7,0,0,1-.5.4c-.2,0-.3-.1-.4-.3a7.5,7.5,0,0,1-.2-2c0-.2-.1-.2-.2-.2H26c-.1.1-.1.1-.1.2a5.6,5.6,0,0,0,.5,2.8l.5.2q.5,0,.9-.9a4,4,0,0,0-.6-2.8Z" transform="translate(-0.4 -0.2)"/><path class="cls-2" d="M26.9,21.1A.1.1,0,0,0,27,21a9.9,9.9,0,0,1-.2-1.7l-.2-.2v.2a9.9,9.9,0,0,0,.2,1.8Z" transform="translate(-0.4 -0.2)"/><path class="cls-2" d="M28.3,17.9a.1.1,0,0,0-.1.1,1.4,1.4,0,0,0,.2.7h0a1.4,1.4,0,0,1,.2.7c-.1.2-.2.2-.2.2h-.2c-.2,0-.3-.3-.3-.5s.1-.2.1-.1a.1.1,0,0,1,.1.1c.2,0,0-.5,0-.5h-.2c-.1,0-.2,0-.2.1s-.2.1-.2.3a3.7,3.7,0,0,0,.7,1.4h.2l.2-.2a1.8,1.8,0,0,0-.2-2.1h-.1" transform="translate(-0.4 -0.2)"/><path class="cls-2" d="M29.2,17.6h-.1a.1.1,0,0,0-.1.1c-.1,0,0,0,0,.1s.1.2.2.3.4.5.1.8h0l.2.2h.3l.4-.5h-.1c-.2,0-.4-.3-.5-.4s-.3-.4-.4-.4" transform="translate(-0.4 -0.2)"/><path class="cls-2" d="M30.3,17.5c-.1,0-.2,0-.2-.1l-.5-.3h-.2l.7.7h.3a.1.1,0,0,0,.1-.1.8.8,0,0,0,.4-.4c.2-.2.4-.3.5-.6v-.2h-.1a1.9,1.9,0,0,1-1-.5h-.2c0,.1-.1.1,0,.2l.4.5a.2.2,0,0,1,0,.3l-.2.2" transform="translate(-0.4 -0.2)"/><path class="cls-2" d="M31.2,15.7l-.3-.2h-.2a.5.5,0,0,0-.1.5,1.2,1.2,0,0,0,.8.4.5.5,0,0,0,.4-.3l.3-1.1v-.2c-.1,0-.2,0-.2-.1h-.1a2.4,2.4,0,0,1-.9-.6h0c0,.2,0,.3.1.3l.4.4a.5.5,0,0,1,.1.6c0,.1-.1.2-.3.2" transform="translate(-0.4 -0.2)"/><path class="cls-2" d="M39.9,36.8a.8.8,0,0,0-.1-.4c0-.1,0-.2-.2-.2s-.7-.1-.7-.6h-.1a.8.8,0,0,0-.5.5c0,.1-.1.2-.2.3l-.4.2c-.2,0-.3-.1-.5-.4h0a.3.3,0,0,0-.1.2c-.2.1-.1.3-.1.5a1.8,1.8,0,0,1-.2.9,1.7,1.7,0,0,1-1.4,1c-.1.1-.2,0-.4,0h0a.2.2,0,0,0-.2.2h0l.7.2a1.7,1.7,0,0,0,1.3-.8c.6-.8,1.3-1.8,2.1-1.8l.5.2h0l.3.2h.2" transform="translate(-0.4 -0.2)"/><path class="cls-2" d="M41.8,39.2c-.3,0-.4,0-.5-.2a.4.4,0,0,1,0-.5h-.1c-.4.1-.5.2-.6.5s0,.3-.2.4a9.3,9.3,0,0,1-2.8.8,8.5,8.5,0,0,1-2.3-.4l-1.1-.3a.6.6,0,0,0-.5.2c0,.1.1.1.1.2l.9.3a.6.6,0,0,1,.5.4c.1.4.2.6.5.6h.1a.3.3,0,0,1,0-.4c0-.1.1-.1.2-.1h.1l1.6.2H39a1.3,1.3,0,0,0,.8.3h.3l-.3-.4c0-.2,0-.3.2-.3l.9-.4.3-.2h.1c.5,0,.7-.2.7-.3h-.2" transform="translate(-0.4 -0.2)"/><path class="cls-2" d="M41.9,37.1a1.1,1.1,0,0,1-1,.6h-.4c-.1-.1-.2-.2-.2-.3a1.5,1.5,0,0,1,.5-.8l.6-.2.5.2a.6.6,0,0,1,0,.6M41.3,36a.7.7,0,0,0-.6.2c-.8.7-1,1.2-.6,1.8l.8.2a1.9,1.9,0,0,0,1.3-.6,1.2,1.2,0,0,0,.1-1,1.1,1.1,0,0,0-1-.6" transform="translate(-0.4 -0.2)"/><path class="cls-2" d="M43.8,36.8c0-.1-.1-.2-.2-.1H43c-.1,0-.1.1-.1.2a.3.3,0,0,0,.1.2l.6.2h.2v-.4" transform="translate(-0.4 -0.2)"/><path class="cls-2" d="M43.5,36c-.2-.2-.3-.3-.3-.4h-.3l-.4.5c0,.1,0,.2.1.2s.1.1.2.2l.7-.3V36" transform="translate(-0.4 -0.2)"/><path class="cls-2" d="M42.4,35h-.2a.1.1,0,0,0-.1.1.5.5,0,0,0-.2.4v.3h.4l.4-.3h0l-.3-.2" transform="translate(-0.4 -0.2)"/><path class="cls-2" d="M44.3,34.6l-.3.2a.5.5,0,0,1-.4.5.3.3,0,0,0-.1.2l.3.3h.1l.5-.2h.2c.2,0,.2-.1.3-.2a.6.6,0,0,0-.2-.5c-.1-.2-.2-.2-.4-.2" transform="translate(-0.4 -0.2)"/><path class="cls-2" d="M22.6,38.8c.1.2-.1.3-.3.4h.3l.6-.2a.9.9,0,0,1,.6-.3h.6c.2.1.3.2.3.4v.2h.1c.4,0,.6-.2.8-.6a.9.9,0,0,1,.6-.4,1.3,1.3,0,0,0,.3-.5c0-.1,0-.2-.1-.2h-.1a4.2,4.2,0,0,1-2,.5,11.2,11.2,0,0,1-3.9-1,.9.9,0,0,1-.4-.9l.5-1.5a1.1,1.1,0,0,1,1.2-.7A7.1,7.1,0,0,1,25,35.6h.1c.1-.1,0-.3,0-.4l-.6-.4a.6.6,0,0,1-.2-.5c-.1-.5-.3-.7-.5-.7h-.1V34c-.1.2-.2.2-.2.2h-.2a1.6,1.6,0,0,1-1.3-.8c-.2-.3-.4-.5-.7-.5h0a.4.4,0,0,1,.1.3q0,.1-.3.3h-.9l-.5-.2h-.2a.7.7,0,0,1,.4.9l-.7,1.9a1.4,1.4,0,0,0,.4,1.3,1,1,0,0,1,.7.5l-.3.3h.3l.5-.2.5-.2h.3c.7.2,1,.4,1,.6" transform="translate(-0.4 -0.2)"/><path class="cls-2" d="M19.3,34.9a.1.1,0,0,0,.1-.1h0a2,2,0,0,0-.9-.9h-.2V34l.9.9Z" transform="translate(-0.4 -0.2)"/><path class="cls-2" d="M13.3,34.9c0,.4,0,.9-.4.9h0l.5.2h.4c0-.1.1-.1.2-.1h.1l1.2.6q.3.1.3.3l-.2.3h.3a.7.7,0,0,0,.6-.2h1l1.4-.2c.2-.2.3-.3.2-.5h-.2l-1.4.2a5.7,5.7,0,0,1-3.1-1c-.2-.1-.3-.4-.2-.8a3.5,3.5,0,0,1,.7-1.5l.3-.2h.3c.4,0,.5-.1.5-.3h-.2a1.5,1.5,0,0,1-.7-.3l-.4-.3h-.1a.4.4,0,0,1,.1.3c0,.2,0,.3-.2.4a3.7,3.7,0,0,0-1,2.3" transform="translate(-0.4 -0.2)"/><path class="cls-2" d="M16.5,33.9h0a1.5,1.5,0,0,1,0-1.3l.5-.2.4.2a1.1,1.1,0,0,1,0,.8c-.1.4-.3.7-.5.7l-.4-.2m1.5-.4a1.5,1.5,0,0,0-.2-1,.9.9,0,0,0-.8-.4.6.6,0,0,0-.6.3c-.2.1-.3.5-.3,1a1.4,1.4,0,0,0,.5,1.1H17c.4-.1.7-.4,1-1.1" transform="translate(-0.4 -0.2)"/><path class="cls-2" d="M18.3,32.2l.5-.2q.1-.3,0-.3l-.3-.2h-.1c-.1,0-.1.1-.2.2a.5.5,0,0,0-.2.4c.1.2.2.2.3.2Z" transform="translate(-0.4 -0.2)"/><path class="cls-2" d="M17.8,31.1h-.5a.1.1,0,0,0,0,.2v.5c0,.1.1.1.2.1h.2l.2-.3c.1-.1.1-.1.1-.2h-.2" transform="translate(-0.4 -0.2)"/><path class="cls-2" d="M16.8,31h-.5s-.1.1,0,.3.2.5.4.5.1-.1.2-.2v-.5c0-.1,0-.2-.1-.2Z" transform="translate(-0.4 -0.2)"/><path class="cls-2" d="M11.6,34.2h.2l.8.2H13c0-.1-.1-.1-.1-.2a4.5,4.5,0,0,1-3.5-2.2,1,1,0,0,1,.1-.9,2.3,2.3,0,0,1,1.2-1l.4-.2.5.2a6.3,6.3,0,0,1,1.7,2.7c0,.2.1.3.2.3a.2.2,0,0,0,.2-.2v-.6c-.1-.2-.1-.3,0-.4s.4-.8.1-1.1h0c-.1.3-.3.4-.4.4a.4.4,0,0,1-.4-.2,3.6,3.6,0,0,0-1.1-1.3c-.2-.1-.3-.2-.2-.3s-.3-.6-.5-.7H11a.6.6,0,0,1-.5.8A2.7,2.7,0,0,0,8.8,31c-.1.2-.2.2-.3.2a.4.4,0,0,1-.4-.2h0a.7.7,0,0,0,.4.7c.2,0,.3.1.4.3l.4.6.2.2a.6.6,0,0,1-.5.2h.1a1,1,0,0,0,.7.2h.4l.5.3c.1.1.2.2.2.3s-.1.2-.3.3h0l.4.2c.2,0,.3-.1.4-.3h.2" transform="translate(-0.4 -0.2)"/><path class="cls-2" d="M8.8,27.7c.2,0,.5,0,.6.5s.2.7.1.8l-.3.2H9.1a1.3,1.3,0,0,1-.7-1,.5.5,0,0,1,.4-.5m-.7.1a1,1,0,0,0,.1.9,1.7,1.7,0,0,0,1.1.9h.1a.5.5,0,0,0,.6-.4,1.3,1.3,0,0,0-.2-1.3,1.2,1.2,0,0,0-.9-.6,1,1,0,0,0-.8.5" transform="translate(-0.4 -0.2)"/><path class="cls-2" d="M9,27l.3-.2c0-.1.1-.3.1-.4s-.1-.2-.1-.2H8.8a.4.4,0,0,0-.1.3c0,.4.2.6.3.6" transform="translate(-0.4 -0.2)"/><path class="cls-2" d="M8.4,27.1a.8.8,0,0,0,0-.7H8.2l-.5.2c0,.1,0,.1.1.2s.4.4.5.4h.1" transform="translate(-0.4 -0.2)"/><path class="cls-2" d="M7.5,26.8a.4.4,0,0,0-.4.4h0a.9.9,0,0,0,.6.3h.2a.9.9,0,0,0-.3-.6Z" transform="translate(-0.4 -0.2)"/><path class="cls-2" d="M7.3,25.6q.3.1.3.3a.2.2,0,0,0,.2.2H8a.4.4,0,0,0-.1-.3v-.4c.1-.2,0-.3,0-.4H7.6a.7.7,0,0,0-.6.4c0,.2.2.3.3.4" transform="translate(-0.4 -0.2)"/><path class="cls-2" d="M18.4,38.5c0,.1-.1.1-.2.1s-.4-.1-.4-.2a.6.6,0,0,1,0-.6h.3c.2,0,.3.1.4.3s.1.3-.1.5m.5,0a.8.8,0,0,0-.2-.9.6.6,0,0,0-.6-.2.7.7,0,0,0-.7.4,1,1,0,0,0,.1.9.9.9,0,0,0,.7.3.8.8,0,0,0,.7-.5" transform="translate(-0.4 -0.2)"/><path class="cls-2" d="M14.5,41.5h-.3a.3.3,0,0,1-.3-.3.4.4,0,0,1,0-.5h.3a.5.5,0,0,1,.4.2.5.5,0,0,1-.1.6m-.3-1.2a.8.8,0,0,0-.7.4,1.2,1.2,0,0,0,.1,1,.9.9,0,0,0,.7.3h0a.8.8,0,0,0,.7-.5.8.8,0,0,0-.2-.9.7.7,0,0,0-.6-.3" transform="translate(-0.4 -0.2)"/><path class="cls-2" d="M35.9,44.8h-.3a.5.5,0,0,1-.5-.3.5.5,0,0,1,.1-.5h.3a.5.5,0,0,1,.5.3,1.1,1.1,0,0,1-.1.5m-.4-1.2c-.4,0-.7.1-.8.4a1,1,0,0,0,.2,1,.9.9,0,0,0,.7.3.9.9,0,0,0,.8-.5,1,1,0,0,0-.2-.9,1.1,1.1,0,0,0-.7-.3" transform="translate(-0.4 -0.2)"/><path class="cls-2" d="M20.7,40.8A5.1,5.1,0,0,1,19,39.3h-.3v.3a3.6,3.6,0,0,0,2,1.6c.1,0,.1,0,.1-.1s0-.1-.1-.2" transform="translate(-0.4 -0.2)"/><path class="cls-2" d="M20.6,44.1,19,43.8h-.2c0,.1,0,.2.2.2l1.6.6h.2v-.3l-.2-.2" transform="translate(-0.4 -0.2)"/><path class="cls-2" d="M17.7,43.3a1.6,1.6,0,0,0-1.2.5V44H17a1.1,1.1,0,0,1,.8-.3h.1a.3.3,0,0,1,.3.3.2.2,0,0,1-.2.2h-.5l-.5.2h-.2a.1.1,0,0,1-.1.1h.1l.9.2a.8.8,0,0,0,.7-.3.9.9,0,0,0,0-.7c-.2-.2-.4-.4-.7-.3" transform="translate(-0.4 -0.2)"/><path class="cls-2" d="M11.5,36.8h-.2c0,.1.2.3.5.3a1.4,1.4,0,0,1,1.1.4c.2.1.2.3.1.3a.2.2,0,0,1-.4,0c-.1-.1-.1-.2-.3-.2a1.1,1.1,0,0,0-.7-.2h-.3c.7.9,1.2,1,1.4,1a.6.6,0,0,0,.6-.3.6.6,0,0,0-.1-.7c-.2-.5-.9-.7-1.7-.7" transform="translate(-0.4 -0.2)"/><path class="cls-2" d="M38.6,41.6l-1.3-.3a1.1,1.1,0,0,0-.8.3.9.9,0,0,0-.3.6.8.8,0,0,0,.9.7,3,3,0,0,0,1.4-.5H37.4l-.4.2h-.1a.3.3,0,0,1-.3-.3s-.1-.2.2-.3h.5l.7.2h.7v-.2" transform="translate(-0.4 -0.2)"/><path class="cls-2" d="M34.1,42.4a3.8,3.8,0,0,0,1.6-.3c0-.1.1-.1.1-.2s-.2-.2-.3-.2h-.1l-1.6.2H32.7c-.2,0-.2.1-.2.1s0,.2.3.3h1.3" transform="translate(-0.4 -0.2)"/><path class="cls-2" d="M34.2,43.7a.3.3,0,0,1-.1-.2c0-.1.1-.2.3-.2l1.4-.5h.1c0-.1-.1-.2-.3-.2h0c-1.4.2-2.1.5-2.2.9s.2.4.6.7h.2c.1,0,.2,0,.2-.1a.1.1,0,0,0-.1-.1Z" transform="translate(-0.4 -0.2)"/><path class="cls-2" d="M34,44.5l-1.3.3a.3.3,0,0,0-.1.2.3.3,0,0,0,.3.3h0l1.3-.3c.1,0,.1-.1.1-.2l-.3-.2" transform="translate(-0.4 -0.2)"/><path class="cls-2" d="M19.3,42.6c-.2-.7-1.7-1.3-3.6-1.6h-.3c0,.1.1.2.2.3a7.2,7.2,0,0,1,3,1l.3.4c0,.1-.1.1-.2.2a.3.3,0,0,0-.1.2c0,.2.1.2.2.2H19c.3-.3.4-.6.3-.8" transform="translate(-0.4 -0.2)"/><path class="cls-2" d="M15.8,40.4c0-.3-.3-1-2-1.8h-.2c0,.1,0,.1.1.2l.3.2c0,.1.1.1.2.1a7.3,7.3,0,0,1,.9.8l.2.2c0,.1-.1.1-.1.2s-.1.1,0,.1h.3c.2,0,.3,0,.3-.1" transform="translate(-0.4 -0.2)"/><path class="cls-2" d="M16.1,39.4l.7.3.9.3h.1a.6.6,0,0,0,.5-.2.5.5,0,0,0-.2-.4h-.2c0,.1-.1.2-.3.2h-.2l-3.3-1.6h-.2a.1.1,0,0,1-.1.1v.2c.8.6,1.6.9,2.2,1.3" transform="translate(-0.4 -0.2)"/><path class="cls-2" d="M3.9,22.3h0c.3.2.5.3.5.5s.1.4.1.6v.5c0,.1-.1.1-.2.1l-1.3-.2v-.4l.2-.4h.4v-.2l-1.4-.2v.2h.1l.4.2v.8l-1.2-.2H1.2v-.6c.1-.3.1-.4.2-.5H2v-.2H1.1L.8,24.5H1a.4.4,0,0,1,.1-.3h.4l2.5.3h.3c.1,0,.1.1.1.3h.2l.3-2.5-1-.4Z" transform="translate(-0.4 -0.2)"/><path class="cls-2" d="M4.5,19.7H3.9l-.6.4-.4.3-.4.2H2.1l-.3-.2v-.3a.5.5,0,0,1,.3-.4h.8v-.2l-1.3-.2h.1v.2a.8.8,0,0,0-.2.4.6.6,0,0,0,.1.7c.1.2.4.3.7.4h.6l.4-.2.3-.3.5-.3a.5.5,0,0,1,.5,0l.4.2a.3.3,0,0,1,0,.4c0,.2-.2.4-.5.5H3.9v.2l1.3.2v-.2H5a.8.8,0,0,1,.1-.3l.3-.4a1.2,1.2,0,0,0-.2-.8c-.1-.2-.4-.3-.7-.4" transform="translate(-0.4 -0.2)"/><path class="cls-2" d="M6.1,17.8c-.1.1-.1.2-.2.2H5.6L2.9,16.9v-.2l.3-.4h.6v-.2l-1-.4L2,18.3l1,.4v-.2H3l-.4-.4c-.1-.1-.1-.2,0-.5v-.2l2.6,1,.4.3a.8.8,0,0,1-.1.3h.2l.5-1.3H6.1Z" transform="translate(-0.4 -0.2)"/><path class="cls-2" d="M6,15l-.5.8-.9-1Zm1.7-.5v.2H7.2l-3.4-.5v.2l2,2.1c.3.3.5.5.5.6a.4.4,0,0,1,.1.3h.1l.5-.8H6.7v.2H6.2L5.8,16l.5-.9h.9a.1.1,0,0,0,.1.1.4.4,0,0,0-.1.3h.1l.6-1.1H7.7Z" transform="translate(-0.4 -0.2)"/><path class="cls-2" d="M8.7,12.6a1.3,1.3,0,0,1-.3.8H8.1L5.8,11.8H5.7v-.2a1,1,0,0,1,.8-.5h.2a1.7,1.7,0,0,1,1.1.4,1.7,1.7,0,0,1,.8,1.2m.1-1.1-.5-.6a1.7,1.7,0,0,0-1.9-.3,1.7,1.7,0,0,0-.8.7l-.7,1H5l.3-.2.3.2,2.1,1.4.2.3v.3H8l.7-1a2,2,0,0,0,.4-.8v-.5a1.1,1.1,0,0,0-.3-.7" transform="translate(-0.4 -0.2)"/><path class="cls-2" d="M10.8,10.6a.6.6,0,0,1-.7.2A2.8,2.8,0,0,1,9,10.1,3.3,3.3,0,0,1,8.2,9c0-.3,0-.6.2-.7s.3-.2.5-.2h.2c.4,0,.7.3,1.2.7A2.8,2.8,0,0,1,11,9.9a.6.6,0,0,1-.2.7m-.1-2.2a2.3,2.3,0,0,0-1.4-.8A1.5,1.5,0,0,0,8.2,8a1.6,1.6,0,0,0-.4,1.2,2.3,2.3,0,0,0,.8,1.3,1.9,1.9,0,0,0,1.3.7h.2a1,1,0,0,0,.9-.4,1.1,1.1,0,0,0,.4-1.1,2.1,2.1,0,0,0-.7-1.3" transform="translate(-0.4 -0.2)"/><path class="cls-2" d="M12.8,7H11.1l-.3-.2a.4.4,0,0,1-.1-.3c0-.2.1-.3.2-.3s.2-.2.4-.1a1.3,1.3,0,0,1,.8.3h.2l-.9-.9h-.8a.9.9,0,0,0-.3.7,1.1,1.1,0,0,0,.3.7,1,1,0,0,0,.5.4h1.5l.4.3c.1.2.2.3.2.4l-.2.4a.8.8,0,0,1-.7.1l-.6-.3h0l-.2.2.9.9h.4l.4-.2a1,1,0,0,0,.4-.7,1.3,1.3,0,0,0-.3-.8,1,1,0,0,0-.5-.4" transform="translate(-0.4 -0.2)"/><path class="cls-2" d="M17,3.1c-.1-.3-.2-.5-.1-.5s0-.2.2-.3h0V2.1l-1,.5v.2h.3c.1,0,.2.1.4.4l.6,1.4a2.5,2.5,0,0,1,.2.7c.1.3-.1.5-.4.7a.8.8,0,0,1-.8-.1,1.6,1.6,0,0,1-.3-.6l-.8-1.6a.8.8,0,0,1-.1-.3c0-.1,0-.2.2-.3h.1V2.9l-1.3.6v.2h.1a.2.2,0,0,1,.3,0l.2.2.7,1.6a2.8,2.8,0,0,0,.6.8l.6.2h.6c.4-.3.7-.6.6-1.1a5.1,5.1,0,0,0-.2-.9Z" transform="translate(-0.4 -0.2)"/><path class="cls-2" d="M20.4,1.4l.3-.3h0V.9l-1.2.4v.2h.1a.2.2,0,0,1,.3,0,1.2,1.2,0,0,1,.2.5l.5,1.6L18.4,1.7l-.8.2v.2h.5l.8,2.4a1.8,1.8,0,0,1,.1.5l-.3.3h0v.2l1.1-.4V5h-.4a1.2,1.2,0,0,1-.2-.5l-.7-1.9,2.8,2.2h.1l-.9-2.9a1.8,1.8,0,0,1-.1-.5" transform="translate(-0.4 -0.2)"/><path class="cls-2" d="M23.2,4.2h-.1c-.2,0-.2-.1-.2-.1s-.1-.1-.2-.3l-.5-2.5V.9h.4V.6L21.1.9v.2h0c.2-.1.3-.1.4,0v.3l.5,2.5v.4h-.4v.2l1.4-.3V4.1Z" transform="translate(-0.4 -0.2)"/><path class="cls-2" d="M24.5,3.9h-.2L24,.8a.1.1,0,0,1,.1-.1h.3a1.1,1.1,0,0,1,.8.2,1.7,1.7,0,0,1,.5,1.3c.1.6,0,1.1-.3,1.3a1.9,1.9,0,0,1-.9.4ZM25.4.5,24.3.3,23,.5V.7h.3a.6.6,0,0,1,.1.4l.2,2.5v.3c0,.1-.1.1-.3.2h0v.2h1.3c.3-.1.6-.1.8-.3s.3-.1.4-.3a1.6,1.6,0,0,0,.4-.7,2.1,2.1,0,0,0,0-.8A1.8,1.8,0,0,0,25.4.5" transform="translate(-0.4 -0.2)"/><path class="cls-2" d="M29.2,2.2a2.3,2.3,0,0,1-.3,1.3c-.2.2-.4.4-.7.3a.7.7,0,0,1-.6-.4,2.4,2.4,0,0,1-.2-1.3A3.5,3.5,0,0,1,27.7.8a.9.9,0,0,1,.7-.3h0a.5.5,0,0,1,.6.4,1.7,1.7,0,0,1,.2,1.3m-.8-2a1.2,1.2,0,0,0-1.1.4,2.5,2.5,0,0,0-.5,1.5,2.1,2.1,0,0,0,.4,1.4,1.4,1.4,0,0,0,1,.7h.1a1.4,1.4,0,0,0,1-.5,2.1,2.1,0,0,0,.5-1.5A1.9,1.9,0,0,0,29.5.7,1.4,1.4,0,0,0,28.4.2" transform="translate(-0.4 -0.2)"/><path class="cls-2" d="M32.4.7h-.3L31.7.5,31,.7a1.6,1.6,0,0,0-.4.7,2,2,0,0,0,.1.7l.3.3.3.4c.2.2.3.3.3.4a.7.7,0,0,1,.1.5.5.5,0,0,1-.2.4h-.4a.8.8,0,0,1-.5-.5c-.1-.2-.1-.4-.2-.6h-.2V4.3h.6l.4.2h.2l.6-.2a1.6,1.6,0,0,0,.4-.7,1.3,1.3,0,0,0-.1-.6c0-.2-.2-.4-.4-.7L31.5,2l-.3-.4V1.2l.2-.3h.3a.5.5,0,0,1,.4.3,1.2,1.2,0,0,1,.2.7h.2V.7Z" transform="translate(-0.4 -0.2)"/><path class="cls-2" d="M37.9,6.5c-.2-.1-.2-.1-.2-.2s-.1-.1.1-.3l1-2.3c.1-.3.1-.3.2-.3s.1-.1.3,0h0V3.2l-.9-.4-2,2.1L36.7,2l-.9-.4v.2h.1L36,2a.8.8,0,0,1-.1.4L35,4.5l-.3.5h-.4v.2l1.1.5V5.4h-.1l-.2-.2c0-.1,0-.2.2-.6l.8-1.8-.2,3.1H36l2.2-2.3-.9,2.1c-.2.2-.2.3-.3.3h-.3v.2l1.2.5V6.5Z" transform="translate(-0.4 -0.2)"/><path class="cls-2" d="M40.6,7.3h0l-.7.3h0l-.6-.3L38.9,7H39l.7-1.2L40,6l.3.2a1.3,1.3,0,0,1-.1.5h.1l.8-1.2h-.2l-.4.3h-.3l-.4-.2.7-1.1h.1l.6.3.3.3a1.3,1.3,0,0,1-.1.5h.2l.4-.8L39.9,3.6h0l.2.3-.2.3L38.6,6.4l-.3.3H38v.2L40,8.1l.8-.7Z" transform="translate(-0.4 -0.2)"/><path class="cls-2" d="M42.8,10.1l-.2-.2V9.5L43,7.8l1.1-.3h1l-.9-.8v.2h.2v.2h-.3l-.8.3V6.6h.1V6.3h.4l-1.1-.9h-.1a.5.5,0,0,1,.2.4,5.4,5.4,0,0,0-.1.8l-.2,1L41.3,8l-.7.2h-.3v.2l.9.7V8.8h0V8.6c-.1,0-.1-.1,0-.1h.4l.9-.3-.2,1.1v.3h-.4v.2l1.1.9h.1Z" transform="translate(-0.4 -0.2)"/><path class="cls-2" d="M43.9,10.7,45.7,9c.2-.2.3-.2.3-.3l.3.2h0l.2-.2-1-1h-.1v.3c0,.1,0,.2-.2.3l-1.8,1.8-.3.2-.3-.2h-.2l1,1.1.2-.2h-.1V11l.2-.3" transform="translate(-0.4 -0.2)"/><path class="cls-2" d="M46.1,13.4h0v-.2h-.6a1,1,0,0,1-.5-.4.8.8,0,0,1-.1-.8,1.7,1.7,0,0,1,.7-1,3.4,3.4,0,0,1,1.2-.6,1.1,1.1,0,0,1,.8.3.9.9,0,0,1,.1.9l-.3.5h-.1l.2.2,1-.9h-.4v-.3l-.3-.5a1.3,1.3,0,0,0-1.2-.5h0a2,2,0,0,0-1.4.5,2,2,0,0,0-.8,1.2,1.3,1.3,0,0,0,.3,1.3.8.8,0,0,0,.7.4h.6" transform="translate(-0.4 -0.2)"/><path class="cls-2" d="M48.8,13.6l-.9,1.1-.4-.8Zm-1.4,2.8c0-.1-.1-.1,0-.2l.2-.3,2.2-2.6v-.2l-2.9.6H45.6l.5.8h.2v-.2a.1.1,0,0,1,.1-.1h.8l.6.9-.4.4v.2H47l-.2-.2h-.2l.6,1.1h.2Z" transform="translate(-0.4 -0.2)"/><path class="cls-2" d="M51.6,18l.2.2H52l-.4-1.1h-.2v.3c0,.1-.1.2-.5.3l-1.6.6,1.8-2.5-.3-.7h-.2v.2s-.1,0-.1.2h-.1l-2.3,1h-.5q-.2,0-.3-.3h-.2l.5,1.1h.1v-.3l.5-.3,1.9-.7-2,2.8h0L51,18.1c.3-.1.5-.2.6-.1" transform="translate(-0.4 -0.2)"/><path class="cls-2" d="M49.6,21.7c-.3-.2-.5-.3-.6-.6a1.1,1.1,0,0,1,.3-.7,3.3,3.3,0,0,1,1.2-.6h1.3c.3.1.5.3.5.5a.6.6,0,0,1-.2.7,1.7,1.7,0,0,1-1.2.6,2,2,0,0,1-1.3.1m.8.6h.7a2.2,2.2,0,0,0,1.3-.8,1.4,1.4,0,0,0,.2-1.1,1.3,1.3,0,0,0-.7-1,2.8,2.8,0,0,0-1.6-.1A2.9,2.9,0,0,0,49,20a1.1,1.1,0,0,0-.2,1.2,1.1,1.1,0,0,0,.7.9l.9.2" transform="translate(-0.4 -0.2)"/><path class="cls-2" d="M53.3,24.2h-.2a.8.8,0,0,1,.1-.3v-.4c0-.2-.2-.4-.4-.6h-.7a.6.6,0,0,0-.6.3c-.1,0-.2.2-.3.3l-.2.4-.4.5-.4.2h-.4c-.2-.1-.2-.2-.2-.3s0-.5.3-.7l.5-.3h0v-.2l-1.2.3v.2h.2v.3c0,.1-.1.3,0,.4a.7.7,0,0,0,.4.7c.1.2.4.2.6.2h.2l.5-.2c.2-.1.3-.3.5-.6l.3-.4c.1-.2.1-.3.2-.4h.7c.1.1.2.2.2.3s-.1.3-.2.5a.9.9,0,0,1-.6.4H52v.2l1.3-.2Z" transform="translate(-0.4 -0.2)"/><path class="cls-2" d="M26.2,50.8c-.2,0-.3-.1-.4-.3a3,3,0,0,1,.1-1.6.3.3,0,0,1,.3-.3.5.5,0,0,1,.4.3v1.5c-.1.3-.3.3-.4.4" transform="translate(-0.4 -0.2)"/><path class="cls-2" d="M27.8,50.7c-.2,0-.4-.1-.4-.3V49.1c0-.2,0-.3.1-.4s.1-.1.2-.2.4.2.5.5v1.3a.1.1,0,0,1,0,.2l-.3.2" transform="translate(-0.4 -0.2)"/><path class="cls-2" d="M23,51.7h-.2c-.2,0-.2-.2-.2-.3s0-.2.1-.2h.6v.4H23" transform="translate(-0.4 -0.2)"/><path class="cls-2" d="M30.7,51.8h-.3v-.2a.8.8,0,0,1,.4-.4h.1c.1.1.2.2.2.3a.4.4,0,0,1-.2.4h-.2" transform="translate(-0.4 -0.2)"/><path class="cls-2" d="M23.8,51.1h-.2l-.3-.2v-.2a3.7,3.7,0,0,1,1.8-.8h0c.2,0,.3.1.3.2a.8.8,0,0,1-.2.4,2.3,2.3,0,0,0-1.1.4c-.1.2-.2.2-.3.2" transform="translate(-0.4 -0.2)"/><path class="cls-2" d="M30,51.2c-.1,0-.1,0-.1-.1a3.4,3.4,0,0,0-1.2-.6c-.1,0-.2,0-.2-.2v-.4a3.3,3.3,0,0,1,1.9.8h0l-.4.3Z" transform="translate(-0.4 -0.2)"/><path class="cls-2" d="M28.8,53.9h-.2l-1.4-.7c-.2-.1-.2-.2-.2-.3s.2-.4.4-.4h.2l.7.4a2,2,0,0,1,.8.4c.1.1.2.1.2.2a.1.1,0,0,1-.1.1l-.2.3h-.2" transform="translate(-0.4 -0.2)"/><path class="cls-2" d="M23.2,53.5h-.1c-.1,0-.1-.1-.1-.2s.8-1.2,1.6-1.7l.7-.5h.2c.1-.1.1,0,.2,0l.3.2h.1l-.8.6A2.8,2.8,0,0,0,24,53a1.2,1.2,0,0,1-.8.5Z" transform="translate(-0.4 -0.2)"/><path class="cls-2" d="M25.3,53.8h-.2l-.3-.3c-.1-.1-.1-.3.1-.5l1-.8,1.1-.8.3-.3H28a1.1,1.1,0,0,1-.2.5,4.5,4.5,0,0,1-1.3,1.1,2.2,2.2,0,0,0-1,.9l-.2.2" transform="translate(-0.4 -0.2)"/><path class="cls-2" d="M30.6,53.2h-.2l-.5-.3a1.3,1.3,0,0,0-.6-.4l-.5-.2-.6-.3a.2.2,0,0,1-.2-.2.5.5,0,0,1,.3-.4.3.3,0,0,1,.1-.2h.2l.7.4A2.9,2.9,0,0,1,31,53c.1,0,.1,0,.1.1h-.5" transform="translate(-0.4 -0.2)"/><path class="cls-2" d="M20.3,50.2c.4.1.6.1.7.3a.5.5,0,0,1-.1.3q-.1.3,0,.3c0,.1,0,.1.1.1s.4-.2.6-.6.1-.3.4-.4.3-.3.2-.4v-.2h-.2a.5.5,0,0,1-.4.2h-.2a.8.8,0,0,1-.8-.3l-.5-.8-.2-.2h0q-.2,0,0,.3l.2.4a.3.3,0,0,1,.1.2h-.2a2.2,2.2,0,0,1-1.9-1c-.1-.1-.1-.2-.2-.2h-.1c0,.1,0,.1.1.2l.2.4a.3.3,0,0,1,.1.2h-.2a2.3,2.3,0,0,1-1.8-.7h-.2c-.1.1-.1.1,0,.2v.2H14.6c0,.1.1.2.3.2a5.3,5.3,0,0,1,2.3.1c.1,0,.1,0,.1.1s0,0,0,.1l-.4.4a.3.3,0,0,0-.1.2c0,.1,0,.1.1.1h.2a2.7,2.7,0,0,1,1.4-.6H19a.2.2,0,0,1,0,.3l-.2.4v.3h.3c.3-.4.7-.8,1.1-.8Zm-.2,2h-.3a.3.3,0,0,1,.1-.2l.3-.6c.1-.1,0-.1,0-.2h-.1c-.2.1-.3.1-.4.3a3.7,3.7,0,0,1-1.5.8h-.5l-.2-.2a.4.4,0,0,1,.1-.3L18,51c.1-.1.1-.2,0-.2h-.2l-1.1.5h-.4l-.6-.2V51h0a1.2,1.2,0,0,0,.5-.5v-.2c0-.1-.1-.1-.3-.1H14.9c-.6.1-1.1.1-1.2-.1s-.2-.2-.2-.3.1-.2.4-.3L15,49h.2c0-.1-.1-.2-.1-.3a.1.1,0,0,1-.1-.1.2.2,0,0,1,.2-.2h.4c.3-.1.7.1,1.2.5H17a.2.2,0,0,0,0-.3v-.7h.2a2.2,2.2,0,0,1,1.7,1c.1.2.2.2.3.2h.1v-.3l-.2-.4a.4.4,0,0,1,.1-.3h.3c0-.1.1-.1.2-.1s.6.1.7.4l.6.9.3.2q.1,0,.3-.3a.2.2,0,0,1,.2-.2c.2,0,.5.2.8.6l.6.2h.3a4.3,4.3,0,0,1,1.4-.4h.6c.1.1.2.2.2.3s-.2.3-.6.4h-.4a3.2,3.2,0,0,0-1.5.8l-.5.2h-.3a1.7,1.7,0,0,0-.6.6c-.4.4-.8,1-1.5,1" transform="translate(-0.4 -0.2)"/><path class="cls-2" d="M11.2,46.4c.3,0,.4,0,.5.2h0c0,.1.1.3.2.3h.9a.1.1,0,0,0,.1-.1c.1-.1,0-.1,0-.2s-.3-.4-.4-.4h-.1c-.1.1-.2,0-.3,0s-.5-.8-.5-1.8a.2.2,0,0,0,0-.3h0c-.1,0-.2.1-.2.3V45c0,.2-.1.2-.1.2H11a2,2,0,0,1-.8-1.3c0-.2,0-1.3-.4-.6s-.3-.4-.5-.7,0-.2-.1-.1-.1.1-.1.2-.1.2-.1.3H8.8c0,.1.1.1.2.2s.7.4.9,1.1a.3.3,0,0,1,.1.2H8.6l.3.2,1.1.2c.3-.1.6.1.8.5s.1.2.1.3h-.2l-1.1.3H9.3c0,.1.1.1.3.2h1.6m3.4,1.8h-.2a2.9,2.9,0,0,0-2.2-.7l-1,.2c-.1,0-.1,0-.1-.1s-.1-.1-.1-.3,0-.3-.2-.3h-.6c-1,.1-1.6-.1-1.9-.8s-.1-.1,0-.2h.1l1.3-.2h.2c.1-.1,0-.2-.2-.2s-2.1-.6-2.3-1.2a.3.3,0,0,1-.1-.2H8.8c.1-.1,0-.1-.2-.2l-1-.6a.4.4,0,0,1-.1-.3h.8l.3-.2c.1-.1.1-.3.1-.6v-.3c0-.3,0-.4.1-.4s.2.1.5.5l.4.3c.1,0,.2-.2.2-.6h.4c.4.2.4,1.2.4,2.2v.2h.2c.1,0,.2-.1.2-.3l.2-.7a.2.2,0,0,1,.2-.2c.1-.1.2,0,.4.1s.5.9.4,2.3v.2h.1c.1-.1.3-.1.3-.4H13s.1,0,.1.2a3.6,3.6,0,0,0,1.6,2.6.4.4,0,0,1,.1.3h-.2" transform="translate(-0.4 -0.2)"/><path class="cls-2" d="M14.3,45.8l-.3-.2a.4.4,0,0,1,.1-.3h.7c.1,0,.1.1.1.2a.6.6,0,0,1-.6.3Z" transform="translate(-0.4 -0.2)"/><path class="cls-2" d="M11.8,49.1h-.2a.4.4,0,0,1-.2-.4c0-.2,0-.3.1-.4h.3c.2,0,.3.2.4.5s0,.2-.1.2l-.3.2" transform="translate(-0.4 -0.2)"/><path class="cls-2" d="M15.2,47.7c-.1,0-.3-.1-.5-.4s-.3-.4-.6-.5a.5.5,0,0,1-.2-.4l.3-.2h.1l.6-.2h.5c0,.2,0,.3-.1.4s-.2.3-.2.5.2.6.1.7Z" transform="translate(-0.4 -0.2)"/><path class="cls-2" d="M12.7,49.2c-.1,0-.2,0-.2-.2a3.5,3.5,0,0,0-.1-.6c-.1-.2-.2-.3-.1-.5h.5l.7.2h.6a.3.3,0,0,1,.1.2h-.3c-.2.1-.6.1-.8.5s-.2.3-.4.3" transform="translate(-0.4 -0.2)"/><path class="cls-2" d="M5.1,39.8H4.9c0,.1.1.1.2.1s.7,0,.9.2h.3a.3.3,0,0,0-.1-.2.7.7,0,0,1,.2-.8.4.4,0,0,0,.1-.3H6.1c-.2.1-.3,0-.4-.1a.9.9,0,0,1,0-1,12.1,12.1,0,0,1,.5-1.4v-.2H5.9a2.4,2.4,0,0,0-.2.8c-.2.3-.3.6-.4.6s-.4-.3-.6-.6a1.3,1.3,0,0,1,0-1.2v-.2H4.4l-.2.3-.5-.3H3.4v.3h.1c.2.1.5.4.5.5H3.3v.2s0,.1.2.1a1.6,1.6,0,0,1,1.5,1.2c0,.1-.1.2-.3.2H3.9a.2.2,0,0,0-.2.2h.2c1,.1,1.7.6,1.6,1s-.2.3-.4.3Zm3,2.6H7.9a7.9,7.9,0,0,1-1.5-1.2,1.2,1.2,0,0,0-1-.7,2.7,2.7,0,0,1-1.6-.8c-.1-.1-.1-.1,0-.2h.6a.1.1,0,0,0,.1-.1c.1-.1,0-.2-.2-.3S2.5,38.6,2.4,38v-.2H3a.1.1,0,0,0,.1-.1s0-.1-.2-.2a1.5,1.5,0,0,1-1-.7.4.4,0,0,1-.1-.3l.3-.2h.6a.8.8,0,0,0-.2-.4.4.4,0,0,1-.1-.3h.5l.5-.2h.2l.3.2c0,.2.1.4.3.4s.2-.1.2-.3.2-.4.3-.4H5c.2.2.2.6,0,1.4a.1.1,0,0,0,0,.2h.1c.1,0,.3-.2.4-.4s.2-.9.5-.9h.2c.2,0,.3.1.4.3s.1,1-.2,1.9v.3h.2c.1,0,.2,0,.2-.1l.3-.3h.2c.1.1.1.4,0,.8s-.5,2.7.9,3.5a.4.4,0,0,1,.1.3H8.1" transform="translate(-0.4 -0.2)"/><path class="cls-2" d="M7.8,41.5a.1.1,0,0,1-.1-.1c-.1-.7-.2-1.1-.4-1.2a.4.4,0,0,1,0-.5h.3l.9.2q.1,0,.3.3a.2.2,0,0,1-.2.2.6.6,0,0,0-.5.8c-.1.3-.2.4-.3.4" transform="translate(-0.4 -0.2)"/><path class="cls-2" d="M8.3,39.4H8.1a.3.3,0,0,1-.3-.3.5.5,0,0,1,.2-.4h.6c.1,0,.1.2.1.4a.5.5,0,0,1-.4.2" transform="translate(-0.4 -0.2)"/><path class="cls-2" d="M5,42.3c-.2,0-.3-.1-.3-.2a.4.4,0,0,1,0-.5l.3-.2c.1,0,.3,0,.3.3s.1.3,0,.4-.1.1-.3.2" transform="translate(-0.4 -0.2)"/><path class="cls-2" d="M5.8,42.8H5.5c0-.1-.1-.2,0-.3a2.5,2.5,0,0,0,.1-.8c0-.2.2-.3.3-.4s.3.1.3.2.3.5.6.6a1.1,1.1,0,0,1,.5.4c0,.1-.1.1-.2.1H6.5c-.2,0-.3,0-.3.1s-.3.2-.4.3" transform="translate(-0.4 -0.2)"/><path class="cls-2" d="M1.5,29.2c0,.1,0,.1.1.3s.6,1.1.5,1.3a.2.2,0,0,1-.2.2H1.7a.1.1,0,0,0,0,.2l.3.2c.3.1.4.2.3.5v.3c.2.2.3.3.5.2a.1.1,0,0,0,.1-.1c.1-.1,0-.3-.2-.5H2.5c0-.1.1-.2.2-.3s.5-.6.5-.6H2.8c-.3,0-.3-.1-.4-.5s.1-.5.3-.6.6-.4.6-.5H2.7V29a1.4,1.4,0,0,1,.5-1c.1-.1.2-.2.1-.3H3.1a.8.8,0,0,0-.6.2,1.1,1.1,0,0,0-.1.6v1H2l-.4-.3H1.5Zm2.1,5.6H3.5c-.3-.1-.4-.4-.5-.7s-.4-1.3-.7-1.4-.6-.4-.6-.6-.2-.6-.4-.6-.8-.4-.8-.8a1.8,1.8,0,0,1-.1-.5H.6l.5.2h.1a.1.1,0,0,0,.1-.1c.1-.1,0-.2,0-.4l-.4-.6a1,1,0,0,1,.1-.9l.4-.3a.1.1,0,0,1,.1.1c.3.4.4.4.5.4s.1-.2.1-.3.2-1.4.6-1.4h.6c.1,0,.3-.1.6-.4h.2l.2.3a1.2,1.2,0,0,1-.4,1.2c-.1.2-.2.3-.1.4h.1a.6.6,0,0,0,.5-.2h.2c.1,0,.1.1.1.3s-.3,1-1.2,1.5-.2.1-.2.2a.2.2,0,0,0,.2.2h.2l.5-.2h.3a.9.9,0,0,1-.4.8c-.2.3-.3.5-.5.6H3.4c0,.1,0,.2.1.2a.5.5,0,0,1,0,.5c-.4.3-.3,1,.1,2.1a1,1,0,0,1,.1.4H3.6" transform="translate(-0.4 -0.2)"/><path class="cls-2" d="M5.1,32.4H4.7a.4.4,0,0,1-.1-.3.3.3,0,0,1,.3-.3.6.6,0,0,1,.5.2c.1.1,0,.2,0,.4H5.1" transform="translate(-0.4 -0.2)"/><path class="cls-2" d="M.9,33.7H.6c-.1-.1-.2-.2-.1-.4a.3.3,0,0,1,.3-.3.1.1,0,0,1,.1-.1h.3c0,.1.1.3,0,.5s-.2.2-.3.3" transform="translate(-0.4 -0.2)"/><path class="cls-2" d="M2.7,34.6a.1.1,0,0,1-.1-.1c-.3-.2-.5-.4-.7-.4l-.2.2H1.2c-.1,0-.1-.1-.1-.3a2.2,2.2,0,0,0,.5-.8c0-.1.1-.1.2-.1s.4.1.4.3v.3l.4.6a.4.4,0,0,1,.1.3Z" transform="translate(-0.4 -0.2)"/><path class="cls-2" d="M4.1,34.3v-.2c-.1-.2,0-.4,0-.6s.1-.4-.1-.6a.8.8,0,0,1,.1-.4c0-.1.1-.1.2-.1h.1l.7.4a.3.3,0,0,1,.3.3c0,.1-.2.2-.4.3s-.5.2-.6.7-.1.2-.2.2" transform="translate(-0.4 -0.2)"/><path class="cls-2" d="M39.4,46.5c-.1.1-.2,0-.3-.1v-.2q.1-.3-.3-.6a.7.7,0,0,1-.1-.6.9.9,0,0,1,.6-.4l.5.2a.6.6,0,0,1,0,.8.4.4,0,0,0-.1.5.2.2,0,0,1,0,.3c0,.1-.1.1-.3.1" transform="translate(-0.4 -0.2)"/><path class="cls-2" d="M46.1,40.6c-.1,0-.2,0-.3-.2s-.1-.3-.4-.3-.5-.4-.4-.6a.7.7,0,0,1,.7-.6c.3,0,.5.2.5.6s0,.4.2.5a.4.4,0,0,1,.1.3c-.1.2-.2.3-.4.3" transform="translate(-0.4 -0.2)"/><path class="cls-2" d="M49.7,32.8h-.3c-.1-.2-.2-.2-.4-.2h-.1c-.5-.1-.6-.4-.6-.6a.9.9,0,0,1,.7-.6c.2-.1.4.1.5.4h.1a.4.4,0,0,0,.2.4c.2,0,.2.2.2.3a.3.3,0,0,1-.3.3" transform="translate(-0.4 -0.2)"/><path class="cls-2" d="M41.1,49.1a.5.5,0,0,1-.6-.4c0-.2-.2-.3-.4-.4s-.2-.1-.2-.3.2-.3.4-.4.1.1.2.2h.6c.4,0,.6.1.6.4s-.3.8-.6.8" transform="translate(-0.4 -0.2)"/><path class="cls-2" d="M48.6,42h-.5l-.3-.2h-.5a.3.3,0,0,0-.1-.2.4.4,0,0,1,.4-.4h.3l.3-.2h.4a.5.5,0,0,1,.4.2.9.9,0,0,1,0,.7c-.1.2-.2.3-.4.3" transform="translate(-0.4 -0.2)"/><path class="cls-2" d="M52.4,33.4h-.9a.1.1,0,0,1-.1.1.4.4,0,0,1-.4-.3c0-.1.1-.2.1-.3h.4c.2,0,.3-.1.4-.3l.4-.2c.2,0,.3,0,.4.2a.8.8,0,0,1,.1.8.5.5,0,0,1-.4.2" transform="translate(-0.4 -0.2)"/><path class="cls-2" d="M33.3,51.1h-.6L31,50.2a4.9,4.9,0,0,0-2.4-.7c-.1,0-.2-.2-.2-.3a.3.3,0,0,1,.3-.3,9.2,9.2,0,0,1,2.7.8h.5c.3-.1.5-.1.7-.3h.3a14.5,14.5,0,0,1,5-1.6h.8c0,.1-.1.2-.5.2H38a1.6,1.6,0,0,0-.9.3l-1.3.6a4.3,4.3,0,0,1-2,.8h-.2c-.5,0-.9.2-.9.4l.3.2h.5a6.8,6.8,0,0,0,2-.7,8.6,8.6,0,0,1,3.2-1.5H39v.3a12.5,12.5,0,0,1-3.4,1.9l-.9.3a3.8,3.8,0,0,1-1.3.4" transform="translate(-0.4 -0.2)"/><path class="cls-2" d="M34.8,52.1c-1.1.1-1.8-.1-2.1-.7a2.1,2.1,0,0,0,.8,0,6.3,6.3,0,0,0,2.9-1,6.2,6.2,0,0,1,1.8-.6c.3,0,.4,0,.4.1a.1.1,0,0,1-.1.1l-3.1,1.3-.3.2c0,.1.1.2.2.1a8.4,8.4,0,0,0,2.1-.8,4,4,0,0,1,1.6-.6h.3v.2a31.7,31.7,0,0,1-4.1,1.7h-.3" transform="translate(-0.4 -0.2)"/><path class="cls-2" d="M32.2,49.5c-.4,0-.8-.1-.9-.3h.1a3.8,3.8,0,0,0,1.7-1,3.9,3.9,0,0,1,1-.8l.5-.2.7-.2a1.9,1.9,0,0,1,1.1-.4.8.8,0,0,1,.7.1c.2.1.2.2.2.2h-.4a2.7,2.7,0,0,0-1.4.5l-1.1.4c-.3.1-.7.2-.7.4h.9a.9.9,0,0,0,.6-.3l.8-.3.8-.2.5-.2h0a.2.2,0,0,1,.2.2c0,.1,0,.2-.2.3h-.7l-1.1.3-3,1.4h-.3" transform="translate(-0.4 -0.2)"/><path class="cls-2" d="M39.6,47.6c-.2,0-.3-.1-.3-.2a.2.2,0,0,1,0-.3,2.2,2.2,0,0,1,.7-.6,8.8,8.8,0,0,0,2.1-1.9,12.3,12.3,0,0,1,2.3-2.2l1.3-1.1.2-.2v.2c-.1.6-.6,1.2-1.6,1.9a9.5,9.5,0,0,0-2.5,2.3c0,.1-.1.2,0,.3h0c.1,0,.2,0,.5-.3a9,9,0,0,1,2.1-1.9A4.7,4.7,0,0,0,46,41.7h.1s.1,0,.1.4a2.8,2.8,0,0,1-1.3,2A10,10,0,0,1,42,46.2c-1.1.3-1.8.6-2.1,1.2l-.3.2" transform="translate(-0.4 -0.2)"/><path class="cls-2" d="M43.2,46.8H41.8c-.2,0-.3,0-.3-.1l.2-.2a8.5,8.5,0,0,0,4.5-3.3l.3-.2h.1v.2a7.6,7.6,0,0,1-2.3,2.4l-.3.2c-.1.1-.2.2-.2.3h.3A13.3,13.3,0,0,0,47,43.4a.1.1,0,0,1,.1-.1h0c.1.4-.1.8-.7,1.4a13.8,13.8,0,0,1-2,1.8l-1.2.2" transform="translate(-0.4 -0.2)"/><path class="cls-2" d="M40.7,45.6h-.1v-.2a8.6,8.6,0,0,0,.3-1.3,2.5,2.5,0,0,1,.8-1.4,13.7,13.7,0,0,0,2.1-2h.1v.2c0,.4-.3.6-.7,1.1a3.8,3.8,0,0,0-.9.9l-.8.9a.2.2,0,0,0,0,.3h.1q.1,0,.3-.3A8.7,8.7,0,0,1,43.5,42l.2-.2s.1.1,0,.3a1.4,1.4,0,0,1-.8,1l-1.3,1.6a2.6,2.6,0,0,1-.9.9" transform="translate(-0.4 -0.2)"/><path class="cls-2" d="M46.7,41.4h-.2V41a5.2,5.2,0,0,0,1.1-2.6l.2-.6a15.5,15.5,0,0,1,1.9-3.6c.1-.2.2-.2.2-.2v.3a12.2,12.2,0,0,1-1,2.4,13.4,13.4,0,0,0-.7,1.8v.3h.1l.2-.2a8,8,0,0,0,1.3-2.8,10.2,10.2,0,0,1,.8-2.1l.2-.3s.1,0,.1.4a9.8,9.8,0,0,1-1.5,4.5l-.6.7a1.3,1.3,0,0,0-.6.7,7.6,7.6,0,0,1-1.1,1.4l-.2.2" transform="translate(-0.4 -0.2)"/><path class="cls-2" d="M47,39.2h-.1c-1.1-1.6,0-3.6,1.1-4.9s.2-.2.2-.2.1.1.1.2a1.7,1.7,0,0,0-.5,1.2c-.2.6-.4.8-.5,1.1l-.3.4c-.1.3-.2.6-.1.6H47c.1,0,.1-.1.2-.2a9.8,9.8,0,0,0,.8-1.8,6.4,6.4,0,0,1,.6-1.4h.3v.2A10.6,10.6,0,0,1,47.7,37a2.9,2.9,0,0,0-.4,1.4c-.1.4-.2.8-.3.8" transform="translate(-0.4 -0.2)"/><path class="cls-2" d="M48.5,39.9h-.1a.8.8,0,0,1,.1-.3,5.3,5.3,0,0,0,1.7-2.3,2.9,2.9,0,0,1,1.2-2.1h.3s0,.1-.2.3a4.8,4.8,0,0,0-.8,1.6,6.9,6.9,0,0,1-.7,1.5l-.2.3h.3a4,4,0,0,0,.8-1.5,9.3,9.3,0,0,1,1-2c.2-.1.2-.2.2-.2s.1.1,0,.4a6.1,6.1,0,0,0-.5,1.2A7,7,0,0,1,50.5,39l-.7.4a.5.5,0,0,1-.4.2l-.5.2h-.4" transform="translate(-0.4 -0.2)"/><path class="cls-2" d="M50.1,31.2h-.2c-1-.8-1.2-2.1-.7-4.1v-.2h.1a1,1,0,0,1,.2,1,3.3,3.3,0,0,0,.1,2.2c0,.1.1.1.2.1h.1v-.2a2.5,2.5,0,0,1-.1-1.7v-.5h.1c.2.2.3.5.2,1.3a2,2,0,0,0,.1,1.3,1.4,1.4,0,0,1,0,.9h-.1" transform="translate(-0.4 -0.2)"/><path class="cls-2" d="M50.4,33.3h-.2c-.1,0-.1-.1-.1-.2a5.1,5.1,0,0,1,.2-1.3,7.8,7.8,0,0,0,.2-1.6c0-1.9.1-3.1.6-3.6h.2c.1,0,.1.1.1.2a2.1,2.1,0,0,1-.3,1.5,7.1,7.1,0,0,0-.2,2.1.3.3,0,0,0,.1.2h.2a.4.4,0,0,0,.2-.3,3.2,3.2,0,0,1,.2-2,2,2,0,0,0,.1-1.5h.2c.1.1.3.3.3,1a8.3,8.3,0,0,1-.3,2.4l-.6,1a3.9,3.9,0,0,0-.6,1.1,1.2,1.2,0,0,0-.1.9c0,.2-.1.3-.2.3" transform="translate(-0.4 -0.2)"/><path class="cls-2" d="M51.2,32.1h0q-.2,0,0-.3l1-1.6a8.2,8.2,0,0,0,.4-2.7c-.1-.2,0-.2,0-.3h.1c.2.1.3.2.2.6l-.2,1.4-.2.9c0,.1,0,.2.1.2h0c.1,0,.2,0,.2-.2a2.7,2.7,0,0,1,.3-1.2,3.6,3.6,0,0,0,0-1.8H53s.1,0,.2.2a1,1,0,0,1,.3,1.2,2.2,2.2,0,0,0-.1.8,1.7,1.7,0,0,1-.3,1.2l-1.4,1.4-.5.2" transform="translate(-0.4 -0.2)"/><line class="cls-3" x1="524" y1="0.6" x2="524" y2="54.2"/></svg>